<?xml version="1.0" standalone="no"?><!-- Generator: Gravit.io --><svg xmlns="http://www.w3.org/2000/svg" xmlns:xlink="http://www.w3.org/1999/xlink" style="isolation:isolate" viewBox="0 0 16 16" width="16" height="16"><g><path d=" M 8 0 C 12.418 0 16 3.582 16 8 C 16 12.418 12.418 16 8 16 C 3.582 16 0 12.418 0 8 C 0 3.582 3.582 0 8 0 Z " fill="rgb(32,115,39)"/><path d=" M 7.2 8 C 6.758 8 6.4 7.642 6.4 7.2 C 6.4 6.758 6.758 6.4 7.2 6.4 L 8.8 6.4 C 9.05 6.401 9.285 6.518 9.436 6.718 C 9.587 6.917 9.635 7.175 9.568 7.416 L 8.264 12 L 8.8 12 C 9.242 12 9.6 12.358 9.6 12.8 C 9.6 13.242 9.242 13.6 8.8 13.6 L 7.2 13.6 C 6.95 13.599 6.715 13.482 6.564 13.282 C 6.413 13.083 6.365 12.825 6.432 12.584 L 7.736 8 L 7.2 8 Z  M 8.8 4.8 C 8.137 4.8 7.6 4.263 7.6 3.6 C 7.6 2.937 8.137 2.4 8.8 2.4 C 9.463 2.4 10 2.937 10 3.6 C 10 4.263 9.463 4.8 8.8 4.8 Z " fill="rgb(225,248,227)"/></g></svg>