<?xml version="1.0" standalone="no"?><!-- Generator: Gravit.io --><svg xmlns="http://www.w3.org/2000/svg" xmlns:xlink="http://www.w3.org/1999/xlink" style="isolation:isolate" viewBox="0 0 700 700" width="700" height="700"><defs><clipPath id="_clipPath_r6NU1vCma6bULEqOm0rFf5tQbmVHV9fz"><rect width="700" height="700"/></clipPath></defs><g clip-path="url(#_clipPath_r6NU1vCma6bULEqOm0rFf5tQbmVHV9fz)"><path d="M 14 0 L 686 0 C 693.727 0 700 6.273 700 14 L 700 686 C 700 693.727 693.727 700 686 700 L 14 700 C 6.273 700 0 693.727 0 686 L 0 14 C 0 6.273 6.273 0 14 0 Z" style="stroke:none;fill:#222222;stroke-miterlimit:10;"/><g><path d=" M 534.5 135 L 534.5 135 Q 639.5 135 639.5 253.2 L 639.5 253.2 L 639.5 409.2 L 639.5 409.2 Q 639.5 423 631.4 430.5 L 631.4 430.5 L 631.4 430.5 Q 623.3 438 608.9 438 L 608.9 438 L 608.9 438 Q 595.1 438 587 430.2 L 587 430.2 L 587 430.2 Q 578.9 422.4 578.9 409.2 L 578.9 409.2 L 578.9 256.2 L 578.9 256.2 Q 578.9 219 564.2 201.6 L 564.2 201.6 L 564.2 201.6 Q 550.563 184.4 520.7 184.2 C 490.838 184 484.656 190.353 472 196.9 C 459.344 203.447 450.5 162.6 476.3 148.8 L 476.3 148.8 L 476.3 148.8 Q 502.1 135 534.5 135 L 534.5 135 Z " fill="rgb(194,234,198)"/><path d=" M 180.5 438 L 180.5 438 Q 119.3 438 80.3 412.8 L 80.3 412.8 L 80.3 412.8 Q 69.5 406.2 65 399 L 65 399 L 65 399 Q 60.5 391.8 60.5 382.8 L 60.5 382.8 L 60.5 382.8 Q 60.5 373.2 65.9 366.6 L 65.9 366.6 L 65.9 366.6 Q 71.3 360 79.7 360 L 79.7 360 L 79.7 360 Q 87.5 360 104.3 369.6 L 104.3 369.6 L 104.3 369.6 Q 122.3 379.2 139.4 385.2 L 139.4 385.2 L 139.4 385.2 Q 156.5 391.2 182.3 391.2 L 182.3 391.2 L 182.3 391.2 Q 211.1 391.2 227.3 381 L 227.3 381 L 227.3 381 Q 243.5 370.8 243.5 352.2 L 243.5 352.2 L 243.5 352.2 Q 243.5 340.2 237.2 333 L 237.2 333 L 237.2 333 Q 230.9 325.8 215.3 320.1 L 215.3 320.1 L 215.3 320.1 Q 199.7 314.4 169.1 307.8 L 169.1 307.8 L 169.1 307.8 Q 116.3 296.4 93.2 276.9 L 93.2 276.9 L 93.2 276.9 Q 70.1 257.4 70.1 223.8 L 70.1 223.8 L 70.1 223.8 Q 70.1 198 85.1 177.3 L 85.1 177.3 L 85.1 177.3 Q 100.1 156.6 126.5 145.2 L 126.5 145.2 L 126.5 145.2 Q 152.9 133.8 186.5 133.8 L 186.5 133.8 L 186.5 133.8 Q 210.5 133.8 233.3 140.1 L 233.3 140.1 L 233.3 140.1 Q 256.1 146.4 273.5 158.4 L 273.5 158.4 L 273.5 158.4 Q 293.3 171.6 293.3 189 L 293.3 189 L 293.3 189 Q 293.3 198.6 287.6 205.2 L 287.6 205.2 L 287.6 205.2 Q 281.9 211.8 274.1 211.8 L 274.1 211.8 L 274.1 211.8 Q 268.7 211.8 263.3 209.4 L 263.3 209.4 L 263.3 209.4 Q 257.9 207 248.9 201.6 L 248.9 201.6 L 248.9 201.6 Q 232.7 192 218.6 186.6 L 218.6 186.6 L 218.6 186.6 Q 204.5 181.2 183.5 181.2 L 183.5 181.2 L 183.5 181.2 Q 158.3 181.2 143 192 L 143 192 L 143 192 Q 127.7 202.8 127.7 221.4 L 127.7 221.4 L 127.7 221.4 Q 127.7 238.2 141.8 247.5 L 141.8 247.5 L 141.8 247.5 Q 155.9 256.8 194.9 265.2 L 194.9 265.2 L 194.9 265.2 Q 235.1 273.6 257.9 284.4 L 257.9 284.4 L 257.9 284.4 Q 280.7 295.2 290.6 311.1 L 290.6 311.1 L 290.6 311.1 Q 300.5 327 300.5 351.6 L 300.5 351.6 L 300.5 351.6 Q 300.5 390.6 267.8 414.3 L 267.8 414.3 L 267.8 414.3 Q 235.1 438 180.5 438 L 180.5 438 Z " fill="rgb(194,234,198)"/><g><circle vector-effect="non-scaling-stroke" cx="405.81938095680897" cy="408.000004577637" r="30.000000000000057" fill="rgb(164,218,166)"/><circle vector-effect="non-scaling-stroke" cx="405.8193809568088" cy="287.0000045776367" r="30.000000000000057" fill="rgb(164,218,166)"/><circle vector-effect="non-scaling-stroke" cx="405.81938095680863" cy="166.00000457763656" r="30" fill="rgb(164,218,166)"/></g><path d=" M 316.563 502.3 L 316.563 502.3 Q 329.688 502.3 329.688 516.775 L 329.688 516.775 L 329.688 537.1 L 329.688 537.1 Q 329.688 538.525 328.9 539.313 L 328.9 539.313 L 328.9 539.313 Q 328.112 540.1 326.688 540.1 L 326.688 540.1 L 326.688 540.1 Q 325.263 540.1 324.438 539.313 L 324.438 539.313 L 324.438 539.313 Q 323.612 538.525 323.612 537.1 L 323.612 537.1 L 323.612 517.15 L 323.612 517.15 Q 323.612 512.05 321.625 509.725 L 321.625 509.725 L 321.625 509.725 Q 319.638 507.4 315.287 507.4 L 315.287 507.4 L 315.287 507.4 Q 310.262 507.4 307.262 510.475 L 307.262 510.475 L 307.262 510.475 Q 304.262 513.55 304.262 518.8 L 304.262 518.8 L 304.262 537.1 L 304.262 537.1 Q 304.262 538.525 303.475 539.313 L 303.475 539.313 L 303.475 539.313 Q 302.688 540.1 301.262 540.1 L 301.262 540.1 L 301.262 540.1 Q 299.838 540.1 299.012 539.313 L 299.012 539.313 L 299.012 539.313 Q 298.188 538.525 298.188 537.1 L 298.188 537.1 L 298.188 505.45 L 298.188 505.45 Q 298.188 504.1 299.012 503.275 L 299.012 503.275 L 299.012 503.275 Q 299.838 502.45 301.262 502.45 L 301.262 502.45 L 301.262 502.45 Q 302.612 502.45 303.4 503.275 L 303.4 503.275 L 303.4 503.275 Q 304.188 504.1 304.188 505.375 L 304.188 505.375 L 304.188 509.2 L 304.188 509.2 Q 305.987 505.825 309.213 504.063 L 309.213 504.063 L 309.213 504.063 Q 312.438 502.3 316.563 502.3 L 316.563 502.3 L 316.563 502.3 Z  M 355.713 502.3 L 355.713 502.3 Q 369.437 502.3 369.437 516.7 L 369.437 516.7 L 369.437 537.1 L 369.437 537.1 Q 369.437 538.45 368.65 539.275 L 368.65 539.275 L 368.65 539.275 Q 367.862 540.1 366.513 540.1 L 366.513 540.1 L 366.513 540.1 Q 365.162 540.1 364.338 539.275 L 364.338 539.275 L 364.338 539.275 Q 363.513 538.45 363.513 537.1 L 363.513 537.1 L 363.513 533.5 L 363.513 533.5 Q 362.088 536.725 359.162 538.488 L 359.162 538.488 L 359.162 538.488 Q 356.237 540.25 352.412 540.25 L 352.412 540.25 L 352.412 540.25 Q 348.888 540.25 345.925 538.825 L 345.925 538.825 L 345.925 538.825 Q 342.963 537.4 341.237 534.85 L 341.237 534.85 L 341.237 534.85 Q 339.513 532.3 339.513 529.225 L 339.513 529.225 L 339.513 529.225 Q 339.513 525.1 341.612 522.813 L 341.612 522.813 L 341.612 522.813 Q 343.713 520.525 348.513 519.513 L 348.513 519.513 L 348.513 519.513 Q 353.312 518.5 361.862 518.5 L 361.862 518.5 L 363.513 518.5 L 363.513 516.025 L 363.513 516.025 Q 363.513 511.525 361.675 509.425 L 361.675 509.425 L 361.675 509.425 Q 359.838 507.325 355.713 507.325 L 355.713 507.325 L 355.713 507.325 Q 350.612 507.325 345.362 510.1 L 345.362 510.1 L 345.362 510.1 Q 343.338 511.375 342.513 511.375 L 342.513 511.375 L 342.513 511.375 Q 341.612 511.375 341.013 510.7 L 341.013 510.7 L 341.013 510.7 Q 340.412 510.025 340.412 508.975 L 340.412 508.975 L 340.412 508.975 Q 340.412 507.925 341.05 507.138 L 341.05 507.138 L 341.05 507.138 Q 341.687 506.35 343.112 505.525 L 343.112 505.525 L 343.112 505.525 Q 345.737 504.025 349.075 503.163 L 349.075 503.163 L 349.075 503.163 Q 352.412 502.3 355.713 502.3 L 355.713 502.3 L 355.713 502.3 Z  M 353.237 535.45 L 353.237 535.45 Q 357.737 535.45 360.625 532.413 L 360.625 532.413 L 360.625 532.413 Q 363.513 529.375 363.513 524.575 L 363.513 524.575 L 363.513 522.4 L 362.162 522.4 L 362.162 522.4 Q 355.562 522.4 352.112 522.963 L 352.112 522.963 L 352.112 522.963 Q 348.662 523.525 347.2 524.838 L 347.2 524.838 L 347.2 524.838 Q 345.737 526.15 345.737 528.7 L 345.737 528.7 L 345.737 528.7 Q 345.737 531.625 347.875 533.538 L 347.875 533.538 L 347.875 533.538 Q 350.013 535.45 353.237 535.45 L 353.237 535.45 L 353.237 535.45 Z  M 406.862 504.325 L 406.862 504.325 Q 407.687 502.525 409.487 502.525 L 409.487 502.525 L 409.487 502.525 Q 410.612 502.525 411.513 503.275 L 411.513 503.275 L 411.513 503.275 Q 412.412 504.025 412.412 505.15 L 412.412 505.15 L 412.412 505.15 Q 412.412 505.825 412.112 506.35 L 412.112 506.35 L 397.487 537.85 L 397.487 537.85 Q 397.037 538.825 396.138 539.388 L 396.138 539.388 L 396.138 539.388 Q 395.237 539.95 394.187 539.95 L 394.187 539.95 L 394.187 539.95 Q 393.213 539.95 392.312 539.388 L 392.312 539.388 L 392.312 539.388 Q 391.412 538.825 390.888 537.85 L 390.888 537.85 L 376.338 506.35 L 376.338 506.35 Q 376.037 505.825 376.037 505.225 L 376.037 505.225 L 376.037 505.225 Q 376.037 504.1 377.05 503.275 L 377.05 503.275 L 377.05 503.275 Q 378.062 502.45 379.263 502.45 L 379.263 502.45 L 379.263 502.45 Q 380.013 502.45 380.725 502.9 L 380.725 502.9 L 380.725 502.9 Q 381.437 503.35 381.812 504.175 L 381.812 504.175 L 394.338 532.3 L 406.862 504.325 L 406.862 504.325 Z  M 422.162 540.1 L 422.162 540.1 Q 420.813 540.1 419.95 539.313 L 419.95 539.313 L 419.95 539.313 Q 419.088 538.525 419.088 537.1 L 419.088 537.1 L 419.088 505.45 L 419.088 505.45 Q 419.088 504.025 419.95 503.238 L 419.95 503.238 L 419.95 503.238 Q 420.813 502.45 422.162 502.45 L 422.162 502.45 L 422.162 502.45 Q 423.513 502.45 424.338 503.238 L 424.338 503.238 L 424.338 503.238 Q 425.162 504.025 425.162 505.45 L 425.162 505.45 L 425.162 537.1 L 425.162 537.1 Q 425.162 538.6 424.338 539.35 L 424.338 539.35 L 424.338 539.35 Q 423.513 540.1 422.162 540.1 L 422.162 540.1 L 422.162 540.1 Z  M 422.162 494.575 L 422.162 494.575 Q 420.362 494.575 419.237 493.525 L 419.237 493.525 L 419.237 493.525 Q 418.112 492.475 418.112 490.75 L 418.112 490.75 L 418.112 490.75 Q 418.112 489.1 419.237 488.05 L 419.237 488.05 L 419.237 488.05 Q 420.362 487 422.162 487 L 422.162 487 L 422.162 487 Q 423.963 487 425.088 488.05 L 425.088 488.05 L 425.088 488.05 Q 426.213 489.1 426.213 490.75 L 426.213 490.75 L 426.213 490.75 Q 426.213 492.475 425.088 493.525 L 425.088 493.525 L 425.088 493.525 Q 423.963 494.575 422.162 494.575 L 422.162 494.575 L 422.162 494.575 Z  M 466.112 502.45 L 466.112 502.45 Q 467.537 502.45 468.362 503.275 L 468.362 503.275 L 468.362 503.275 Q 469.187 504.1 469.187 505.45 L 469.187 505.45 L 469.187 537.25 L 469.187 537.25 Q 469.187 545.425 464.987 549.588 L 464.987 549.588 L 464.987 549.588 Q 460.787 553.75 452.537 553.75 L 452.537 553.75 L 452.537 553.75 Q 444.512 553.75 439.187 550.6 L 439.187 550.6 L 439.187 550.6 Q 436.487 549.1 436.487 547.15 L 436.487 547.15 L 436.487 547.15 Q 436.487 546.1 437.05 545.425 L 437.05 545.425 L 437.05 545.425 Q 437.612 544.75 438.512 544.75 L 438.512 544.75 L 438.512 544.75 Q 439.262 544.75 441.213 545.8 L 441.213 545.8 L 441.213 545.8 Q 443.838 547.15 446.387 547.975 L 446.387 547.975 L 446.387 547.975 Q 448.937 548.8 452.463 548.8 L 452.463 548.8 L 452.463 548.8 Q 457.787 548.8 460.487 545.988 L 460.487 545.988 L 460.487 545.988 Q 463.187 543.175 463.187 537.775 L 463.187 537.775 L 463.187 531.325 L 463.187 531.325 Q 461.612 534.85 458.35 536.725 L 458.35 536.725 L 458.35 536.725 Q 455.088 538.6 450.662 538.6 L 450.662 538.6 L 450.662 538.6 Q 445.862 538.6 442.15 536.35 L 442.15 536.35 L 442.15 536.35 Q 438.437 534.1 436.375 529.975 L 436.375 529.975 L 436.375 529.975 Q 434.312 525.85 434.312 520.45 L 434.312 520.45 L 434.312 520.45 Q 434.312 515.05 436.375 510.925 L 436.375 510.925 L 436.375 510.925 Q 438.437 506.8 442.15 504.55 L 442.15 504.55 L 442.15 504.55 Q 445.862 502.3 450.662 502.3 L 450.662 502.3 L 450.662 502.3 Q 455.012 502.3 458.237 504.175 L 458.237 504.175 L 458.237 504.175 Q 461.463 506.05 463.112 509.5 L 463.112 509.5 L 463.112 505.45 L 463.112 505.45 Q 463.112 504.1 463.9 503.275 L 463.9 503.275 L 463.9 503.275 Q 464.687 502.45 466.112 502.45 L 466.112 502.45 L 466.112 502.45 Z  M 451.862 533.575 L 451.862 533.575 Q 457.112 533.575 460.112 530.088 L 460.112 530.088 L 460.112 530.088 Q 463.112 526.6 463.112 520.45 L 463.112 520.45 L 463.112 520.45 Q 463.112 514.375 460.15 510.888 L 460.15 510.888 L 460.15 510.888 Q 457.187 507.4 451.862 507.4 L 451.862 507.4 L 451.862 507.4 Q 446.537 507.4 443.5 510.888 L 443.5 510.888 L 443.5 510.888 Q 440.463 514.375 440.463 520.45 L 440.463 520.45 L 440.463 520.45 Q 440.463 526.6 443.5 530.088 L 443.5 530.088 L 443.5 530.088 Q 446.537 533.575 451.862 533.575 L 451.862 533.575 L 451.862 533.575 Z  M 495.362 502.3 L 495.362 502.3 Q 509.087 502.3 509.087 516.7 L 509.087 516.7 L 509.087 537.1 L 509.087 537.1 Q 509.087 538.45 508.3 539.275 L 508.3 539.275 L 508.3 539.275 Q 507.512 540.1 506.162 540.1 L 506.162 540.1 L 506.162 540.1 Q 504.812 540.1 503.987 539.275 L 503.987 539.275 L 503.987 539.275 Q 503.162 538.45 503.162 537.1 L 503.162 537.1 L 503.162 533.5 L 503.162 533.5 Q 501.737 536.725 498.812 538.488 L 498.812 538.488 L 498.812 538.488 Q 495.887 540.25 492.062 540.25 L 492.062 540.25 L 492.062 540.25 Q 488.537 540.25 485.575 538.825 L 485.575 538.825 L 485.575 538.825 Q 482.612 537.4 480.887 534.85 L 480.887 534.85 L 480.887 534.85 Q 479.162 532.3 479.162 529.225 L 479.162 529.225 L 479.162 529.225 Q 479.162 525.1 481.262 522.813 L 481.262 522.813 L 481.262 522.813 Q 483.362 520.525 488.162 519.513 L 488.162 519.513 L 488.162 519.513 Q 492.962 518.5 501.512 518.5 L 501.512 518.5 L 503.162 518.5 L 503.162 516.025 L 503.162 516.025 Q 503.162 511.525 501.325 509.425 L 501.325 509.425 L 501.325 509.425 Q 499.487 507.325 495.362 507.325 L 495.362 507.325 L 495.362 507.325 Q 490.262 507.325 485.012 510.1 L 485.012 510.1 L 485.012 510.1 Q 482.987 511.375 482.162 511.375 L 482.162 511.375 L 482.162 511.375 Q 481.262 511.375 480.662 510.7 L 480.662 510.7 L 480.662 510.7 Q 480.062 510.025 480.062 508.975 L 480.062 508.975 L 480.062 508.975 Q 480.062 507.925 480.7 507.138 L 480.7 507.138 L 480.7 507.138 Q 481.337 506.35 482.762 505.525 L 482.762 505.525 L 482.762 505.525 Q 485.387 504.025 488.725 503.163 L 488.725 503.163 L 488.725 503.163 Q 492.062 502.3 495.362 502.3 L 495.362 502.3 L 495.362 502.3 Z  M 492.887 535.45 L 492.887 535.45 Q 497.387 535.45 500.275 532.413 L 500.275 532.413 L 500.275 532.413 Q 503.162 529.375 503.162 524.575 L 503.162 524.575 L 503.162 522.4 L 501.812 522.4 L 501.812 522.4 Q 495.212 522.4 491.762 522.963 L 491.762 522.963 L 491.762 522.963 Q 488.312 523.525 486.85 524.838 L 486.85 524.838 L 486.85 524.838 Q 485.387 526.15 485.387 528.7 L 485.387 528.7 L 485.387 528.7 Q 485.387 531.625 487.525 533.538 L 487.525 533.538 L 487.525 533.538 Q 489.662 535.45 492.887 535.45 L 492.887 535.45 L 492.887 535.45 Z  M 537.063 535.3 L 537.063 535.3 Q 539.688 535.525 539.688 537.7 L 539.688 537.7 L 539.688 537.7 Q 539.688 538.975 538.75 539.613 L 538.75 539.613 L 538.75 539.613 Q 537.813 540.25 535.938 540.1 L 535.938 540.1 L 533.912 539.95 L 533.912 539.95 Q 527.912 539.5 525.063 536.35 L 525.063 536.35 L 525.063 536.35 Q 522.212 533.2 522.212 526.825 L 522.212 526.825 L 522.212 508 L 517.188 508 L 517.188 508 Q 515.912 508 515.2 507.363 L 515.2 507.363 L 515.2 507.363 Q 514.487 506.725 514.487 505.675 L 514.487 505.675 L 514.487 505.675 Q 514.487 504.55 515.2 503.875 L 515.2 503.875 L 515.2 503.875 Q 515.912 503.2 517.188 503.2 L 517.188 503.2 L 522.212 503.2 L 522.212 494.725 L 522.212 494.725 Q 522.212 493.3 523.037 492.513 L 523.037 492.513 L 523.037 492.513 Q 523.862 491.725 525.287 491.725 L 525.287 491.725 L 525.287 491.725 Q 526.637 491.725 527.462 492.513 L 527.462 492.513 L 527.462 492.513 Q 528.287 493.3 528.287 494.725 L 528.287 494.725 L 528.287 503.2 L 536.613 503.2 L 536.613 503.2 Q 537.813 503.2 538.525 503.875 L 538.525 503.875 L 538.525 503.875 Q 539.238 504.55 539.238 505.675 L 539.238 505.675 L 539.238 505.675 Q 539.238 506.725 538.525 507.363 L 538.525 507.363 L 538.525 507.363 Q 537.813 508 536.613 508 L 536.613 508 L 528.287 508 L 528.287 527.125 L 528.287 527.125 Q 528.287 531.25 529.975 533.088 L 529.975 533.088 L 529.975 533.088 Q 531.662 534.925 535.037 535.15 L 535.037 535.15 L 537.063 535.3 L 537.063 535.3 Z  M 548.762 540.1 L 548.762 540.1 Q 547.412 540.1 546.55 539.313 L 546.55 539.313 L 546.55 539.313 Q 545.688 538.525 545.688 537.1 L 545.688 537.1 L 545.688 505.45 L 545.688 505.45 Q 545.688 504.025 546.55 503.238 L 546.55 503.238 L 546.55 503.238 Q 547.412 502.45 548.762 502.45 L 548.762 502.45 L 548.762 502.45 Q 550.113 502.45 550.938 503.238 L 550.938 503.238 L 550.938 503.238 Q 551.762 504.025 551.762 505.45 L 551.762 505.45 L 551.762 537.1 L 551.762 537.1 Q 551.762 538.6 550.938 539.35 L 550.938 539.35 L 550.938 539.35 Q 550.113 540.1 548.762 540.1 L 548.762 540.1 L 548.762 540.1 Z  M 548.762 494.575 L 548.762 494.575 Q 546.962 494.575 545.837 493.525 L 545.837 493.525 L 545.837 493.525 Q 544.712 492.475 544.712 490.75 L 544.712 490.75 L 544.712 490.75 Q 544.712 489.1 545.837 488.05 L 545.837 488.05 L 545.837 488.05 Q 546.962 487 548.762 487 L 548.762 487 L 548.762 487 Q 550.563 487 551.688 488.05 L 551.688 488.05 L 551.688 488.05 Q 552.813 489.1 552.813 490.75 L 552.813 490.75 L 552.813 490.75 Q 552.813 492.475 551.688 493.525 L 551.688 493.525 L 551.688 493.525 Q 550.563 494.575 548.762 494.575 L 548.762 494.575 L 548.762 494.575 Z  M 578.238 540.25 L 578.238 540.25 Q 573.062 540.25 569.125 537.925 L 569.125 537.925 L 569.125 537.925 Q 565.188 535.6 563.05 531.288 L 563.05 531.288 L 563.05 531.288 Q 560.912 526.975 560.912 521.275 L 560.912 521.275 L 560.912 521.275 Q 560.912 515.575 563.05 511.263 L 563.05 511.263 L 563.05 511.263 Q 565.188 506.95 569.125 504.625 L 569.125 504.625 L 569.125 504.625 Q 573.062 502.3 578.238 502.3 L 578.238 502.3 L 578.238 502.3 Q 583.412 502.3 587.387 504.625 L 587.387 504.625 L 587.387 504.625 Q 591.363 506.95 593.5 511.263 L 593.5 511.263 L 593.5 511.263 Q 595.637 515.575 595.637 521.275 L 595.637 521.275 L 595.637 521.275 Q 595.637 526.975 593.5 531.288 L 593.5 531.288 L 593.5 531.288 Q 591.363 535.6 587.387 537.925 L 587.387 537.925 L 587.387 537.925 Q 583.412 540.25 578.238 540.25 L 578.238 540.25 L 578.238 540.25 Z  M 578.238 535.225 L 578.238 535.225 Q 583.637 535.225 586.525 531.663 L 586.525 531.663 L 586.525 531.663 Q 589.412 528.1 589.412 521.275 L 589.412 521.275 L 589.412 521.275 Q 589.412 514.6 586.488 510.963 L 586.488 510.963 L 586.488 510.963 Q 583.562 507.325 578.238 507.325 L 578.238 507.325 L 578.238 507.325 Q 572.912 507.325 569.988 510.963 L 569.988 510.963 L 569.988 510.963 Q 567.063 514.6 567.063 521.275 L 567.063 521.275 L 567.063 521.275 Q 567.063 528.025 569.95 531.625 L 569.95 531.625 L 569.95 531.625 Q 572.837 535.225 578.238 535.225 L 578.238 535.225 L 578.238 535.225 Z  M 623.087 502.3 L 623.087 502.3 Q 636.212 502.3 636.212 516.775 L 636.212 516.775 L 636.212 537.1 L 636.212 537.1 Q 636.212 538.525 635.425 539.313 L 635.425 539.313 L 635.425 539.313 Q 634.637 540.1 633.212 540.1 L 633.212 540.1 L 633.212 540.1 Q 631.787 540.1 630.962 539.313 L 630.962 539.313 L 630.962 539.313 Q 630.137 538.525 630.137 537.1 L 630.137 537.1 L 630.137 517.15 L 630.137 517.15 Q 630.137 512.05 628.15 509.725 L 628.15 509.725 L 628.15 509.725 Q 626.162 507.4 621.812 507.4 L 621.812 507.4 L 621.812 507.4 Q 616.787 507.4 613.787 510.475 L 613.787 510.475 L 613.787 510.475 Q 610.787 513.55 610.787 518.8 L 610.787 518.8 L 610.787 537.1 L 610.787 537.1 Q 610.787 538.525 610 539.313 L 610 539.313 L 610 539.313 Q 609.212 540.1 607.787 540.1 L 607.787 540.1 L 607.787 540.1 Q 606.362 540.1 605.537 539.313 L 605.537 539.313 L 605.537 539.313 Q 604.712 538.525 604.712 537.1 L 604.712 537.1 L 604.712 505.45 L 604.712 505.45 Q 604.712 504.1 605.537 503.275 L 605.537 503.275 L 605.537 503.275 Q 606.362 502.45 607.787 502.45 L 607.787 502.45 L 607.787 502.45 Q 609.137 502.45 609.925 503.275 L 609.925 503.275 L 609.925 503.275 Q 610.712 504.1 610.712 505.375 L 610.712 505.375 L 610.712 509.2 L 610.712 509.2 Q 612.512 505.825 615.737 504.063 L 615.737 504.063 L 615.737 504.063 Q 618.962 502.3 623.087 502.3 L 623.087 502.3 L 623.087 502.3 Z  M 74.238 540.25 L 74.238 540.25 Q 70.788 540.25 67.675 539.425 L 67.675 539.425 L 67.675 539.425 Q 64.563 538.6 62.163 537.1 L 62.163 537.1 L 62.163 537.1 Q 60.813 536.2 60.25 535.413 L 60.25 535.413 L 60.25 535.413 Q 59.688 534.625 59.688 533.5 L 59.688 533.5 L 59.688 533.5 Q 59.688 532.525 60.25 531.888 L 60.25 531.888 L 60.25 531.888 Q 60.813 531.25 61.713 531.25 L 61.713 531.25 L 61.713 531.25 Q 62.613 531.25 64.338 532.375 L 64.338 532.375 L 64.338 532.375 Q 66.588 533.725 68.8 534.513 L 68.8 534.513 L 68.8 534.513 Q 71.013 535.3 74.313 535.3 L 74.313 535.3 L 74.313 535.3 Q 78.363 535.3 80.613 533.875 L 80.613 533.875 L 80.613 533.875 Q 82.863 532.45 82.863 529.75 L 82.863 529.75 L 82.863 529.75 Q 82.863 528.1 82.038 527.088 L 82.038 527.088 L 82.038 527.088 Q 81.213 526.075 79.188 525.288 L 79.188 525.288 L 79.188 525.288 Q 77.163 524.5 73.263 523.675 L 73.263 523.675 L 73.263 523.675 Q 66.663 522.25 63.813 519.85 L 63.813 519.85 L 63.813 519.85 Q 60.963 517.45 60.963 513.325 L 60.963 513.325 L 60.963 513.325 Q 60.963 510.1 62.763 507.625 L 62.763 507.625 L 62.763 507.625 Q 64.563 505.15 67.75 503.725 L 67.75 503.725 L 67.75 503.725 Q 70.938 502.3 74.988 502.3 L 74.988 502.3 L 74.988 502.3 Q 77.913 502.3 80.65 503.088 L 80.65 503.088 L 80.65 503.088 Q 83.388 503.875 85.488 505.3 L 85.488 505.3 L 85.488 505.3 Q 88.038 507.1 88.038 509.05 L 88.038 509.05 L 88.038 509.05 Q 88.038 510.025 87.438 510.7 L 87.438 510.7 L 87.438 510.7 Q 86.838 511.375 86.013 511.375 L 86.013 511.375 L 86.013 511.375 Q 85.113 511.375 83.313 510.1 L 83.313 510.1 L 83.313 510.1 Q 81.213 508.75 79.338 508 L 79.338 508 L 79.338 508 Q 77.463 507.25 74.688 507.25 L 74.688 507.25 L 74.688 507.25 Q 71.163 507.25 69.025 508.825 L 69.025 508.825 L 69.025 508.825 Q 66.888 510.4 66.888 513.025 L 66.888 513.025 L 66.888 513.025 Q 66.888 514.675 67.675 515.688 L 67.675 515.688 L 67.675 515.688 Q 68.463 516.7 70.3 517.488 L 70.3 517.488 L 70.3 517.488 Q 72.138 518.275 75.588 519.025 L 75.588 519.025 L 75.588 519.025 Q 80.688 520.15 83.5 521.5 L 83.5 521.5 L 83.5 521.5 Q 86.313 522.85 87.513 524.8 L 87.513 524.8 L 87.513 524.8 Q 88.713 526.75 88.713 529.75 L 88.713 529.75 L 88.713 529.75 Q 88.713 534.475 84.738 537.363 L 84.738 537.363 L 84.738 537.363 Q 80.763 540.25 74.238 540.25 L 74.238 540.25 L 74.238 540.25 Z  M 101.013 540.1 L 101.013 540.1 Q 99.663 540.1 98.8 539.313 L 98.8 539.313 L 98.8 539.313 Q 97.938 538.525 97.938 537.1 L 97.938 537.1 L 97.938 505.45 L 97.938 505.45 Q 97.938 504.025 98.8 503.238 L 98.8 503.238 L 98.8 503.238 Q 99.663 502.45 101.013 502.45 L 101.013 502.45 L 101.013 502.45 Q 102.363 502.45 103.188 503.238 L 103.188 503.238 L 103.188 503.238 Q 104.013 504.025 104.013 505.45 L 104.013 505.45 L 104.013 537.1 L 104.013 537.1 Q 104.013 538.6 103.188 539.35 L 103.188 539.35 L 103.188 539.35 Q 102.363 540.1 101.013 540.1 L 101.013 540.1 L 101.013 540.1 Z  M 101.013 494.575 L 101.013 494.575 Q 99.213 494.575 98.088 493.525 L 98.088 493.525 L 98.088 493.525 Q 96.963 492.475 96.963 490.75 L 96.963 490.75 L 96.963 490.75 Q 96.963 489.1 98.088 488.05 L 98.088 488.05 L 98.088 488.05 Q 99.213 487 101.013 487 L 101.013 487 L 101.013 487 Q 102.813 487 103.938 488.05 L 103.938 488.05 L 103.938 488.05 Q 105.063 489.1 105.063 490.75 L 105.063 490.75 L 105.063 490.75 Q 105.063 492.475 103.938 493.525 L 103.938 493.525 L 103.938 493.525 Q 102.813 494.575 101.013 494.575 L 101.013 494.575 L 101.013 494.575 Z  M 155.988 502.3 L 155.988 502.3 Q 168.138 502.3 168.138 516.775 L 168.138 516.775 L 168.138 537.1 L 168.138 537.1 Q 168.138 538.525 167.313 539.313 L 167.313 539.313 L 167.313 539.313 Q 166.488 540.1 165.138 540.1 L 165.138 540.1 L 165.138 540.1 Q 163.788 540.1 162.925 539.313 L 162.925 539.313 L 162.925 539.313 Q 162.063 538.525 162.063 537.1 L 162.063 537.1 L 162.063 516.925 L 162.063 516.925 Q 162.063 511.9 160.263 509.65 L 160.263 509.65 L 160.263 509.65 Q 158.463 507.4 154.638 507.4 L 154.638 507.4 L 154.638 507.4 Q 150.063 507.4 147.438 510.475 L 147.438 510.475 L 147.438 510.475 Q 144.813 513.55 144.813 518.8 L 144.813 518.8 L 144.813 537.1 L 144.813 537.1 Q 144.813 538.525 143.95 539.313 L 143.95 539.313 L 143.95 539.313 Q 143.088 540.1 141.738 540.1 L 141.738 540.1 L 141.738 540.1 Q 140.388 540.1 139.563 539.313 L 139.563 539.313 L 139.563 539.313 Q 138.738 538.525 138.738 537.1 L 138.738 537.1 L 138.738 516.925 L 138.738 516.925 Q 138.738 511.9 136.938 509.65 L 136.938 509.65 L 136.938 509.65 Q 135.138 507.4 131.238 507.4 L 131.238 507.4 L 131.238 507.4 Q 126.738 507.4 124.075 510.475 L 124.075 510.475 L 124.075 510.475 Q 121.413 513.55 121.413 518.8 L 121.413 518.8 L 121.413 537.1 L 121.413 537.1 Q 121.413 538.525 120.588 539.313 L 120.588 539.313 L 120.588 539.313 Q 119.762 540.1 118.413 540.1 L 118.413 540.1 L 118.413 540.1 Q 117.063 540.1 116.2 539.313 L 116.2 539.313 L 116.2 539.313 Q 115.338 538.525 115.338 537.1 L 115.338 537.1 L 115.338 505.45 L 115.338 505.45 Q 115.338 504.1 116.2 503.275 L 116.2 503.275 L 116.2 503.275 Q 117.063 502.45 118.413 502.45 L 118.413 502.45 L 118.413 502.45 Q 119.688 502.45 120.513 503.238 L 120.513 503.238 L 120.513 503.238 Q 121.338 504.025 121.338 505.375 L 121.338 505.375 L 121.338 508.975 L 121.338 508.975 Q 122.988 505.75 125.913 504.025 L 125.913 504.025 L 125.913 504.025 Q 128.838 502.3 132.663 502.3 L 132.663 502.3 L 132.663 502.3 Q 141.213 502.3 143.838 509.5 L 143.838 509.5 L 143.838 509.5 Q 145.413 506.2 148.638 504.25 L 148.638 504.25 L 148.638 504.25 Q 151.863 502.3 155.988 502.3 L 155.988 502.3 L 155.988 502.3 Z  M 197.613 502.3 L 197.613 502.3 Q 202.413 502.3 206.088 504.7 L 206.088 504.7 L 206.088 504.7 Q 209.763 507.1 211.788 511.413 L 211.788 511.413 L 211.788 511.413 Q 213.813 515.725 213.813 521.425 L 213.813 521.425 L 213.813 521.425 Q 213.813 527.125 211.788 531.363 L 211.788 531.363 L 211.788 531.363 Q 209.763 535.6 206.125 537.925 L 206.125 537.925 L 206.125 537.925 Q 202.488 540.25 197.613 540.25 L 197.613 540.25 L 197.613 540.25 Q 193.338 540.25 190.15 538.375 L 190.15 538.375 L 190.15 538.375 Q 186.963 536.5 185.313 533.05 L 185.313 533.05 L 185.313 550.675 L 185.313 550.675 Q 185.313 552.025 184.525 552.813 L 184.525 552.813 L 184.525 552.813 Q 183.738 553.6 182.313 553.6 L 182.313 553.6 L 182.313 553.6 Q 180.888 553.6 180.063 552.775 L 180.063 552.775 L 180.063 552.775 Q 179.238 551.95 179.238 550.675 L 179.238 550.675 L 179.238 505.45 L 179.238 505.45 Q 179.238 504.1 180.063 503.275 L 180.063 503.275 L 180.063 503.275 Q 180.888 502.45 182.313 502.45 L 182.313 502.45 L 182.313 502.45 Q 183.738 502.45 184.525 503.275 L 184.525 503.275 L 184.525 503.275 Q 185.313 504.1 185.313 505.45 L 185.313 505.45 L 185.313 509.5 L 185.313 509.5 Q 186.963 506.05 190.15 504.175 L 190.15 504.175 L 190.15 504.175 Q 193.338 502.3 197.613 502.3 L 197.613 502.3 L 197.613 502.3 Z  M 196.413 535.225 L 196.413 535.225 Q 201.738 535.225 204.663 531.625 L 204.663 531.625 L 204.663 531.625 Q 207.588 528.025 207.588 521.425 L 207.588 521.425 L 207.588 521.425 Q 207.588 514.825 204.663 511.113 L 204.663 511.113 L 204.663 511.113 Q 201.738 507.4 196.413 507.4 L 196.413 507.4 L 196.413 507.4 Q 191.088 507.4 188.2 511 L 188.2 511 L 188.2 511 Q 185.313 514.6 185.313 521.275 L 185.313 521.275 L 185.313 521.275 Q 185.313 527.95 188.2 531.588 L 188.2 531.588 L 188.2 531.588 Q 191.088 535.225 196.413 535.225 L 196.413 535.225 L 196.413 535.225 Z  M 225.962 540.1 L 225.962 540.1 Q 224.612 540.1 223.75 539.313 L 223.75 539.313 L 223.75 539.313 Q 222.888 538.525 222.888 537.1 L 222.888 537.1 L 222.888 489.475 L 222.888 489.475 Q 222.888 488.05 223.75 487.263 L 223.75 487.263 L 223.75 487.263 Q 224.612 486.475 225.962 486.475 L 225.962 486.475 L 225.962 486.475 Q 227.237 486.475 228.1 487.263 L 228.1 487.263 L 228.1 487.263 Q 228.962 488.05 228.962 489.475 L 228.962 489.475 L 228.962 537.1 L 228.962 537.1 Q 228.962 538.525 228.1 539.313 L 228.1 539.313 L 228.1 539.313 Q 227.237 540.1 225.962 540.1 L 225.962 540.1 L 225.962 540.1 Z  M 266.612 504.325 L 266.612 504.325 Q 267.438 502.525 269.237 502.525 L 269.237 502.525 L 269.237 502.525 Q 270.362 502.525 271.263 503.275 L 271.263 503.275 L 271.263 503.275 Q 272.163 504.025 272.163 505.15 L 272.163 505.15 L 272.163 505.15 Q 272.163 505.825 271.862 506.35 L 271.862 506.35 L 250.788 551.8 L 250.788 551.8 Q 250.413 552.625 249.7 553.075 L 249.7 553.075 L 249.7 553.075 Q 248.987 553.525 248.237 553.525 L 248.237 553.525 L 248.237 553.525 Q 247.112 553.525 246.25 552.813 L 246.25 552.813 L 246.25 552.813 Q 245.388 552.1 245.388 550.975 L 245.388 550.975 L 245.388 550.975 Q 245.388 550.375 245.688 549.775 L 245.688 549.775 L 250.938 538.45 L 236.088 506.35 L 236.088 506.35 Q 235.788 505.825 235.788 505.225 L 235.788 505.225 L 235.788 505.225 Q 235.788 504.1 236.8 503.275 L 236.8 503.275 L 236.8 503.275 Q 237.813 502.45 239.013 502.45 L 239.013 502.45 L 239.013 502.45 Q 239.763 502.45 240.475 502.9 L 240.475 502.9 L 240.475 502.9 Q 241.188 503.35 241.563 504.175 L 241.563 504.175 L 254.088 532.3 L 266.612 504.325 L 266.612 504.325 Z " fill="rgb(164,218,166)"/></g></g></svg>