<?xml version="1.0" standalone="no"?><!-- Generator: Gravit.io --><svg xmlns="http://www.w3.org/2000/svg" xmlns:xlink="http://www.w3.org/1999/xlink" style="isolation:isolate" viewBox="0 0 588 432.4" width="588" height="432.4"><defs><clipPath id="_clipPath_yRwsVEdkeOE4wyMQZZ7XmvBsBAGDpXsr"><rect width="588" height="432.4"/></clipPath></defs><g clip-path="url(#_clipPath_yRwsVEdkeOE4wyMQZZ7XmvBsBAGDpXsr)"><g><path d=" M 478.5 1.2 L 478.5 1.2 Q 583.5 1.2 583.5 119.4 L 583.5 119.4 L 583.5 275.4 L 583.5 275.4 Q 583.5 289.2 575.4 296.7 L 575.4 296.7 L 575.4 296.7 Q 567.3 304.2 552.9 304.2 L 552.9 304.2 L 552.9 304.2 Q 539.1 304.2 531 296.4 L 531 296.4 L 531 296.4 Q 522.9 288.6 522.9 275.4 L 522.9 275.4 L 522.9 122.4 L 522.9 122.4 Q 522.9 85.2 508.2 67.8 L 508.2 67.8 L 508.2 67.8 Q 494.563 50.6 464.7 50.4 C 434.838 50.2 428.656 56.553 416 63.1 C 403.344 69.647 394.5 28.8 420.3 15 L 420.3 15 L 420.3 15 Q 446.1 1.2 478.5 1.2 L 478.5 1.2 Z " fill="rgb(194,234,198)"/><path d=" M 124.5 304.2 L 124.5 304.2 Q 63.3 304.2 24.3 279 L 24.3 279 L 24.3 279 Q 13.5 272.4 9 265.2 L 9 265.2 L 9 265.2 Q 4.5 258 4.5 249 L 4.5 249 L 4.5 249 Q 4.5 239.4 9.9 232.8 L 9.9 232.8 L 9.9 232.8 Q 15.3 226.2 23.7 226.2 L 23.7 226.2 L 23.7 226.2 Q 31.5 226.2 48.3 235.8 L 48.3 235.8 L 48.3 235.8 Q 66.3 245.4 83.4 251.4 L 83.4 251.4 L 83.4 251.4 Q 100.5 257.4 126.3 257.4 L 126.3 257.4 L 126.3 257.4 Q 155.1 257.4 171.3 247.2 L 171.3 247.2 L 171.3 247.2 Q 187.5 237 187.5 218.4 L 187.5 218.4 L 187.5 218.4 Q 187.5 206.4 181.2 199.2 L 181.2 199.2 L 181.2 199.2 Q 174.9 192 159.3 186.3 L 159.3 186.3 L 159.3 186.3 Q 143.7 180.6 113.1 174 L 113.1 174 L 113.1 174 Q 60.3 162.6 37.2 143.1 L 37.2 143.1 L 37.2 143.1 Q 14.1 123.6 14.1 90 L 14.1 90 L 14.1 90 Q 14.1 64.2 29.1 43.5 L 29.1 43.5 L 29.1 43.5 Q 44.1 22.8 70.5 11.4 L 70.5 11.4 L 70.5 11.4 Q 96.9 0 130.5 0 L 130.5 0 L 130.5 0 Q 154.5 0 177.3 6.3 L 177.3 6.3 L 177.3 6.3 Q 200.1 12.6 217.5 24.6 L 217.5 24.6 L 217.5 24.6 Q 237.3 37.8 237.3 55.2 L 237.3 55.2 L 237.3 55.2 Q 237.3 64.8 231.6 71.4 L 231.6 71.4 L 231.6 71.4 Q 225.9 78 218.1 78 L 218.1 78 L 218.1 78 Q 212.7 78 207.3 75.6 L 207.3 75.6 L 207.3 75.6 Q 201.9 73.2 192.9 67.8 L 192.9 67.8 L 192.9 67.8 Q 176.7 58.2 162.6 52.8 L 162.6 52.8 L 162.6 52.8 Q 148.5 47.4 127.5 47.4 L 127.5 47.4 L 127.5 47.4 Q 102.3 47.4 87 58.2 L 87 58.2 L 87 58.2 Q 71.7 69 71.7 87.6 L 71.7 87.6 L 71.7 87.6 Q 71.7 104.4 85.8 113.7 L 85.8 113.7 L 85.8 113.7 Q 99.9 123 138.9 131.4 L 138.9 131.4 L 138.9 131.4 Q 179.1 139.8 201.9 150.6 L 201.9 150.6 L 201.9 150.6 Q 224.7 161.4 234.6 177.3 L 234.6 177.3 L 234.6 177.3 Q 244.5 193.2 244.5 217.8 L 244.5 217.8 L 244.5 217.8 Q 244.5 256.8 211.8 280.5 L 211.8 280.5 L 211.8 280.5 Q 179.1 304.2 124.5 304.2 L 124.5 304.2 Z " fill="rgb(194,234,198)"/><g><circle vector-effect="non-scaling-stroke" cx="349.81938095680897" cy="274.200006103516" r="30.000000000000057" fill="rgb(164,218,166)"/><circle vector-effect="non-scaling-stroke" cx="349.8193809568088" cy="153.20000610351562" r="30.000000000000057" fill="rgb(164,218,166)"/><circle vector-effect="non-scaling-stroke" cx="349.81938095680863" cy="32.200006103515534" r="30" fill="rgb(164,218,166)"/></g><path d=" M 260.563 368.5 L 260.563 368.5 Q 273.688 368.5 273.688 382.975 L 273.688 382.975 L 273.688 403.3 L 273.688 403.3 Q 273.688 404.725 272.9 405.513 L 272.9 405.513 L 272.9 405.513 Q 272.112 406.3 270.688 406.3 L 270.688 406.3 L 270.688 406.3 Q 269.263 406.3 268.438 405.513 L 268.438 405.513 L 268.438 405.513 Q 267.612 404.725 267.612 403.3 L 267.612 403.3 L 267.612 383.35 L 267.612 383.35 Q 267.612 378.25 265.625 375.925 L 265.625 375.925 L 265.625 375.925 Q 263.638 373.6 259.287 373.6 L 259.287 373.6 L 259.287 373.6 Q 254.262 373.6 251.262 376.675 L 251.262 376.675 L 251.262 376.675 Q 248.262 379.75 248.262 385 L 248.262 385 L 248.262 403.3 L 248.262 403.3 Q 248.262 404.725 247.475 405.513 L 247.475 405.513 L 247.475 405.513 Q 246.687 406.3 245.262 406.3 L 245.262 406.3 L 245.262 406.3 Q 243.837 406.3 243.012 405.513 L 243.012 405.513 L 243.012 405.513 Q 242.187 404.725 242.187 403.3 L 242.187 403.3 L 242.187 371.65 L 242.187 371.65 Q 242.187 370.3 243.012 369.475 L 243.012 369.475 L 243.012 369.475 Q 243.837 368.65 245.262 368.65 L 245.262 368.65 L 245.262 368.65 Q 246.612 368.65 247.4 369.475 L 247.4 369.475 L 247.4 369.475 Q 248.187 370.3 248.187 371.575 L 248.187 371.575 L 248.187 375.4 L 248.187 375.4 Q 249.987 372.025 253.212 370.263 L 253.212 370.263 L 253.212 370.263 Q 256.438 368.5 260.563 368.5 L 260.563 368.5 L 260.563 368.5 Z  M 299.713 368.5 L 299.713 368.5 Q 313.437 368.5 313.437 382.9 L 313.437 382.9 L 313.437 403.3 L 313.437 403.3 Q 313.437 404.65 312.65 405.475 L 312.65 405.475 L 312.65 405.475 Q 311.862 406.3 310.513 406.3 L 310.513 406.3 L 310.513 406.3 Q 309.162 406.3 308.338 405.475 L 308.338 405.475 L 308.338 405.475 Q 307.513 404.65 307.513 403.3 L 307.513 403.3 L 307.513 399.7 L 307.513 399.7 Q 306.088 402.925 303.162 404.688 L 303.162 404.688 L 303.162 404.688 Q 300.237 406.45 296.412 406.45 L 296.412 406.45 L 296.412 406.45 Q 292.888 406.45 289.925 405.025 L 289.925 405.025 L 289.925 405.025 Q 286.963 403.6 285.237 401.05 L 285.237 401.05 L 285.237 401.05 Q 283.513 398.5 283.513 395.425 L 283.513 395.425 L 283.513 395.425 Q 283.513 391.3 285.612 389.013 L 285.612 389.013 L 285.612 389.013 Q 287.713 386.725 292.513 385.713 L 292.513 385.713 L 292.513 385.713 Q 297.312 384.7 305.862 384.7 L 305.862 384.7 L 307.513 384.7 L 307.513 382.225 L 307.513 382.225 Q 307.513 377.725 305.675 375.625 L 305.675 375.625 L 305.675 375.625 Q 303.838 373.525 299.713 373.525 L 299.713 373.525 L 299.713 373.525 Q 294.612 373.525 289.362 376.3 L 289.362 376.3 L 289.362 376.3 Q 287.338 377.575 286.513 377.575 L 286.513 377.575 L 286.513 377.575 Q 285.612 377.575 285.013 376.9 L 285.013 376.9 L 285.013 376.9 Q 284.412 376.225 284.412 375.175 L 284.412 375.175 L 284.412 375.175 Q 284.412 374.125 285.05 373.338 L 285.05 373.338 L 285.05 373.338 Q 285.687 372.55 287.112 371.725 L 287.112 371.725 L 287.112 371.725 Q 289.737 370.225 293.075 369.363 L 293.075 369.363 L 293.075 369.363 Q 296.412 368.5 299.713 368.5 L 299.713 368.5 L 299.713 368.5 Z  M 297.237 401.65 L 297.237 401.65 Q 301.737 401.65 304.625 398.613 L 304.625 398.613 L 304.625 398.613 Q 307.513 395.575 307.513 390.775 L 307.513 390.775 L 307.513 388.6 L 306.162 388.6 L 306.162 388.6 Q 299.562 388.6 296.112 389.163 L 296.112 389.163 L 296.112 389.163 Q 292.662 389.725 291.2 391.038 L 291.2 391.038 L 291.2 391.038 Q 289.737 392.35 289.737 394.9 L 289.737 394.9 L 289.737 394.9 Q 289.737 397.825 291.875 399.738 L 291.875 399.738 L 291.875 399.738 Q 294.013 401.65 297.237 401.65 L 297.237 401.65 L 297.237 401.65 Z  M 350.862 370.525 L 350.862 370.525 Q 351.687 368.725 353.487 368.725 L 353.487 368.725 L 353.487 368.725 Q 354.612 368.725 355.513 369.475 L 355.513 369.475 L 355.513 369.475 Q 356.412 370.225 356.412 371.35 L 356.412 371.35 L 356.412 371.35 Q 356.412 372.025 356.112 372.55 L 356.112 372.55 L 341.487 404.05 L 341.487 404.05 Q 341.037 405.025 340.138 405.588 L 340.138 405.588 L 340.138 405.588 Q 339.237 406.15 338.187 406.15 L 338.187 406.15 L 338.187 406.15 Q 337.213 406.15 336.312 405.588 L 336.312 405.588 L 336.312 405.588 Q 335.412 405.025 334.888 404.05 L 334.888 404.05 L 320.338 372.55 L 320.338 372.55 Q 320.037 372.025 320.037 371.425 L 320.037 371.425 L 320.037 371.425 Q 320.037 370.3 321.05 369.475 L 321.05 369.475 L 321.05 369.475 Q 322.062 368.65 323.263 368.65 L 323.263 368.65 L 323.263 368.65 Q 324.013 368.65 324.725 369.1 L 324.725 369.1 L 324.725 369.1 Q 325.437 369.55 325.812 370.375 L 325.812 370.375 L 338.338 398.5 L 350.862 370.525 L 350.862 370.525 Z  M 366.162 406.3 L 366.162 406.3 Q 364.813 406.3 363.95 405.513 L 363.95 405.513 L 363.95 405.513 Q 363.088 404.725 363.088 403.3 L 363.088 403.3 L 363.088 371.65 L 363.088 371.65 Q 363.088 370.225 363.95 369.438 L 363.95 369.438 L 363.95 369.438 Q 364.813 368.65 366.162 368.65 L 366.162 368.65 L 366.162 368.65 Q 367.513 368.65 368.338 369.438 L 368.338 369.438 L 368.338 369.438 Q 369.162 370.225 369.162 371.65 L 369.162 371.65 L 369.162 403.3 L 369.162 403.3 Q 369.162 404.8 368.338 405.55 L 368.338 405.55 L 368.338 405.55 Q 367.513 406.3 366.162 406.3 L 366.162 406.3 L 366.162 406.3 Z  M 366.162 360.775 L 366.162 360.775 Q 364.362 360.775 363.237 359.725 L 363.237 359.725 L 363.237 359.725 Q 362.112 358.675 362.112 356.95 L 362.112 356.95 L 362.112 356.95 Q 362.112 355.3 363.237 354.25 L 363.237 354.25 L 363.237 354.25 Q 364.362 353.2 366.162 353.2 L 366.162 353.2 L 366.162 353.2 Q 367.963 353.2 369.088 354.25 L 369.088 354.25 L 369.088 354.25 Q 370.213 355.3 370.213 356.95 L 370.213 356.95 L 370.213 356.95 Q 370.213 358.675 369.088 359.725 L 369.088 359.725 L 369.088 359.725 Q 367.963 360.775 366.162 360.775 L 366.162 360.775 L 366.162 360.775 Z  M 410.112 368.65 L 410.112 368.65 Q 411.537 368.65 412.362 369.475 L 412.362 369.475 L 412.362 369.475 Q 413.187 370.3 413.187 371.65 L 413.187 371.65 L 413.187 403.45 L 413.187 403.45 Q 413.187 411.625 408.987 415.788 L 408.987 415.788 L 408.987 415.788 Q 404.787 419.95 396.537 419.95 L 396.537 419.95 L 396.537 419.95 Q 388.512 419.95 383.187 416.8 L 383.187 416.8 L 383.187 416.8 Q 380.487 415.3 380.487 413.35 L 380.487 413.35 L 380.487 413.35 Q 380.487 412.3 381.05 411.625 L 381.05 411.625 L 381.05 411.625 Q 381.612 410.95 382.512 410.95 L 382.512 410.95 L 382.512 410.95 Q 383.262 410.95 385.213 412 L 385.213 412 L 385.213 412 Q 387.838 413.35 390.387 414.175 L 390.387 414.175 L 390.387 414.175 Q 392.937 415 396.463 415 L 396.463 415 L 396.463 415 Q 401.787 415 404.487 412.188 L 404.487 412.188 L 404.487 412.188 Q 407.187 409.375 407.187 403.975 L 407.187 403.975 L 407.187 397.525 L 407.187 397.525 Q 405.612 401.05 402.35 402.925 L 402.35 402.925 L 402.35 402.925 Q 399.088 404.8 394.662 404.8 L 394.662 404.8 L 394.662 404.8 Q 389.862 404.8 386.15 402.55 L 386.15 402.55 L 386.15 402.55 Q 382.437 400.3 380.375 396.175 L 380.375 396.175 L 380.375 396.175 Q 378.312 392.05 378.312 386.65 L 378.312 386.65 L 378.312 386.65 Q 378.312 381.25 380.375 377.125 L 380.375 377.125 L 380.375 377.125 Q 382.437 373 386.15 370.75 L 386.15 370.75 L 386.15 370.75 Q 389.862 368.5 394.662 368.5 L 394.662 368.5 L 394.662 368.5 Q 399.012 368.5 402.237 370.375 L 402.237 370.375 L 402.237 370.375 Q 405.463 372.25 407.112 375.7 L 407.112 375.7 L 407.112 371.65 L 407.112 371.65 Q 407.112 370.3 407.9 369.475 L 407.9 369.475 L 407.9 369.475 Q 408.687 368.65 410.112 368.65 L 410.112 368.65 L 410.112 368.65 Z  M 395.862 399.775 L 395.862 399.775 Q 401.112 399.775 404.112 396.288 L 404.112 396.288 L 404.112 396.288 Q 407.112 392.8 407.112 386.65 L 407.112 386.65 L 407.112 386.65 Q 407.112 380.575 404.15 377.088 L 404.15 377.088 L 404.15 377.088 Q 401.187 373.6 395.862 373.6 L 395.862 373.6 L 395.862 373.6 Q 390.537 373.6 387.5 377.088 L 387.5 377.088 L 387.5 377.088 Q 384.463 380.575 384.463 386.65 L 384.463 386.65 L 384.463 386.65 Q 384.463 392.8 387.5 396.288 L 387.5 396.288 L 387.5 396.288 Q 390.537 399.775 395.862 399.775 L 395.862 399.775 L 395.862 399.775 Z  M 439.362 368.5 L 439.362 368.5 Q 453.087 368.5 453.087 382.9 L 453.087 382.9 L 453.087 403.3 L 453.087 403.3 Q 453.087 404.65 452.3 405.475 L 452.3 405.475 L 452.3 405.475 Q 451.512 406.3 450.162 406.3 L 450.162 406.3 L 450.162 406.3 Q 448.812 406.3 447.987 405.475 L 447.987 405.475 L 447.987 405.475 Q 447.162 404.65 447.162 403.3 L 447.162 403.3 L 447.162 399.7 L 447.162 399.7 Q 445.737 402.925 442.812 404.688 L 442.812 404.688 L 442.812 404.688 Q 439.887 406.45 436.062 406.45 L 436.062 406.45 L 436.062 406.45 Q 432.537 406.45 429.575 405.025 L 429.575 405.025 L 429.575 405.025 Q 426.612 403.6 424.887 401.05 L 424.887 401.05 L 424.887 401.05 Q 423.162 398.5 423.162 395.425 L 423.162 395.425 L 423.162 395.425 Q 423.162 391.3 425.262 389.013 L 425.262 389.013 L 425.262 389.013 Q 427.362 386.725 432.162 385.713 L 432.162 385.713 L 432.162 385.713 Q 436.962 384.7 445.512 384.7 L 445.512 384.7 L 447.162 384.7 L 447.162 382.225 L 447.162 382.225 Q 447.162 377.725 445.325 375.625 L 445.325 375.625 L 445.325 375.625 Q 443.487 373.525 439.362 373.525 L 439.362 373.525 L 439.362 373.525 Q 434.262 373.525 429.012 376.3 L 429.012 376.3 L 429.012 376.3 Q 426.987 377.575 426.162 377.575 L 426.162 377.575 L 426.162 377.575 Q 425.262 377.575 424.662 376.9 L 424.662 376.9 L 424.662 376.9 Q 424.062 376.225 424.062 375.175 L 424.062 375.175 L 424.062 375.175 Q 424.062 374.125 424.7 373.338 L 424.7 373.338 L 424.7 373.338 Q 425.337 372.55 426.762 371.725 L 426.762 371.725 L 426.762 371.725 Q 429.387 370.225 432.725 369.363 L 432.725 369.363 L 432.725 369.363 Q 436.062 368.5 439.362 368.5 L 439.362 368.5 L 439.362 368.5 Z  M 436.887 401.65 L 436.887 401.65 Q 441.387 401.65 444.275 398.613 L 444.275 398.613 L 444.275 398.613 Q 447.162 395.575 447.162 390.775 L 447.162 390.775 L 447.162 388.6 L 445.812 388.6 L 445.812 388.6 Q 439.212 388.6 435.762 389.163 L 435.762 389.163 L 435.762 389.163 Q 432.312 389.725 430.85 391.038 L 430.85 391.038 L 430.85 391.038 Q 429.387 392.35 429.387 394.9 L 429.387 394.9 L 429.387 394.9 Q 429.387 397.825 431.525 399.738 L 431.525 399.738 L 431.525 399.738 Q 433.662 401.65 436.887 401.65 L 436.887 401.65 L 436.887 401.65 Z  M 481.062 401.5 L 481.062 401.5 Q 483.687 401.725 483.687 403.9 L 483.687 403.9 L 483.687 403.9 Q 483.687 405.175 482.75 405.813 L 482.75 405.813 L 482.75 405.813 Q 481.812 406.45 479.937 406.3 L 479.937 406.3 L 477.912 406.15 L 477.912 406.15 Q 471.912 405.7 469.062 402.55 L 469.062 402.55 L 469.062 402.55 Q 466.212 399.4 466.212 393.025 L 466.212 393.025 L 466.212 374.2 L 461.187 374.2 L 461.187 374.2 Q 459.912 374.2 459.2 373.563 L 459.2 373.563 L 459.2 373.563 Q 458.487 372.925 458.487 371.875 L 458.487 371.875 L 458.487 371.875 Q 458.487 370.75 459.2 370.075 L 459.2 370.075 L 459.2 370.075 Q 459.912 369.4 461.187 369.4 L 461.187 369.4 L 466.212 369.4 L 466.212 360.925 L 466.212 360.925 Q 466.212 359.5 467.037 358.713 L 467.037 358.713 L 467.037 358.713 Q 467.862 357.925 469.287 357.925 L 469.287 357.925 L 469.287 357.925 Q 470.637 357.925 471.462 358.713 L 471.462 358.713 L 471.462 358.713 Q 472.287 359.5 472.287 360.925 L 472.287 360.925 L 472.287 369.4 L 480.612 369.4 L 480.612 369.4 Q 481.812 369.4 482.525 370.075 L 482.525 370.075 L 482.525 370.075 Q 483.237 370.75 483.237 371.875 L 483.237 371.875 L 483.237 371.875 Q 483.237 372.925 482.525 373.563 L 482.525 373.563 L 482.525 373.563 Q 481.812 374.2 480.612 374.2 L 480.612 374.2 L 472.287 374.2 L 472.287 393.325 L 472.287 393.325 Q 472.287 397.45 473.975 399.288 L 473.975 399.288 L 473.975 399.288 Q 475.662 401.125 479.037 401.35 L 479.037 401.35 L 481.062 401.5 L 481.062 401.5 Z  M 492.762 406.3 L 492.762 406.3 Q 491.412 406.3 490.55 405.513 L 490.55 405.513 L 490.55 405.513 Q 489.687 404.725 489.687 403.3 L 489.687 403.3 L 489.687 371.65 L 489.687 371.65 Q 489.687 370.225 490.55 369.438 L 490.55 369.438 L 490.55 369.438 Q 491.412 368.65 492.762 368.65 L 492.762 368.65 L 492.762 368.65 Q 494.112 368.65 494.937 369.438 L 494.937 369.438 L 494.937 369.438 Q 495.762 370.225 495.762 371.65 L 495.762 371.65 L 495.762 403.3 L 495.762 403.3 Q 495.762 404.8 494.937 405.55 L 494.937 405.55 L 494.937 405.55 Q 494.112 406.3 492.762 406.3 L 492.762 406.3 L 492.762 406.3 Z  M 492.762 360.775 L 492.762 360.775 Q 490.962 360.775 489.837 359.725 L 489.837 359.725 L 489.837 359.725 Q 488.712 358.675 488.712 356.95 L 488.712 356.95 L 488.712 356.95 Q 488.712 355.3 489.837 354.25 L 489.837 354.25 L 489.837 354.25 Q 490.962 353.2 492.762 353.2 L 492.762 353.2 L 492.762 353.2 Q 494.562 353.2 495.687 354.25 L 495.687 354.25 L 495.687 354.25 Q 496.812 355.3 496.812 356.95 L 496.812 356.95 L 496.812 356.95 Q 496.812 358.675 495.687 359.725 L 495.687 359.725 L 495.687 359.725 Q 494.562 360.775 492.762 360.775 L 492.762 360.775 L 492.762 360.775 Z  M 522.237 406.45 L 522.237 406.45 Q 517.062 406.45 513.125 404.125 L 513.125 404.125 L 513.125 404.125 Q 509.187 401.8 507.05 397.488 L 507.05 397.488 L 507.05 397.488 Q 504.912 393.175 504.912 387.475 L 504.912 387.475 L 504.912 387.475 Q 504.912 381.775 507.05 377.463 L 507.05 377.463 L 507.05 377.463 Q 509.187 373.15 513.125 370.825 L 513.125 370.825 L 513.125 370.825 Q 517.062 368.5 522.237 368.5 L 522.237 368.5 L 522.237 368.5 Q 527.412 368.5 531.387 370.825 L 531.387 370.825 L 531.387 370.825 Q 535.363 373.15 537.5 377.463 L 537.5 377.463 L 537.5 377.463 Q 539.637 381.775 539.637 387.475 L 539.637 387.475 L 539.637 387.475 Q 539.637 393.175 537.5 397.488 L 537.5 397.488 L 537.5 397.488 Q 535.363 401.8 531.387 404.125 L 531.387 404.125 L 531.387 404.125 Q 527.412 406.45 522.237 406.45 L 522.237 406.45 L 522.237 406.45 Z  M 522.237 401.425 L 522.237 401.425 Q 527.637 401.425 530.525 397.863 L 530.525 397.863 L 530.525 397.863 Q 533.412 394.3 533.412 387.475 L 533.412 387.475 L 533.412 387.475 Q 533.412 380.8 530.488 377.163 L 530.488 377.163 L 530.488 377.163 Q 527.562 373.525 522.237 373.525 L 522.237 373.525 L 522.237 373.525 Q 516.912 373.525 513.987 377.163 L 513.987 377.163 L 513.987 377.163 Q 511.062 380.8 511.062 387.475 L 511.062 387.475 L 511.062 387.475 Q 511.062 394.225 513.95 397.825 L 513.95 397.825 L 513.95 397.825 Q 516.837 401.425 522.237 401.425 L 522.237 401.425 L 522.237 401.425 Z  M 567.087 368.5 L 567.087 368.5 Q 580.212 368.5 580.212 382.975 L 580.212 382.975 L 580.212 403.3 L 580.212 403.3 Q 580.212 404.725 579.425 405.513 L 579.425 405.513 L 579.425 405.513 Q 578.637 406.3 577.212 406.3 L 577.212 406.3 L 577.212 406.3 Q 575.787 406.3 574.962 405.513 L 574.962 405.513 L 574.962 405.513 Q 574.137 404.725 574.137 403.3 L 574.137 403.3 L 574.137 383.35 L 574.137 383.35 Q 574.137 378.25 572.15 375.925 L 572.15 375.925 L 572.15 375.925 Q 570.162 373.6 565.812 373.6 L 565.812 373.6 L 565.812 373.6 Q 560.787 373.6 557.787 376.675 L 557.787 376.675 L 557.787 376.675 Q 554.787 379.75 554.787 385 L 554.787 385 L 554.787 403.3 L 554.787 403.3 Q 554.787 404.725 554 405.513 L 554 405.513 L 554 405.513 Q 553.212 406.3 551.787 406.3 L 551.787 406.3 L 551.787 406.3 Q 550.362 406.3 549.537 405.513 L 549.537 405.513 L 549.537 405.513 Q 548.712 404.725 548.712 403.3 L 548.712 403.3 L 548.712 371.65 L 548.712 371.65 Q 548.712 370.3 549.537 369.475 L 549.537 369.475 L 549.537 369.475 Q 550.362 368.65 551.787 368.65 L 551.787 368.65 L 551.787 368.65 Q 553.137 368.65 553.925 369.475 L 553.925 369.475 L 553.925 369.475 Q 554.712 370.3 554.712 371.575 L 554.712 371.575 L 554.712 375.4 L 554.712 375.4 Q 556.512 372.025 559.737 370.263 L 559.737 370.263 L 559.737 370.263 Q 562.962 368.5 567.087 368.5 L 567.087 368.5 L 567.087 368.5 Z  M 18.238 406.45 L 18.238 406.45 Q 14.788 406.45 11.675 405.625 L 11.675 405.625 L 11.675 405.625 Q 8.563 404.8 6.163 403.3 L 6.163 403.3 L 6.163 403.3 Q 4.813 402.4 4.25 401.613 L 4.25 401.613 L 4.25 401.613 Q 3.688 400.825 3.688 399.7 L 3.688 399.7 L 3.688 399.7 Q 3.688 398.725 4.25 398.088 L 4.25 398.088 L 4.25 398.088 Q 4.813 397.45 5.712 397.45 L 5.712 397.45 L 5.712 397.45 Q 6.613 397.45 8.338 398.575 L 8.338 398.575 L 8.338 398.575 Q 10.588 399.925 12.8 400.713 L 12.8 400.713 L 12.8 400.713 Q 15.013 401.5 18.313 401.5 L 18.313 401.5 L 18.313 401.5 Q 22.363 401.5 24.613 400.075 L 24.613 400.075 L 24.613 400.075 Q 26.863 398.65 26.863 395.95 L 26.863 395.95 L 26.863 395.95 Q 26.863 394.3 26.037 393.288 L 26.037 393.288 L 26.037 393.288 Q 25.213 392.275 23.188 391.488 L 23.188 391.488 L 23.188 391.488 Q 21.162 390.7 17.263 389.875 L 17.263 389.875 L 17.263 389.875 Q 10.663 388.45 7.813 386.05 L 7.813 386.05 L 7.813 386.05 Q 4.962 383.65 4.962 379.525 L 4.962 379.525 L 4.962 379.525 Q 4.962 376.3 6.763 373.825 L 6.763 373.825 L 6.763 373.825 Q 8.563 371.35 11.75 369.925 L 11.75 369.925 L 11.75 369.925 Q 14.938 368.5 18.988 368.5 L 18.988 368.5 L 18.988 368.5 Q 21.912 368.5 24.65 369.288 L 24.65 369.288 L 24.65 369.288 Q 27.388 370.075 29.487 371.5 L 29.487 371.5 L 29.487 371.5 Q 32.037 373.3 32.037 375.25 L 32.037 375.25 L 32.037 375.25 Q 32.037 376.225 31.438 376.9 L 31.438 376.9 L 31.438 376.9 Q 30.838 377.575 30.013 377.575 L 30.013 377.575 L 30.013 377.575 Q 29.112 377.575 27.313 376.3 L 27.313 376.3 L 27.313 376.3 Q 25.213 374.95 23.338 374.2 L 23.338 374.2 L 23.338 374.2 Q 21.463 373.45 18.688 373.45 L 18.688 373.45 L 18.688 373.45 Q 15.163 373.45 13.025 375.025 L 13.025 375.025 L 13.025 375.025 Q 10.888 376.6 10.888 379.225 L 10.888 379.225 L 10.888 379.225 Q 10.888 380.875 11.675 381.888 L 11.675 381.888 L 11.675 381.888 Q 12.463 382.9 14.3 383.688 L 14.3 383.688 L 14.3 383.688 Q 16.138 384.475 19.588 385.225 L 19.588 385.225 L 19.588 385.225 Q 24.688 386.35 27.5 387.7 L 27.5 387.7 L 27.5 387.7 Q 30.313 389.05 31.513 391 L 31.513 391 L 31.513 391 Q 32.713 392.95 32.713 395.95 L 32.713 395.95 L 32.713 395.95 Q 32.713 400.675 28.738 403.563 L 28.738 403.563 L 28.738 403.563 Q 24.763 406.45 18.238 406.45 L 18.238 406.45 L 18.238 406.45 Z  M 45.013 406.3 L 45.013 406.3 Q 43.663 406.3 42.8 405.513 L 42.8 405.513 L 42.8 405.513 Q 41.938 404.725 41.938 403.3 L 41.938 403.3 L 41.938 371.65 L 41.938 371.65 Q 41.938 370.225 42.8 369.438 L 42.8 369.438 L 42.8 369.438 Q 43.663 368.65 45.013 368.65 L 45.013 368.65 L 45.013 368.65 Q 46.363 368.65 47.188 369.438 L 47.188 369.438 L 47.188 369.438 Q 48.013 370.225 48.013 371.65 L 48.013 371.65 L 48.013 403.3 L 48.013 403.3 Q 48.013 404.8 47.188 405.55 L 47.188 405.55 L 47.188 405.55 Q 46.363 406.3 45.013 406.3 L 45.013 406.3 L 45.013 406.3 Z  M 45.013 360.775 L 45.013 360.775 Q 43.213 360.775 42.088 359.725 L 42.088 359.725 L 42.088 359.725 Q 40.963 358.675 40.963 356.95 L 40.963 356.95 L 40.963 356.95 Q 40.963 355.3 42.088 354.25 L 42.088 354.25 L 42.088 354.25 Q 43.213 353.2 45.013 353.2 L 45.013 353.2 L 45.013 353.2 Q 46.813 353.2 47.938 354.25 L 47.938 354.25 L 47.938 354.25 Q 49.063 355.3 49.063 356.95 L 49.063 356.95 L 49.063 356.95 Q 49.063 358.675 47.938 359.725 L 47.938 359.725 L 47.938 359.725 Q 46.813 360.775 45.013 360.775 L 45.013 360.775 L 45.013 360.775 Z  M 99.988 368.5 L 99.988 368.5 Q 112.137 368.5 112.137 382.975 L 112.137 382.975 L 112.137 403.3 L 112.137 403.3 Q 112.137 404.725 111.313 405.513 L 111.313 405.513 L 111.313 405.513 Q 110.488 406.3 109.137 406.3 L 109.137 406.3 L 109.137 406.3 Q 107.788 406.3 106.925 405.513 L 106.925 405.513 L 106.925 405.513 Q 106.063 404.725 106.063 403.3 L 106.063 403.3 L 106.063 383.125 L 106.063 383.125 Q 106.063 378.1 104.262 375.85 L 104.262 375.85 L 104.262 375.85 Q 102.463 373.6 98.637 373.6 L 98.637 373.6 L 98.637 373.6 Q 94.063 373.6 91.438 376.675 L 91.438 376.675 L 91.438 376.675 Q 88.813 379.75 88.813 385 L 88.813 385 L 88.813 403.3 L 88.813 403.3 Q 88.813 404.725 87.95 405.513 L 87.95 405.513 L 87.95 405.513 Q 87.088 406.3 85.738 406.3 L 85.738 406.3 L 85.738 406.3 Q 84.387 406.3 83.563 405.513 L 83.563 405.513 L 83.563 405.513 Q 82.738 404.725 82.738 403.3 L 82.738 403.3 L 82.738 383.125 L 82.738 383.125 Q 82.738 378.1 80.938 375.85 L 80.938 375.85 L 80.938 375.85 Q 79.138 373.6 75.238 373.6 L 75.238 373.6 L 75.238 373.6 Q 70.738 373.6 68.075 376.675 L 68.075 376.675 L 68.075 376.675 Q 65.412 379.75 65.412 385 L 65.412 385 L 65.412 403.3 L 65.412 403.3 Q 65.412 404.725 64.588 405.513 L 64.588 405.513 L 64.588 405.513 Q 63.762 406.3 62.412 406.3 L 62.412 406.3 L 62.412 406.3 Q 61.063 406.3 60.2 405.513 L 60.2 405.513 L 60.2 405.513 Q 59.338 404.725 59.338 403.3 L 59.338 403.3 L 59.338 371.65 L 59.338 371.65 Q 59.338 370.3 60.2 369.475 L 60.2 369.475 L 60.2 369.475 Q 61.063 368.65 62.412 368.65 L 62.412 368.65 L 62.412 368.65 Q 63.688 368.65 64.513 369.438 L 64.513 369.438 L 64.513 369.438 Q 65.338 370.225 65.338 371.575 L 65.338 371.575 L 65.338 375.175 L 65.338 375.175 Q 66.988 371.95 69.913 370.225 L 69.913 370.225 L 69.913 370.225 Q 72.838 368.5 76.663 368.5 L 76.663 368.5 L 76.663 368.5 Q 85.213 368.5 87.838 375.7 L 87.838 375.7 L 87.838 375.7 Q 89.413 372.4 92.637 370.45 L 92.637 370.45 L 92.637 370.45 Q 95.863 368.5 99.988 368.5 L 99.988 368.5 L 99.988 368.5 Z  M 141.613 368.5 L 141.613 368.5 Q 146.413 368.5 150.088 370.9 L 150.088 370.9 L 150.088 370.9 Q 153.763 373.3 155.788 377.613 L 155.788 377.613 L 155.788 377.613 Q 157.813 381.925 157.813 387.625 L 157.813 387.625 L 157.813 387.625 Q 157.813 393.325 155.788 397.563 L 155.788 397.563 L 155.788 397.563 Q 153.763 401.8 150.125 404.125 L 150.125 404.125 L 150.125 404.125 Q 146.488 406.45 141.613 406.45 L 141.613 406.45 L 141.613 406.45 Q 137.338 406.45 134.15 404.575 L 134.15 404.575 L 134.15 404.575 Q 130.963 402.7 129.313 399.25 L 129.313 399.25 L 129.313 416.875 L 129.313 416.875 Q 129.313 418.225 128.525 419.013 L 128.525 419.013 L 128.525 419.013 Q 127.738 419.8 126.313 419.8 L 126.313 419.8 L 126.313 419.8 Q 124.888 419.8 124.063 418.975 L 124.063 418.975 L 124.063 418.975 Q 123.238 418.15 123.238 416.875 L 123.238 416.875 L 123.238 371.65 L 123.238 371.65 Q 123.238 370.3 124.063 369.475 L 124.063 369.475 L 124.063 369.475 Q 124.888 368.65 126.313 368.65 L 126.313 368.65 L 126.313 368.65 Q 127.738 368.65 128.525 369.475 L 128.525 369.475 L 128.525 369.475 Q 129.313 370.3 129.313 371.65 L 129.313 371.65 L 129.313 375.7 L 129.313 375.7 Q 130.963 372.25 134.15 370.375 L 134.15 370.375 L 134.15 370.375 Q 137.338 368.5 141.613 368.5 L 141.613 368.5 L 141.613 368.5 Z  M 140.413 401.425 L 140.413 401.425 Q 145.738 401.425 148.663 397.825 L 148.663 397.825 L 148.663 397.825 Q 151.588 394.225 151.588 387.625 L 151.588 387.625 L 151.588 387.625 Q 151.588 381.025 148.663 377.313 L 148.663 377.313 L 148.663 377.313 Q 145.738 373.6 140.413 373.6 L 140.413 373.6 L 140.413 373.6 Q 135.088 373.6 132.2 377.2 L 132.2 377.2 L 132.2 377.2 Q 129.313 380.8 129.313 387.475 L 129.313 387.475 L 129.313 387.475 Q 129.313 394.15 132.2 397.788 L 132.2 397.788 L 132.2 397.788 Q 135.088 401.425 140.413 401.425 L 140.413 401.425 L 140.413 401.425 Z  M 169.962 406.3 L 169.962 406.3 Q 168.612 406.3 167.75 405.513 L 167.75 405.513 L 167.75 405.513 Q 166.888 404.725 166.888 403.3 L 166.888 403.3 L 166.888 355.675 L 166.888 355.675 Q 166.888 354.25 167.75 353.463 L 167.75 353.463 L 167.75 353.463 Q 168.612 352.675 169.962 352.675 L 169.962 352.675 L 169.962 352.675 Q 171.237 352.675 172.1 353.463 L 172.1 353.463 L 172.1 353.463 Q 172.962 354.25 172.962 355.675 L 172.962 355.675 L 172.962 403.3 L 172.962 403.3 Q 172.962 404.725 172.1 405.513 L 172.1 405.513 L 172.1 405.513 Q 171.237 406.3 169.962 406.3 L 169.962 406.3 L 169.962 406.3 Z  M 210.612 370.525 L 210.612 370.525 Q 211.438 368.725 213.237 368.725 L 213.237 368.725 L 213.237 368.725 Q 214.362 368.725 215.263 369.475 L 215.263 369.475 L 215.263 369.475 Q 216.163 370.225 216.163 371.35 L 216.163 371.35 L 216.163 371.35 Q 216.163 372.025 215.862 372.55 L 215.862 372.55 L 194.788 418 L 194.788 418 Q 194.413 418.825 193.7 419.275 L 193.7 419.275 L 193.7 419.275 Q 192.987 419.725 192.237 419.725 L 192.237 419.725 L 192.237 419.725 Q 191.112 419.725 190.25 419.013 L 190.25 419.013 L 190.25 419.013 Q 189.388 418.3 189.388 417.175 L 189.388 417.175 L 189.388 417.175 Q 189.388 416.575 189.688 415.975 L 189.688 415.975 L 194.938 404.65 L 180.088 372.55 L 180.088 372.55 Q 179.788 372.025 179.788 371.425 L 179.788 371.425 L 179.788 371.425 Q 179.788 370.3 180.8 369.475 L 180.8 369.475 L 180.8 369.475 Q 181.813 368.65 183.013 368.65 L 183.013 368.65 L 183.013 368.65 Q 183.763 368.65 184.475 369.1 L 184.475 369.1 L 184.475 369.1 Q 185.188 369.55 185.563 370.375 L 185.563 370.375 L 198.088 398.5 L 210.612 370.525 L 210.612 370.525 Z " fill="rgb(164,218,166)"/></g></g></svg>