<?xml version="1.0" standalone="no"?><!-- Generator: Gravit.io --><svg xmlns="http://www.w3.org/2000/svg" xmlns:xlink="http://www.w3.org/1999/xlink" style="isolation:isolate" viewBox="0 13.687 125 125" width="125" height="125"><g><circle vector-effect="non-scaling-stroke" cx="62.5" cy="76.1875" r="62.5" fill="rgb(66,61,51)"/><g><path d="M 27.574 94.71 L 97.426 94.71 C 98.275 94.71 98.964 95.399 98.964 96.248 L 98.964 97.149 C 98.964 97.998 98.275 98.688 97.426 98.688 L 27.574 98.688 C 26.725 98.688 26.036 97.998 26.036 97.149 L 26.036 96.248 C 26.036 95.399 26.725 94.71 27.574 94.71 Z" style="stroke:none;fill:#F0B429;stroke-miterlimit:10;"/><path d=" M 98.76 73.447 L 98.76 76.968 L 86.72 82.025 L 85.628 78.637 L 94.42 75.207 L 85.628 71.777 L 86.72 68.389 L 98.76 73.447 Z  M 53.652 80.597 L 53.652 80.597 L 53.652 80.597 Q 54.8 80.597 55.276 80.373 L 55.276 80.373 L 55.276 80.373 Q 55.752 80.15 55.752 79.506 L 55.752 79.506 L 55.752 79.506 Q 55.752 79.001 55.136 78.623 L 55.136 78.623 L 55.136 78.623 Q 54.52 78.246 53.26 77.77 L 53.26 77.77 L 53.26 77.77 Q 52.28 77.405 51.482 77.013 L 51.482 77.013 L 51.482 77.013 Q 50.684 76.622 50.124 76.076 L 50.124 76.076 L 50.124 76.076 Q 49.564 75.529 49.256 74.774 L 49.256 74.774 L 49.256 74.774 Q 48.948 74.017 48.948 72.954 L 48.948 72.954 L 48.948 72.954 Q 48.948 70.882 50.488 69.677 L 50.488 69.677 L 50.488 69.677 Q 52.028 68.473 54.716 68.473 L 54.716 68.473 L 54.716 68.473 Q 56.06 68.473 57.292 68.711 L 57.292 68.711 L 57.292 68.711 Q 58.524 68.95 59.252 69.23 L 59.252 69.23 L 58.524 72.478 L 58.524 72.478 Q 57.796 72.225 56.942 72.029 L 56.942 72.029 L 56.942 72.029 Q 56.088 71.833 55.024 71.833 L 55.024 71.833 L 55.024 71.833 Q 53.064 71.833 53.064 72.926 L 53.064 72.926 L 53.064 72.926 Q 53.064 73.177 53.148 73.373 L 53.148 73.373 L 53.148 73.373 Q 53.232 73.569 53.484 73.751 L 53.484 73.751 L 53.484 73.751 Q 53.736 73.933 54.17 74.142 L 54.17 74.142 L 54.17 74.142 Q 54.604 74.351 55.276 74.602 L 55.276 74.602 L 55.276 74.602 Q 56.648 75.103 57.544 75.59 L 57.544 75.59 L 57.544 75.59 Q 58.44 76.077 58.958 76.652 L 58.958 76.652 L 58.958 76.652 Q 59.476 77.227 59.686 77.928 L 59.686 77.928 L 59.686 77.928 Q 59.896 78.629 59.896 79.554 L 59.896 79.554 L 59.896 79.554 Q 59.896 81.742 58.258 82.864 L 58.258 82.864 L 58.258 82.864 Q 56.62 83.985 53.624 83.985 L 53.624 83.985 L 53.624 83.985 Q 51.664 83.985 50.362 83.65 L 50.362 83.65 L 50.362 83.65 Q 49.06 83.314 48.556 83.09 L 48.556 83.09 L 49.256 79.702 L 49.256 79.702 Q 50.32 80.122 51.44 80.359 L 51.44 80.359 L 51.44 80.359 Q 52.56 80.597 53.652 80.597 Z  M 63.004 83.594 L 63.004 69.37 L 63.004 69.37 Q 64.068 69.062 65.748 68.796 L 65.748 68.796 L 65.748 68.796 Q 67.428 68.529 69.276 68.529 L 69.276 68.529 L 69.276 68.529 Q 71.152 68.529 72.398 69.02 L 72.398 69.02 L 72.398 69.02 Q 73.644 69.51 74.372 70.405 L 74.372 70.405 L 74.372 70.405 Q 75.1 71.302 75.408 72.534 L 75.408 72.534 L 75.408 72.534 Q 75.716 73.765 75.716 75.277 L 75.716 75.277 L 75.716 83.594 L 71.544 83.594 L 71.544 75.781 L 71.544 75.781 Q 71.544 73.765 71.012 72.926 L 71.012 72.926 L 71.012 72.926 Q 70.48 72.085 69.024 72.085 L 69.024 72.085 L 69.024 72.085 Q 68.576 72.085 68.072 72.127 L 68.072 72.127 L 68.072 72.127 Q 67.568 72.169 67.176 72.225 L 67.176 72.225 L 67.176 83.594 L 63.004 83.594 Z  M 26.24 76.968 L 26.24 73.447 L 38.28 68.389 L 39.372 71.777 L 30.58 75.207 L 39.372 78.637 L 38.28 82.025 L 26.24 76.968 Z " fill="rgb(240,180,41)"/><path d="M 27.574 53.688 L 97.426 53.688 C 98.275 53.688 98.964 54.377 98.964 55.226 L 98.964 56.127 C 98.964 56.976 98.275 57.665 97.426 57.665 L 27.574 57.665 C 26.725 57.665 26.036 56.976 26.036 56.127 L 26.036 55.226 C 26.036 54.377 26.725 53.688 27.574 53.688 Z" style="stroke:none;fill:#F0B429;stroke-miterlimit:10;"/></g></g></svg>