<?xml version="1.0" standalone="no"?><!-- Generator: Gravit.io --><svg xmlns="http://www.w3.org/2000/svg" xmlns:xlink="http://www.w3.org/1999/xlink" style="isolation:isolate" viewBox="0 0 700 526.4" width="700" height="526.4"><defs><clipPath id="_clipPath_4FebiNOsA32KQVcGLG3v7skCeMvNPlux"><rect width="700" height="526.4"/></clipPath></defs><g clip-path="url(#_clipPath_4FebiNOsA32KQVcGLG3v7skCeMvNPlux)"><path d="M 28.952 0 L 671.048 0 C 687.027 0 700 12.973 700 28.952 L 700 497.448 C 700 513.427 687.027 526.4 671.048 526.4 L 28.952 526.4 C 12.973 526.4 0 513.427 0 497.448 L 0 28.952 C 0 12.973 12.973 0 28.952 0 Z" style="stroke:none;fill:#222222;stroke-miterlimit:10;"/><g><path d=" M 534.5 48.2 L 534.5 48.2 Q 639.5 48.2 639.5 166.4 L 639.5 166.4 L 639.5 322.4 L 639.5 322.4 Q 639.5 336.2 631.4 343.7 L 631.4 343.7 L 631.4 343.7 Q 623.3 351.2 608.9 351.2 L 608.9 351.2 L 608.9 351.2 Q 595.1 351.2 587 343.4 L 587 343.4 L 587 343.4 Q 578.9 335.6 578.9 322.4 L 578.9 322.4 L 578.9 169.4 L 578.9 169.4 Q 578.9 132.2 564.2 114.8 L 564.2 114.8 L 564.2 114.8 Q 550.563 97.6 520.7 97.4 C 490.838 97.2 484.656 103.553 472 110.1 C 459.344 116.647 450.5 75.8 476.3 62 L 476.3 62 L 476.3 62 Q 502.1 48.2 534.5 48.2 L 534.5 48.2 Z " fill="rgb(194,234,198)"/><path d=" M 180.5 351.2 L 180.5 351.2 Q 119.3 351.2 80.3 326 L 80.3 326 L 80.3 326 Q 69.5 319.4 65 312.2 L 65 312.2 L 65 312.2 Q 60.5 305 60.5 296 L 60.5 296 L 60.5 296 Q 60.5 286.4 65.9 279.8 L 65.9 279.8 L 65.9 279.8 Q 71.3 273.2 79.7 273.2 L 79.7 273.2 L 79.7 273.2 Q 87.5 273.2 104.3 282.8 L 104.3 282.8 L 104.3 282.8 Q 122.3 292.4 139.4 298.4 L 139.4 298.4 L 139.4 298.4 Q 156.5 304.4 182.3 304.4 L 182.3 304.4 L 182.3 304.4 Q 211.1 304.4 227.3 294.2 L 227.3 294.2 L 227.3 294.2 Q 243.5 284 243.5 265.4 L 243.5 265.4 L 243.5 265.4 Q 243.5 253.4 237.2 246.2 L 237.2 246.2 L 237.2 246.2 Q 230.9 239 215.3 233.3 L 215.3 233.3 L 215.3 233.3 Q 199.7 227.6 169.1 221 L 169.1 221 L 169.1 221 Q 116.3 209.6 93.2 190.1 L 93.2 190.1 L 93.2 190.1 Q 70.1 170.6 70.1 137 L 70.1 137 L 70.1 137 Q 70.1 111.2 85.1 90.5 L 85.1 90.5 L 85.1 90.5 Q 100.1 69.8 126.5 58.4 L 126.5 58.4 L 126.5 58.4 Q 152.9 47 186.5 47 L 186.5 47 L 186.5 47 Q 210.5 47 233.3 53.3 L 233.3 53.3 L 233.3 53.3 Q 256.1 59.6 273.5 71.6 L 273.5 71.6 L 273.5 71.6 Q 293.3 84.8 293.3 102.2 L 293.3 102.2 L 293.3 102.2 Q 293.3 111.8 287.6 118.4 L 287.6 118.4 L 287.6 118.4 Q 281.9 125 274.1 125 L 274.1 125 L 274.1 125 Q 268.7 125 263.3 122.6 L 263.3 122.6 L 263.3 122.6 Q 257.9 120.2 248.9 114.8 L 248.9 114.8 L 248.9 114.8 Q 232.7 105.2 218.6 99.8 L 218.6 99.8 L 218.6 99.8 Q 204.5 94.4 183.5 94.4 L 183.5 94.4 L 183.5 94.4 Q 158.3 94.4 143 105.2 L 143 105.2 L 143 105.2 Q 127.7 116 127.7 134.6 L 127.7 134.6 L 127.7 134.6 Q 127.7 151.4 141.8 160.7 L 141.8 160.7 L 141.8 160.7 Q 155.9 170 194.9 178.4 L 194.9 178.4 L 194.9 178.4 Q 235.1 186.8 257.9 197.6 L 257.9 197.6 L 257.9 197.6 Q 280.7 208.4 290.6 224.3 L 290.6 224.3 L 290.6 224.3 Q 300.5 240.2 300.5 264.8 L 300.5 264.8 L 300.5 264.8 Q 300.5 303.8 267.8 327.5 L 267.8 327.5 L 267.8 327.5 Q 235.1 351.2 180.5 351.2 L 180.5 351.2 Z " fill="rgb(194,234,198)"/><g><circle vector-effect="non-scaling-stroke" cx="405.81938095680897" cy="321.20000546773315" r="30.000000000000057" fill="rgb(164,218,166)"/><circle vector-effect="non-scaling-stroke" cx="405.8193809568088" cy="200.20000546773275" r="30.000000000000057" fill="rgb(164,218,166)"/><circle vector-effect="non-scaling-stroke" cx="405.81938095680863" cy="79.20000546773267" r="30" fill="rgb(164,218,166)"/></g><path d=" M 316.563 415.5 L 316.563 415.5 Q 329.688 415.5 329.688 429.975 L 329.688 429.975 L 329.688 450.3 L 329.688 450.3 Q 329.688 451.725 328.9 452.513 L 328.9 452.513 L 328.9 452.513 Q 328.112 453.3 326.688 453.3 L 326.688 453.3 L 326.688 453.3 Q 325.263 453.3 324.438 452.513 L 324.438 452.513 L 324.438 452.513 Q 323.612 451.725 323.612 450.3 L 323.612 450.3 L 323.612 430.35 L 323.612 430.35 Q 323.612 425.25 321.625 422.925 L 321.625 422.925 L 321.625 422.925 Q 319.638 420.6 315.287 420.6 L 315.287 420.6 L 315.287 420.6 Q 310.262 420.6 307.262 423.675 L 307.262 423.675 L 307.262 423.675 Q 304.262 426.75 304.262 432 L 304.262 432 L 304.262 450.3 L 304.262 450.3 Q 304.262 451.725 303.475 452.513 L 303.475 452.513 L 303.475 452.513 Q 302.688 453.3 301.262 453.3 L 301.262 453.3 L 301.262 453.3 Q 299.838 453.3 299.012 452.513 L 299.012 452.513 L 299.012 452.513 Q 298.188 451.725 298.188 450.3 L 298.188 450.3 L 298.188 418.65 L 298.188 418.65 Q 298.188 417.3 299.012 416.475 L 299.012 416.475 L 299.012 416.475 Q 299.838 415.65 301.262 415.65 L 301.262 415.65 L 301.262 415.65 Q 302.612 415.65 303.4 416.475 L 303.4 416.475 L 303.4 416.475 Q 304.188 417.3 304.188 418.575 L 304.188 418.575 L 304.188 422.4 L 304.188 422.4 Q 305.987 419.025 309.213 417.263 L 309.213 417.263 L 309.213 417.263 Q 312.438 415.5 316.563 415.5 L 316.563 415.5 L 316.563 415.5 Z  M 355.713 415.5 L 355.713 415.5 Q 369.437 415.5 369.437 429.9 L 369.437 429.9 L 369.437 450.3 L 369.437 450.3 Q 369.437 451.65 368.65 452.475 L 368.65 452.475 L 368.65 452.475 Q 367.862 453.3 366.513 453.3 L 366.513 453.3 L 366.513 453.3 Q 365.162 453.3 364.338 452.475 L 364.338 452.475 L 364.338 452.475 Q 363.513 451.65 363.513 450.3 L 363.513 450.3 L 363.513 446.7 L 363.513 446.7 Q 362.088 449.925 359.162 451.688 L 359.162 451.688 L 359.162 451.688 Q 356.237 453.45 352.412 453.45 L 352.412 453.45 L 352.412 453.45 Q 348.888 453.45 345.925 452.025 L 345.925 452.025 L 345.925 452.025 Q 342.963 450.6 341.237 448.05 L 341.237 448.05 L 341.237 448.05 Q 339.513 445.5 339.513 442.425 L 339.513 442.425 L 339.513 442.425 Q 339.513 438.3 341.612 436.013 L 341.612 436.013 L 341.612 436.013 Q 343.713 433.725 348.513 432.713 L 348.513 432.713 L 348.513 432.713 Q 353.312 431.7 361.862 431.7 L 361.862 431.7 L 363.513 431.7 L 363.513 429.225 L 363.513 429.225 Q 363.513 424.725 361.675 422.625 L 361.675 422.625 L 361.675 422.625 Q 359.838 420.525 355.713 420.525 L 355.713 420.525 L 355.713 420.525 Q 350.612 420.525 345.362 423.3 L 345.362 423.3 L 345.362 423.3 Q 343.338 424.575 342.513 424.575 L 342.513 424.575 L 342.513 424.575 Q 341.612 424.575 341.013 423.9 L 341.013 423.9 L 341.013 423.9 Q 340.412 423.225 340.412 422.175 L 340.412 422.175 L 340.412 422.175 Q 340.412 421.125 341.05 420.338 L 341.05 420.338 L 341.05 420.338 Q 341.687 419.55 343.112 418.725 L 343.112 418.725 L 343.112 418.725 Q 345.737 417.225 349.075 416.363 L 349.075 416.363 L 349.075 416.363 Q 352.412 415.5 355.713 415.5 L 355.713 415.5 L 355.713 415.5 Z  M 353.237 448.65 L 353.237 448.65 Q 357.737 448.65 360.625 445.613 L 360.625 445.613 L 360.625 445.613 Q 363.513 442.575 363.513 437.775 L 363.513 437.775 L 363.513 435.6 L 362.162 435.6 L 362.162 435.6 Q 355.562 435.6 352.112 436.163 L 352.112 436.163 L 352.112 436.163 Q 348.662 436.725 347.2 438.038 L 347.2 438.038 L 347.2 438.038 Q 345.737 439.35 345.737 441.9 L 345.737 441.9 L 345.737 441.9 Q 345.737 444.825 347.875 446.738 L 347.875 446.738 L 347.875 446.738 Q 350.013 448.65 353.237 448.65 L 353.237 448.65 L 353.237 448.65 Z  M 406.862 417.525 L 406.862 417.525 Q 407.687 415.725 409.487 415.725 L 409.487 415.725 L 409.487 415.725 Q 410.612 415.725 411.513 416.475 L 411.513 416.475 L 411.513 416.475 Q 412.412 417.225 412.412 418.35 L 412.412 418.35 L 412.412 418.35 Q 412.412 419.025 412.112 419.55 L 412.112 419.55 L 397.487 451.05 L 397.487 451.05 Q 397.037 452.025 396.138 452.588 L 396.138 452.588 L 396.138 452.588 Q 395.237 453.15 394.187 453.15 L 394.187 453.15 L 394.187 453.15 Q 393.213 453.15 392.312 452.588 L 392.312 452.588 L 392.312 452.588 Q 391.412 452.025 390.888 451.05 L 390.888 451.05 L 376.338 419.55 L 376.338 419.55 Q 376.037 419.025 376.037 418.425 L 376.037 418.425 L 376.037 418.425 Q 376.037 417.3 377.05 416.475 L 377.05 416.475 L 377.05 416.475 Q 378.062 415.65 379.263 415.65 L 379.263 415.65 L 379.263 415.65 Q 380.013 415.65 380.725 416.1 L 380.725 416.1 L 380.725 416.1 Q 381.437 416.55 381.812 417.375 L 381.812 417.375 L 394.338 445.5 L 406.862 417.525 L 406.862 417.525 Z  M 422.162 453.3 L 422.162 453.3 Q 420.813 453.3 419.95 452.513 L 419.95 452.513 L 419.95 452.513 Q 419.088 451.725 419.088 450.3 L 419.088 450.3 L 419.088 418.65 L 419.088 418.65 Q 419.088 417.225 419.95 416.438 L 419.95 416.438 L 419.95 416.438 Q 420.813 415.65 422.162 415.65 L 422.162 415.65 L 422.162 415.65 Q 423.513 415.65 424.338 416.438 L 424.338 416.438 L 424.338 416.438 Q 425.162 417.225 425.162 418.65 L 425.162 418.65 L 425.162 450.3 L 425.162 450.3 Q 425.162 451.8 424.338 452.55 L 424.338 452.55 L 424.338 452.55 Q 423.513 453.3 422.162 453.3 L 422.162 453.3 L 422.162 453.3 Z  M 422.162 407.775 L 422.162 407.775 Q 420.362 407.775 419.237 406.725 L 419.237 406.725 L 419.237 406.725 Q 418.112 405.675 418.112 403.95 L 418.112 403.95 L 418.112 403.95 Q 418.112 402.3 419.237 401.25 L 419.237 401.25 L 419.237 401.25 Q 420.362 400.2 422.162 400.2 L 422.162 400.2 L 422.162 400.2 Q 423.963 400.2 425.088 401.25 L 425.088 401.25 L 425.088 401.25 Q 426.213 402.3 426.213 403.95 L 426.213 403.95 L 426.213 403.95 Q 426.213 405.675 425.088 406.725 L 425.088 406.725 L 425.088 406.725 Q 423.963 407.775 422.162 407.775 L 422.162 407.775 L 422.162 407.775 Z  M 466.112 415.65 L 466.112 415.65 Q 467.537 415.65 468.362 416.475 L 468.362 416.475 L 468.362 416.475 Q 469.187 417.3 469.187 418.65 L 469.187 418.65 L 469.187 450.45 L 469.187 450.45 Q 469.187 458.625 464.987 462.788 L 464.987 462.788 L 464.987 462.788 Q 460.787 466.95 452.537 466.95 L 452.537 466.95 L 452.537 466.95 Q 444.512 466.95 439.187 463.8 L 439.187 463.8 L 439.187 463.8 Q 436.487 462.3 436.487 460.35 L 436.487 460.35 L 436.487 460.35 Q 436.487 459.3 437.05 458.625 L 437.05 458.625 L 437.05 458.625 Q 437.612 457.95 438.512 457.95 L 438.512 457.95 L 438.512 457.95 Q 439.262 457.95 441.213 459 L 441.213 459 L 441.213 459 Q 443.838 460.35 446.387 461.175 L 446.387 461.175 L 446.387 461.175 Q 448.937 462 452.463 462 L 452.463 462 L 452.463 462 Q 457.787 462 460.487 459.188 L 460.487 459.188 L 460.487 459.188 Q 463.187 456.375 463.187 450.975 L 463.187 450.975 L 463.187 444.525 L 463.187 444.525 Q 461.612 448.05 458.35 449.925 L 458.35 449.925 L 458.35 449.925 Q 455.088 451.8 450.662 451.8 L 450.662 451.8 L 450.662 451.8 Q 445.862 451.8 442.15 449.55 L 442.15 449.55 L 442.15 449.55 Q 438.437 447.3 436.375 443.175 L 436.375 443.175 L 436.375 443.175 Q 434.312 439.05 434.312 433.65 L 434.312 433.65 L 434.312 433.65 Q 434.312 428.25 436.375 424.125 L 436.375 424.125 L 436.375 424.125 Q 438.437 420 442.15 417.75 L 442.15 417.75 L 442.15 417.75 Q 445.862 415.5 450.662 415.5 L 450.662 415.5 L 450.662 415.5 Q 455.012 415.5 458.237 417.375 L 458.237 417.375 L 458.237 417.375 Q 461.463 419.25 463.112 422.7 L 463.112 422.7 L 463.112 418.65 L 463.112 418.65 Q 463.112 417.3 463.9 416.475 L 463.9 416.475 L 463.9 416.475 Q 464.687 415.65 466.112 415.65 L 466.112 415.65 L 466.112 415.65 Z  M 451.862 446.775 L 451.862 446.775 Q 457.112 446.775 460.112 443.288 L 460.112 443.288 L 460.112 443.288 Q 463.112 439.8 463.112 433.65 L 463.112 433.65 L 463.112 433.65 Q 463.112 427.575 460.15 424.088 L 460.15 424.088 L 460.15 424.088 Q 457.187 420.6 451.862 420.6 L 451.862 420.6 L 451.862 420.6 Q 446.537 420.6 443.5 424.088 L 443.5 424.088 L 443.5 424.088 Q 440.463 427.575 440.463 433.65 L 440.463 433.65 L 440.463 433.65 Q 440.463 439.8 443.5 443.288 L 443.5 443.288 L 443.5 443.288 Q 446.537 446.775 451.862 446.775 L 451.862 446.775 L 451.862 446.775 Z  M 495.362 415.5 L 495.362 415.5 Q 509.087 415.5 509.087 429.9 L 509.087 429.9 L 509.087 450.3 L 509.087 450.3 Q 509.087 451.65 508.3 452.475 L 508.3 452.475 L 508.3 452.475 Q 507.512 453.3 506.162 453.3 L 506.162 453.3 L 506.162 453.3 Q 504.812 453.3 503.987 452.475 L 503.987 452.475 L 503.987 452.475 Q 503.162 451.65 503.162 450.3 L 503.162 450.3 L 503.162 446.7 L 503.162 446.7 Q 501.737 449.925 498.812 451.688 L 498.812 451.688 L 498.812 451.688 Q 495.887 453.45 492.062 453.45 L 492.062 453.45 L 492.062 453.45 Q 488.537 453.45 485.575 452.025 L 485.575 452.025 L 485.575 452.025 Q 482.612 450.6 480.887 448.05 L 480.887 448.05 L 480.887 448.05 Q 479.162 445.5 479.162 442.425 L 479.162 442.425 L 479.162 442.425 Q 479.162 438.3 481.262 436.013 L 481.262 436.013 L 481.262 436.013 Q 483.362 433.725 488.162 432.713 L 488.162 432.713 L 488.162 432.713 Q 492.962 431.7 501.512 431.7 L 501.512 431.7 L 503.162 431.7 L 503.162 429.225 L 503.162 429.225 Q 503.162 424.725 501.325 422.625 L 501.325 422.625 L 501.325 422.625 Q 499.487 420.525 495.362 420.525 L 495.362 420.525 L 495.362 420.525 Q 490.262 420.525 485.012 423.3 L 485.012 423.3 L 485.012 423.3 Q 482.987 424.575 482.162 424.575 L 482.162 424.575 L 482.162 424.575 Q 481.262 424.575 480.662 423.9 L 480.662 423.9 L 480.662 423.9 Q 480.062 423.225 480.062 422.175 L 480.062 422.175 L 480.062 422.175 Q 480.062 421.125 480.7 420.338 L 480.7 420.338 L 480.7 420.338 Q 481.337 419.55 482.762 418.725 L 482.762 418.725 L 482.762 418.725 Q 485.387 417.225 488.725 416.363 L 488.725 416.363 L 488.725 416.363 Q 492.062 415.5 495.362 415.5 L 495.362 415.5 L 495.362 415.5 Z  M 492.887 448.65 L 492.887 448.65 Q 497.387 448.65 500.275 445.613 L 500.275 445.613 L 500.275 445.613 Q 503.162 442.575 503.162 437.775 L 503.162 437.775 L 503.162 435.6 L 501.812 435.6 L 501.812 435.6 Q 495.212 435.6 491.762 436.163 L 491.762 436.163 L 491.762 436.163 Q 488.312 436.725 486.85 438.038 L 486.85 438.038 L 486.85 438.038 Q 485.387 439.35 485.387 441.9 L 485.387 441.9 L 485.387 441.9 Q 485.387 444.825 487.525 446.738 L 487.525 446.738 L 487.525 446.738 Q 489.662 448.65 492.887 448.65 L 492.887 448.65 L 492.887 448.65 Z  M 537.063 448.5 L 537.063 448.5 Q 539.688 448.725 539.688 450.9 L 539.688 450.9 L 539.688 450.9 Q 539.688 452.175 538.75 452.813 L 538.75 452.813 L 538.75 452.813 Q 537.813 453.45 535.938 453.3 L 535.938 453.3 L 533.912 453.15 L 533.912 453.15 Q 527.912 452.7 525.063 449.55 L 525.063 449.55 L 525.063 449.55 Q 522.212 446.4 522.212 440.025 L 522.212 440.025 L 522.212 421.2 L 517.188 421.2 L 517.188 421.2 Q 515.912 421.2 515.2 420.563 L 515.2 420.563 L 515.2 420.563 Q 514.487 419.925 514.487 418.875 L 514.487 418.875 L 514.487 418.875 Q 514.487 417.75 515.2 417.075 L 515.2 417.075 L 515.2 417.075 Q 515.912 416.4 517.188 416.4 L 517.188 416.4 L 522.212 416.4 L 522.212 407.925 L 522.212 407.925 Q 522.212 406.5 523.037 405.713 L 523.037 405.713 L 523.037 405.713 Q 523.862 404.925 525.287 404.925 L 525.287 404.925 L 525.287 404.925 Q 526.637 404.925 527.462 405.713 L 527.462 405.713 L 527.462 405.713 Q 528.287 406.5 528.287 407.925 L 528.287 407.925 L 528.287 416.4 L 536.613 416.4 L 536.613 416.4 Q 537.813 416.4 538.525 417.075 L 538.525 417.075 L 538.525 417.075 Q 539.238 417.75 539.238 418.875 L 539.238 418.875 L 539.238 418.875 Q 539.238 419.925 538.525 420.563 L 538.525 420.563 L 538.525 420.563 Q 537.813 421.2 536.613 421.2 L 536.613 421.2 L 528.287 421.2 L 528.287 440.325 L 528.287 440.325 Q 528.287 444.45 529.975 446.288 L 529.975 446.288 L 529.975 446.288 Q 531.662 448.125 535.037 448.35 L 535.037 448.35 L 537.063 448.5 L 537.063 448.5 Z  M 548.762 453.3 L 548.762 453.3 Q 547.412 453.3 546.55 452.513 L 546.55 452.513 L 546.55 452.513 Q 545.688 451.725 545.688 450.3 L 545.688 450.3 L 545.688 418.65 L 545.688 418.65 Q 545.688 417.225 546.55 416.438 L 546.55 416.438 L 546.55 416.438 Q 547.412 415.65 548.762 415.65 L 548.762 415.65 L 548.762 415.65 Q 550.113 415.65 550.938 416.438 L 550.938 416.438 L 550.938 416.438 Q 551.762 417.225 551.762 418.65 L 551.762 418.65 L 551.762 450.3 L 551.762 450.3 Q 551.762 451.8 550.938 452.55 L 550.938 452.55 L 550.938 452.55 Q 550.113 453.3 548.762 453.3 L 548.762 453.3 L 548.762 453.3 Z  M 548.762 407.775 L 548.762 407.775 Q 546.962 407.775 545.837 406.725 L 545.837 406.725 L 545.837 406.725 Q 544.712 405.675 544.712 403.95 L 544.712 403.95 L 544.712 403.95 Q 544.712 402.3 545.837 401.25 L 545.837 401.25 L 545.837 401.25 Q 546.962 400.2 548.762 400.2 L 548.762 400.2 L 548.762 400.2 Q 550.563 400.2 551.688 401.25 L 551.688 401.25 L 551.688 401.25 Q 552.813 402.3 552.813 403.95 L 552.813 403.95 L 552.813 403.95 Q 552.813 405.675 551.688 406.725 L 551.688 406.725 L 551.688 406.725 Q 550.563 407.775 548.762 407.775 L 548.762 407.775 L 548.762 407.775 Z  M 578.238 453.45 L 578.238 453.45 Q 573.062 453.45 569.125 451.125 L 569.125 451.125 L 569.125 451.125 Q 565.188 448.8 563.05 444.488 L 563.05 444.488 L 563.05 444.488 Q 560.912 440.175 560.912 434.475 L 560.912 434.475 L 560.912 434.475 Q 560.912 428.775 563.05 424.463 L 563.05 424.463 L 563.05 424.463 Q 565.188 420.15 569.125 417.825 L 569.125 417.825 L 569.125 417.825 Q 573.062 415.5 578.238 415.5 L 578.238 415.5 L 578.238 415.5 Q 583.412 415.5 587.387 417.825 L 587.387 417.825 L 587.387 417.825 Q 591.363 420.15 593.5 424.463 L 593.5 424.463 L 593.5 424.463 Q 595.637 428.775 595.637 434.475 L 595.637 434.475 L 595.637 434.475 Q 595.637 440.175 593.5 444.488 L 593.5 444.488 L 593.5 444.488 Q 591.363 448.8 587.387 451.125 L 587.387 451.125 L 587.387 451.125 Q 583.412 453.45 578.238 453.45 L 578.238 453.45 L 578.238 453.45 Z  M 578.238 448.425 L 578.238 448.425 Q 583.637 448.425 586.525 444.863 L 586.525 444.863 L 586.525 444.863 Q 589.412 441.3 589.412 434.475 L 589.412 434.475 L 589.412 434.475 Q 589.412 427.8 586.488 424.163 L 586.488 424.163 L 586.488 424.163 Q 583.562 420.525 578.238 420.525 L 578.238 420.525 L 578.238 420.525 Q 572.912 420.525 569.988 424.163 L 569.988 424.163 L 569.988 424.163 Q 567.063 427.8 567.063 434.475 L 567.063 434.475 L 567.063 434.475 Q 567.063 441.225 569.95 444.825 L 569.95 444.825 L 569.95 444.825 Q 572.837 448.425 578.238 448.425 L 578.238 448.425 L 578.238 448.425 Z  M 623.087 415.5 L 623.087 415.5 Q 636.212 415.5 636.212 429.975 L 636.212 429.975 L 636.212 450.3 L 636.212 450.3 Q 636.212 451.725 635.425 452.513 L 635.425 452.513 L 635.425 452.513 Q 634.637 453.3 633.212 453.3 L 633.212 453.3 L 633.212 453.3 Q 631.787 453.3 630.962 452.513 L 630.962 452.513 L 630.962 452.513 Q 630.137 451.725 630.137 450.3 L 630.137 450.3 L 630.137 430.35 L 630.137 430.35 Q 630.137 425.25 628.15 422.925 L 628.15 422.925 L 628.15 422.925 Q 626.162 420.6 621.812 420.6 L 621.812 420.6 L 621.812 420.6 Q 616.787 420.6 613.787 423.675 L 613.787 423.675 L 613.787 423.675 Q 610.787 426.75 610.787 432 L 610.787 432 L 610.787 450.3 L 610.787 450.3 Q 610.787 451.725 610 452.513 L 610 452.513 L 610 452.513 Q 609.212 453.3 607.787 453.3 L 607.787 453.3 L 607.787 453.3 Q 606.362 453.3 605.537 452.513 L 605.537 452.513 L 605.537 452.513 Q 604.712 451.725 604.712 450.3 L 604.712 450.3 L 604.712 418.65 L 604.712 418.65 Q 604.712 417.3 605.537 416.475 L 605.537 416.475 L 605.537 416.475 Q 606.362 415.65 607.787 415.65 L 607.787 415.65 L 607.787 415.65 Q 609.137 415.65 609.925 416.475 L 609.925 416.475 L 609.925 416.475 Q 610.712 417.3 610.712 418.575 L 610.712 418.575 L 610.712 422.4 L 610.712 422.4 Q 612.512 419.025 615.737 417.263 L 615.737 417.263 L 615.737 417.263 Q 618.962 415.5 623.087 415.5 L 623.087 415.5 L 623.087 415.5 Z  M 74.238 453.45 L 74.238 453.45 Q 70.788 453.45 67.675 452.625 L 67.675 452.625 L 67.675 452.625 Q 64.563 451.8 62.163 450.3 L 62.163 450.3 L 62.163 450.3 Q 60.813 449.4 60.25 448.613 L 60.25 448.613 L 60.25 448.613 Q 59.688 447.825 59.688 446.7 L 59.688 446.7 L 59.688 446.7 Q 59.688 445.725 60.25 445.088 L 60.25 445.088 L 60.25 445.088 Q 60.813 444.45 61.713 444.45 L 61.713 444.45 L 61.713 444.45 Q 62.613 444.45 64.338 445.575 L 64.338 445.575 L 64.338 445.575 Q 66.588 446.925 68.8 447.713 L 68.8 447.713 L 68.8 447.713 Q 71.013 448.5 74.313 448.5 L 74.313 448.5 L 74.313 448.5 Q 78.363 448.5 80.613 447.075 L 80.613 447.075 L 80.613 447.075 Q 82.863 445.65 82.863 442.95 L 82.863 442.95 L 82.863 442.95 Q 82.863 441.3 82.038 440.288 L 82.038 440.288 L 82.038 440.288 Q 81.213 439.275 79.188 438.488 L 79.188 438.488 L 79.188 438.488 Q 77.163 437.7 73.263 436.875 L 73.263 436.875 L 73.263 436.875 Q 66.663 435.45 63.813 433.05 L 63.813 433.05 L 63.813 433.05 Q 60.963 430.65 60.963 426.525 L 60.963 426.525 L 60.963 426.525 Q 60.963 423.3 62.763 420.825 L 62.763 420.825 L 62.763 420.825 Q 64.563 418.35 67.75 416.925 L 67.75 416.925 L 67.75 416.925 Q 70.938 415.5 74.988 415.5 L 74.988 415.5 L 74.988 415.5 Q 77.913 415.5 80.65 416.288 L 80.65 416.288 L 80.65 416.288 Q 83.388 417.075 85.488 418.5 L 85.488 418.5 L 85.488 418.5 Q 88.038 420.3 88.038 422.25 L 88.038 422.25 L 88.038 422.25 Q 88.038 423.225 87.438 423.9 L 87.438 423.9 L 87.438 423.9 Q 86.838 424.575 86.013 424.575 L 86.013 424.575 L 86.013 424.575 Q 85.113 424.575 83.313 423.3 L 83.313 423.3 L 83.313 423.3 Q 81.213 421.95 79.338 421.2 L 79.338 421.2 L 79.338 421.2 Q 77.463 420.45 74.688 420.45 L 74.688 420.45 L 74.688 420.45 Q 71.163 420.45 69.025 422.025 L 69.025 422.025 L 69.025 422.025 Q 66.888 423.6 66.888 426.225 L 66.888 426.225 L 66.888 426.225 Q 66.888 427.875 67.675 428.888 L 67.675 428.888 L 67.675 428.888 Q 68.463 429.9 70.3 430.688 L 70.3 430.688 L 70.3 430.688 Q 72.138 431.475 75.588 432.225 L 75.588 432.225 L 75.588 432.225 Q 80.688 433.35 83.5 434.7 L 83.5 434.7 L 83.5 434.7 Q 86.313 436.05 87.513 438 L 87.513 438 L 87.513 438 Q 88.713 439.95 88.713 442.95 L 88.713 442.95 L 88.713 442.95 Q 88.713 447.675 84.738 450.563 L 84.738 450.563 L 84.738 450.563 Q 80.763 453.45 74.238 453.45 L 74.238 453.45 L 74.238 453.45 Z  M 101.013 453.3 L 101.013 453.3 Q 99.663 453.3 98.8 452.513 L 98.8 452.513 L 98.8 452.513 Q 97.938 451.725 97.938 450.3 L 97.938 450.3 L 97.938 418.65 L 97.938 418.65 Q 97.938 417.225 98.8 416.438 L 98.8 416.438 L 98.8 416.438 Q 99.663 415.65 101.013 415.65 L 101.013 415.65 L 101.013 415.65 Q 102.363 415.65 103.188 416.438 L 103.188 416.438 L 103.188 416.438 Q 104.013 417.225 104.013 418.65 L 104.013 418.65 L 104.013 450.3 L 104.013 450.3 Q 104.013 451.8 103.188 452.55 L 103.188 452.55 L 103.188 452.55 Q 102.363 453.3 101.013 453.3 L 101.013 453.3 L 101.013 453.3 Z  M 101.013 407.775 L 101.013 407.775 Q 99.213 407.775 98.088 406.725 L 98.088 406.725 L 98.088 406.725 Q 96.963 405.675 96.963 403.95 L 96.963 403.95 L 96.963 403.95 Q 96.963 402.3 98.088 401.25 L 98.088 401.25 L 98.088 401.25 Q 99.213 400.2 101.013 400.2 L 101.013 400.2 L 101.013 400.2 Q 102.813 400.2 103.938 401.25 L 103.938 401.25 L 103.938 401.25 Q 105.063 402.3 105.063 403.95 L 105.063 403.95 L 105.063 403.95 Q 105.063 405.675 103.938 406.725 L 103.938 406.725 L 103.938 406.725 Q 102.813 407.775 101.013 407.775 L 101.013 407.775 L 101.013 407.775 Z  M 155.988 415.5 L 155.988 415.5 Q 168.138 415.5 168.138 429.975 L 168.138 429.975 L 168.138 450.3 L 168.138 450.3 Q 168.138 451.725 167.313 452.513 L 167.313 452.513 L 167.313 452.513 Q 166.488 453.3 165.138 453.3 L 165.138 453.3 L 165.138 453.3 Q 163.788 453.3 162.925 452.513 L 162.925 452.513 L 162.925 452.513 Q 162.063 451.725 162.063 450.3 L 162.063 450.3 L 162.063 430.125 L 162.063 430.125 Q 162.063 425.1 160.263 422.85 L 160.263 422.85 L 160.263 422.85 Q 158.463 420.6 154.638 420.6 L 154.638 420.6 L 154.638 420.6 Q 150.063 420.6 147.438 423.675 L 147.438 423.675 L 147.438 423.675 Q 144.813 426.75 144.813 432 L 144.813 432 L 144.813 450.3 L 144.813 450.3 Q 144.813 451.725 143.95 452.513 L 143.95 452.513 L 143.95 452.513 Q 143.088 453.3 141.738 453.3 L 141.738 453.3 L 141.738 453.3 Q 140.388 453.3 139.563 452.513 L 139.563 452.513 L 139.563 452.513 Q 138.738 451.725 138.738 450.3 L 138.738 450.3 L 138.738 430.125 L 138.738 430.125 Q 138.738 425.1 136.938 422.85 L 136.938 422.85 L 136.938 422.85 Q 135.138 420.6 131.238 420.6 L 131.238 420.6 L 131.238 420.6 Q 126.738 420.6 124.075 423.675 L 124.075 423.675 L 124.075 423.675 Q 121.413 426.75 121.413 432 L 121.413 432 L 121.413 450.3 L 121.413 450.3 Q 121.413 451.725 120.588 452.513 L 120.588 452.513 L 120.588 452.513 Q 119.762 453.3 118.413 453.3 L 118.413 453.3 L 118.413 453.3 Q 117.063 453.3 116.2 452.513 L 116.2 452.513 L 116.2 452.513 Q 115.338 451.725 115.338 450.3 L 115.338 450.3 L 115.338 418.65 L 115.338 418.65 Q 115.338 417.3 116.2 416.475 L 116.2 416.475 L 116.2 416.475 Q 117.063 415.65 118.413 415.65 L 118.413 415.65 L 118.413 415.65 Q 119.688 415.65 120.513 416.438 L 120.513 416.438 L 120.513 416.438 Q 121.338 417.225 121.338 418.575 L 121.338 418.575 L 121.338 422.175 L 121.338 422.175 Q 122.988 418.95 125.913 417.225 L 125.913 417.225 L 125.913 417.225 Q 128.838 415.5 132.663 415.5 L 132.663 415.5 L 132.663 415.5 Q 141.213 415.5 143.838 422.7 L 143.838 422.7 L 143.838 422.7 Q 145.413 419.4 148.638 417.45 L 148.638 417.45 L 148.638 417.45 Q 151.863 415.5 155.988 415.5 L 155.988 415.5 L 155.988 415.5 Z  M 197.613 415.5 L 197.613 415.5 Q 202.413 415.5 206.088 417.9 L 206.088 417.9 L 206.088 417.9 Q 209.763 420.3 211.788 424.613 L 211.788 424.613 L 211.788 424.613 Q 213.813 428.925 213.813 434.625 L 213.813 434.625 L 213.813 434.625 Q 213.813 440.325 211.788 444.563 L 211.788 444.563 L 211.788 444.563 Q 209.763 448.8 206.125 451.125 L 206.125 451.125 L 206.125 451.125 Q 202.488 453.45 197.613 453.45 L 197.613 453.45 L 197.613 453.45 Q 193.338 453.45 190.15 451.575 L 190.15 451.575 L 190.15 451.575 Q 186.963 449.7 185.313 446.25 L 185.313 446.25 L 185.313 463.875 L 185.313 463.875 Q 185.313 465.225 184.525 466.013 L 184.525 466.013 L 184.525 466.013 Q 183.738 466.8 182.313 466.8 L 182.313 466.8 L 182.313 466.8 Q 180.888 466.8 180.063 465.975 L 180.063 465.975 L 180.063 465.975 Q 179.238 465.15 179.238 463.875 L 179.238 463.875 L 179.238 418.65 L 179.238 418.65 Q 179.238 417.3 180.063 416.475 L 180.063 416.475 L 180.063 416.475 Q 180.888 415.65 182.313 415.65 L 182.313 415.65 L 182.313 415.65 Q 183.738 415.65 184.525 416.475 L 184.525 416.475 L 184.525 416.475 Q 185.313 417.3 185.313 418.65 L 185.313 418.65 L 185.313 422.7 L 185.313 422.7 Q 186.963 419.25 190.15 417.375 L 190.15 417.375 L 190.15 417.375 Q 193.338 415.5 197.613 415.5 L 197.613 415.5 L 197.613 415.5 Z  M 196.413 448.425 L 196.413 448.425 Q 201.738 448.425 204.663 444.825 L 204.663 444.825 L 204.663 444.825 Q 207.588 441.225 207.588 434.625 L 207.588 434.625 L 207.588 434.625 Q 207.588 428.025 204.663 424.313 L 204.663 424.313 L 204.663 424.313 Q 201.738 420.6 196.413 420.6 L 196.413 420.6 L 196.413 420.6 Q 191.088 420.6 188.2 424.2 L 188.2 424.2 L 188.2 424.2 Q 185.313 427.8 185.313 434.475 L 185.313 434.475 L 185.313 434.475 Q 185.313 441.15 188.2 444.788 L 188.2 444.788 L 188.2 444.788 Q 191.088 448.425 196.413 448.425 L 196.413 448.425 L 196.413 448.425 Z  M 225.962 453.3 L 225.962 453.3 Q 224.612 453.3 223.75 452.513 L 223.75 452.513 L 223.75 452.513 Q 222.888 451.725 222.888 450.3 L 222.888 450.3 L 222.888 402.675 L 222.888 402.675 Q 222.888 401.25 223.75 400.463 L 223.75 400.463 L 223.75 400.463 Q 224.612 399.675 225.962 399.675 L 225.962 399.675 L 225.962 399.675 Q 227.237 399.675 228.1 400.463 L 228.1 400.463 L 228.1 400.463 Q 228.962 401.25 228.962 402.675 L 228.962 402.675 L 228.962 450.3 L 228.962 450.3 Q 228.962 451.725 228.1 452.513 L 228.1 452.513 L 228.1 452.513 Q 227.237 453.3 225.962 453.3 L 225.962 453.3 L 225.962 453.3 Z  M 266.612 417.525 L 266.612 417.525 Q 267.438 415.725 269.237 415.725 L 269.237 415.725 L 269.237 415.725 Q 270.362 415.725 271.263 416.475 L 271.263 416.475 L 271.263 416.475 Q 272.163 417.225 272.163 418.35 L 272.163 418.35 L 272.163 418.35 Q 272.163 419.025 271.862 419.55 L 271.862 419.55 L 250.788 465 L 250.788 465 Q 250.413 465.825 249.7 466.275 L 249.7 466.275 L 249.7 466.275 Q 248.987 466.725 248.237 466.725 L 248.237 466.725 L 248.237 466.725 Q 247.112 466.725 246.25 466.013 L 246.25 466.013 L 246.25 466.013 Q 245.388 465.3 245.388 464.175 L 245.388 464.175 L 245.388 464.175 Q 245.388 463.575 245.688 462.975 L 245.688 462.975 L 250.938 451.65 L 236.088 419.55 L 236.088 419.55 Q 235.788 419.025 235.788 418.425 L 235.788 418.425 L 235.788 418.425 Q 235.788 417.3 236.8 416.475 L 236.8 416.475 L 236.8 416.475 Q 237.813 415.65 239.013 415.65 L 239.013 415.65 L 239.013 415.65 Q 239.763 415.65 240.475 416.1 L 240.475 416.1 L 240.475 416.1 Q 241.188 416.55 241.563 417.375 L 241.563 417.375 L 254.088 445.5 L 266.612 417.525 L 266.612 417.525 Z " fill="rgb(164,218,166)"/></g></g></svg>