<svg xmlns="http://www.w3.org/2000/svg" height="600" width="600" style="isolation:isolate"><g fill="#c2eac6"><path d="M484.5 149.1q105 0 105 118.2v156q0 13.8-8.1 21.3t-22.5 7.5q-13.8 0-21.9-7.8-8.1-7.8-8.1-21v-153q0-37.2-14.7-54.6-13.637-17.2-43.5-17.4c-29.862-.2-36.044 6.153-48.7 12.7-12.656 6.547-21.5-34.3 4.3-48.1q25.8-13.8 58.2-13.8zM130.5 452.1q-61.2 0-100.2-25.2-10.8-6.6-15.3-13.8-4.5-7.2-4.5-16.2 0-9.6 5.4-16.2t13.8-6.6q7.8 0 24.6 9.6 18 9.6 35.1 15.6t42.9 6q28.8 0 45-10.2t16.2-28.8q0-12-6.3-19.2-6.3-7.2-21.9-12.9-15.6-5.7-46.2-12.3-52.8-11.4-75.9-30.9-23.1-19.5-23.1-53.1 0-25.8 15-46.5t41.4-32.1q26.4-11.4 60-11.4 24 0 46.8 6.3 22.8 6.3 40.2 18.3 19.8 13.2 19.8 30.6 0 9.6-5.7 16.2t-13.5 6.6q-5.4 0-10.8-2.4t-14.4-7.8q-16.2-9.6-30.3-15-14.1-5.4-35.1-5.4-25.2 0-40.5 10.8t-15.3 29.4q0 16.8 14.1 26.1t53.1 17.7q40.2 8.4 63 19.2 22.8 10.8 32.7 26.7 9.9 15.9 9.9 40.5 0 39-32.7 62.7-32.7 23.7-87.3 23.7z"/><circle r="30" cy="422.1" cx="355.819" vector-effect="non-scaling-stroke"/><circle r="30" cy="301.1" cx="355.819" vector-effect="non-scaling-stroke"/><circle r="30" cy="180.1" cx="355.819" vector-effect="non-scaling-stroke"/></g></svg>
