<svg xmlns="http://www.w3.org/2000/svg" style="isolation:isolate" width="600" height="600"><path d="M484.5 85q105 0 105 118.2v156q0 13.8-8.1 21.3t-22.5 7.5q-13.8 0-21.9-7.8-8.1-7.8-8.1-21v-153q0-37.2-14.7-54.6-13.637-17.2-43.5-17.4c-29.862-.2-36.044 6.153-48.7 12.7-12.656 6.547-21.5-34.3 4.3-48.1Q452.1 85 484.5 85zM130.5 388q-61.2 0-100.2-25.2Q19.5 356.2 15 349q-4.5-7.2-4.5-16.2 0-9.6 5.4-16.2t13.8-6.6q7.8 0 24.6 9.6 18 9.6 35.1 15.6t42.9 6q28.8 0 45-10.2t16.2-28.8q0-12-6.3-19.2-6.3-7.2-21.9-12.9-15.6-5.7-46.2-12.3-52.8-11.4-75.9-30.9-23.1-19.5-23.1-53.1 0-25.8 15-46.5t41.4-32.1q26.4-11.4 60-11.4 24 0 46.8 6.3 22.8 6.3 40.2 18.3 19.8 13.2 19.8 30.6 0 9.6-5.7 16.2t-13.5 6.6q-5.4 0-10.8-2.4t-14.4-7.8q-16.2-9.6-30.3-15-14.1-5.4-35.1-5.4-25.2 0-40.5 10.8t-15.3 29.4q0 16.8 14.1 26.1t53.1 17.7q40.2 8.4 63 19.2 22.8 10.8 32.7 26.7 9.9 15.9 9.9 40.5 0 39-32.7 62.7-32.7 23.7-87.3 23.7z" fill="#C2EAC6"/><g fill="#A4DAA6"><circle vector-effect="non-scaling-stroke" cx="355.819" cy="358" r="30"/><circle vector-effect="non-scaling-stroke" cx="355.819" cy="237" r="30"/><circle vector-effect="non-scaling-stroke" cx="355.819" cy="116" r="30"/></g><path d="M266.563 452.3q13.125 0 13.125 14.475V487.1q0 1.425-.788 2.213-.788.787-2.212.787-1.425 0-2.25-.787-.826-.788-.826-2.213v-19.95q0-5.1-1.987-7.425t-6.338-2.325q-5.025 0-8.025 3.075t-3 8.325v18.3q0 1.425-.787 2.213-.788.787-2.213.787t-2.25-.787q-.825-.788-.825-2.213v-31.65q0-1.35.825-2.175.825-.825 2.25-.825 1.35 0 2.138.825.787.825.787 2.1v3.825q1.8-3.375 5.025-5.137 3.226-1.763 7.351-1.763zm39.15 0q13.724 0 13.724 14.4v20.4q0 1.35-.787 2.175-.788.825-2.137.825-1.351 0-2.175-.825-.825-.825-.825-2.175v-3.6q-1.425 3.225-4.351 4.988-2.925 1.762-6.75 1.762-3.524 0-6.487-1.425-2.962-1.425-4.688-3.975-1.724-2.55-1.724-5.625 0-4.125 2.099-6.412 2.101-2.288 6.901-3.3 4.799-1.013 13.349-1.013h1.651v-2.475q0-4.5-1.838-6.6-1.837-2.1-5.962-2.1-5.101 0-10.351 2.775-2.024 1.275-2.849 1.275-.901 0-1.5-.675-.601-.675-.601-1.725t.638-1.837q.637-.788 2.062-1.613 2.625-1.5 5.963-2.362 3.337-.863 6.638-.863zm-2.476 33.15q4.5 0 7.388-3.037 2.888-3.038 2.888-7.838V472.4h-1.351q-6.6 0-10.05.563-3.45.562-4.912 1.875-1.463 1.312-1.463 3.862 0 2.925 2.138 4.838 2.138 1.912 5.362 1.912zm53.625-31.125q.825-1.8 2.625-1.8 1.125 0 2.026.75.899.75.899 1.875 0 .675-.3 1.2l-14.625 31.5q-.45.975-1.349 1.538-.901.562-1.951.562-.974 0-1.875-.562-.9-.563-1.424-1.538l-14.55-31.5q-.301-.525-.301-1.125 0-1.125 1.013-1.95 1.012-.825 2.213-.825.75 0 1.462.45t1.087 1.275l12.526 28.125 12.524-27.975zm15.3 35.775q-1.349 0-2.212-.787-.862-.788-.862-2.213v-31.65q0-1.425.862-2.212.863-.788 2.212-.788 1.351 0 2.176.788.824.787.824 2.212v31.65q0 1.5-.824 2.25-.825.75-2.176.75zm0-45.525q-1.8 0-2.925-1.05-1.125-1.05-1.125-2.775 0-1.65 1.125-2.7 1.125-1.05 2.925-1.05 1.801 0 2.926 1.05 1.125 1.05 1.125 2.7 0 1.725-1.125 2.775-1.125 1.05-2.926 1.05zm43.95 7.875q1.425 0 2.25.825t.825 2.175v31.8q0 8.175-4.2 12.338-4.2 4.162-12.45 4.162-8.025 0-13.35-3.15-2.7-1.5-2.7-3.45 0-1.05.563-1.725.562-.675 1.462-.675.75 0 2.701 1.05 2.625 1.35 5.174 2.175 2.55.825 6.076.825 5.324 0 8.024-2.812 2.7-2.813 2.7-8.213v-6.45q-1.575 3.525-4.837 5.4-3.262 1.875-7.688 1.875-4.8 0-8.512-2.25-3.713-2.25-5.775-6.375-2.063-4.125-2.063-9.525t2.063-9.525q2.062-4.125 5.775-6.375 3.712-2.25 8.512-2.25 4.35 0 7.575 1.875 3.226 1.875 4.875 5.325v-4.05q0-1.35.788-2.175.787-.825 2.212-.825zm-14.25 31.125q5.25 0 8.25-3.487 3-3.488 3-9.638 0-6.075-2.962-9.562-2.963-3.488-8.288-3.488t-8.362 3.488q-3.037 3.487-3.037 9.562 0 6.15 3.037 9.638 3.037 3.487 8.362 3.487zm43.5-31.275q13.725 0 13.725 14.4v20.4q0 1.35-.787 2.175-.788.825-2.138.825-1.35 0-2.175-.825-.825-.825-.825-2.175v-3.6q-1.425 3.225-4.35 4.988-2.925 1.762-6.75 1.762-3.525 0-6.487-1.425-2.963-1.425-4.688-3.975-1.725-2.55-1.725-5.625 0-4.125 2.1-6.412 2.1-2.288 6.9-3.3 4.8-1.013 13.35-1.013h1.65v-2.475q0-4.5-1.837-6.6-1.838-2.1-5.963-2.1-5.1 0-10.35 2.775-2.025 1.275-2.85 1.275-.9 0-1.5-.675t-.6-1.725q0-1.05.638-1.837.637-.788 2.062-1.613 2.625-1.5 5.963-2.362 3.337-.863 6.637-.863zm-2.475 33.15q4.5 0 7.388-3.037 2.887-3.038 2.887-7.838V472.4h-1.35q-6.6 0-10.05.563-3.45.562-4.912 1.875-1.463 1.312-1.463 3.862 0 2.925 2.138 4.838 2.137 1.912 5.362 1.912zm44.175-.15q2.625.225 2.625 2.4 0 1.275-.937 1.913-.938.637-2.813.487l-2.025-.15q-6-.45-8.85-3.6-2.85-3.15-2.85-9.525V458h-5.025q-1.275 0-1.987-.637-.713-.638-.713-1.688 0-1.125.713-1.8.712-.675 1.987-.675h5.025v-8.475q0-1.425.825-2.212.825-.788 2.25-.788 1.35 0 2.175.788.825.787.825 2.212v8.475h8.325q1.2 0 1.913.675.712.675.712 1.8 0 1.05-.712 1.688-.713.637-1.913.637h-8.325v19.125q0 4.125 1.688 5.963 1.687 1.837 5.062 2.062l2.025.15zm11.7 4.8q-1.35 0-2.212-.787-.863-.788-.863-2.213v-31.65q0-1.425.863-2.212.862-.788 2.212-.788t2.175.788q.825.787.825 2.212v31.65q0 1.5-.825 2.25t-2.175.75zm0-45.525q-1.8 0-2.925-1.05-1.125-1.05-1.125-2.775 0-1.65 1.125-2.7 1.125-1.05 2.925-1.05 1.8 0 2.925 1.05 1.125 1.05 1.125 2.7 0 1.725-1.125 2.775-1.125 1.05-2.925 1.05zm29.476 45.675q-5.176 0-9.113-2.325-3.937-2.325-6.075-6.637-2.138-4.313-2.138-10.013t2.138-10.012q2.138-4.313 6.075-6.638 3.937-2.325 9.113-2.325 5.174 0 9.149 2.325 3.976 2.325 6.113 6.638 2.137 4.312 2.137 10.012t-2.137 10.013q-2.137 4.312-6.113 6.637-3.975 2.325-9.149 2.325zm0-5.025q5.399 0 8.287-3.562 2.887-3.563 2.887-10.388 0-6.675-2.924-10.312-2.926-3.638-8.25-3.638-5.326 0-8.251 3.638-2.924 3.637-2.924 10.312 0 6.75 2.887 10.35 2.887 3.6 8.288 3.6zm44.849-32.925q13.125 0 13.125 14.475V487.1q0 1.425-.787 2.213-.788.787-2.213.787t-2.25-.787q-.825-.788-.825-2.213v-19.95q0-5.1-1.987-7.425-1.988-2.325-6.338-2.325-5.025 0-8.025 3.075t-3 8.325v18.3q0 1.425-.787 2.213-.788.787-2.213.787t-2.25-.787q-.825-.788-.825-2.213v-31.65q0-1.35.825-2.175.825-.825 2.25-.825 1.35 0 2.138.825.787.825.787 2.1v3.825q1.8-3.375 5.025-5.137 3.225-1.763 7.35-1.763zM24.238 490.25q-3.45 0-6.563-.825-3.112-.825-5.512-2.325-1.35-.9-1.913-1.687-.562-.788-.562-1.913 0-.975.562-1.612.563-.638 1.462-.638.901 0 2.626 1.125 2.25 1.35 4.462 2.138 2.213.787 5.513.787 4.05 0 6.3-1.425t2.25-4.125q0-1.65-.826-2.662-.824-1.013-2.849-1.8-2.026-.788-5.925-1.613-6.6-1.425-9.45-3.825-2.851-2.4-2.851-6.525 0-3.225 1.801-5.7 1.8-2.475 4.987-3.9 3.188-1.425 7.238-1.425 2.924 0 5.662.788 2.738.787 4.838 2.212 2.549 1.8 2.549 3.75 0 .975-.599 1.65-.6.675-1.425.675-.9 0-2.7-1.275-2.1-1.35-3.975-2.1t-4.65-.75q-3.525 0-5.663 1.575-2.137 1.575-2.137 4.2 0 1.65.787 2.663.788 1.012 2.625 1.8 1.838.787 5.288 1.537 5.1 1.125 7.912 2.475 2.813 1.35 4.013 3.3 1.2 1.95 1.2 4.95 0 4.725-3.975 7.613-3.975 2.887-10.5 2.887zm26.775-.15q-1.35 0-2.213-.787-.862-.788-.862-2.213v-31.65q0-1.425.862-2.212.863-.788 2.213-.788t2.175.788q.825.787.825 2.212v31.65q0 1.5-.825 2.25t-2.175.75zm0-45.525q-1.8 0-2.925-1.05-1.125-1.05-1.125-2.775 0-1.65 1.125-2.7 1.125-1.05 2.925-1.05 1.8 0 2.925 1.05 1.125 1.05 1.125 2.7 0 1.725-1.125 2.775-1.125 1.05-2.925 1.05zm54.975 7.725q12.149 0 12.149 14.475V487.1q0 1.425-.824 2.213-.825.787-2.176.787-1.349 0-2.212-.787-.862-.788-.862-2.213v-20.175q0-5.025-1.801-7.275-1.799-2.25-5.625-2.25-4.574 0-7.199 3.075t-2.625 8.325v18.3q0 1.425-.863 2.213-.862.787-2.212.787-1.351 0-2.175-.787-.825-.788-.825-2.213v-20.175q0-5.025-1.8-7.275t-5.7-2.25q-4.5 0-7.163 3.075-2.662 3.075-2.662 8.325v18.3q0 1.425-.825 2.213-.826.787-2.175.787-1.35 0-2.213-.787-.862-.788-.862-2.213v-31.65q0-1.35.862-2.175.863-.825 2.213-.825 1.275 0 2.1.788.825.787.825 2.137v3.6q1.65-3.225 4.575-4.95 2.925-1.725 6.75-1.725 8.55 0 11.175 7.2 1.575-3.3 4.799-5.25 3.226-1.95 7.351-1.95zm41.625 0q4.8 0 8.475 2.4t5.7 6.713q2.025 4.312 2.025 10.012t-2.025 9.938q-2.025 4.237-5.663 6.562-3.637 2.325-8.512 2.325-4.275 0-7.463-1.875-3.187-1.875-4.837-5.325v17.625q0 1.35-.788 2.138-.787.787-2.212.787-1.426 0-2.25-.825-.825-.825-.825-2.1V455.45q0-1.35.825-2.175.824-.825 2.25-.825 1.425 0 2.212.825.788.825.788 2.175v4.05q1.65-3.45 4.837-5.325 3.188-1.875 7.463-1.875zm-1.2 32.925q5.325 0 8.25-3.6t2.925-10.2q0-6.6-2.925-10.312-2.925-3.713-8.25-3.713T138.2 461q-2.887 3.6-2.887 10.275 0 6.675 2.887 10.313 2.888 3.637 8.213 3.637zm29.549 4.875q-1.35 0-2.212-.787-.862-.788-.862-2.213v-47.625q0-1.425.862-2.212.862-.788 2.212-.788 1.275 0 2.138.788.862.787.862 2.212V487.1q0 1.425-.862 2.213-.863.787-2.138.787zm40.65-35.775q.826-1.8 2.625-1.8 1.125 0 2.026.75.9.75.9 1.875 0 .675-.301 1.2l-21.074 45.45q-.375.825-1.088 1.275-.713.45-1.463.45-1.125 0-1.987-.712-.862-.713-.862-1.838 0-.6.3-1.2l5.25-11.325-14.85-32.1q-.3-.525-.3-1.125 0-1.125 1.012-1.95 1.013-.825 2.213-.825.75 0 1.462.45.713.45 1.088 1.275l12.525 28.125 12.524-27.975z" fill="#A4DAA6"/></svg>