<?xml version="1.0" standalone="no"?><!-- Generator: Gravit.io --><svg xmlns="http://www.w3.org/2000/svg" xmlns:xlink="http://www.w3.org/1999/xlink" style="isolation:isolate" viewBox="158.625 50 125 125" width="125" height="125"><g><circle vector-effect="non-scaling-stroke" cx="221.12499999999994" cy="112.5" r="62.5" fill="rgb(185,185,185)"/><g><path d="M 186.199 131.022 L 256.051 131.022 C 256.9 131.022 257.589 131.711 257.589 132.56 L 257.589 133.462 C 257.589 134.311 256.9 135 256.051 135 L 186.199 135 C 185.35 135 184.661 134.311 184.661 133.462 L 184.661 132.56 C 184.661 131.711 185.35 131.022 186.199 131.022 Z" style="stroke:none;fill:#5D5D5D;stroke-miterlimit:10;"/><path d=" M 257.385 109.76 L 257.385 113.28 L 245.345 118.338 L 244.253 114.95 L 253.045 111.52 L 244.253 108.09 L 245.345 104.702 L 257.385 109.76 Z  M 212.277 116.91 L 212.277 116.91 L 212.277 116.91 Q 213.425 116.91 213.901 116.686 L 213.901 116.686 L 213.901 116.686 Q 214.377 116.462 214.377 115.818 L 214.377 115.818 L 214.377 115.818 Q 214.377 115.314 213.761 114.936 L 213.761 114.936 L 213.761 114.936 Q 213.145 114.558 211.885 114.082 L 211.885 114.082 L 211.885 114.082 Q 210.905 113.718 210.107 113.326 L 210.107 113.326 L 210.107 113.326 Q 209.309 112.934 208.749 112.388 L 208.749 112.388 L 208.749 112.388 Q 208.189 111.842 207.881 111.086 L 207.881 111.086 L 207.881 111.086 Q 207.573 110.33 207.573 109.266 L 207.573 109.266 L 207.573 109.266 Q 207.573 107.194 209.113 105.99 L 209.113 105.99 L 209.113 105.99 Q 210.653 104.786 213.341 104.786 L 213.341 104.786 L 213.341 104.786 Q 214.685 104.786 215.917 105.024 L 215.917 105.024 L 215.917 105.024 Q 217.149 105.262 217.877 105.542 L 217.877 105.542 L 217.149 108.79 L 217.149 108.79 Q 216.421 108.538 215.567 108.342 L 215.567 108.342 L 215.567 108.342 Q 214.713 108.146 213.649 108.146 L 213.649 108.146 L 213.649 108.146 Q 211.689 108.146 211.689 109.238 L 211.689 109.238 L 211.689 109.238 Q 211.689 109.49 211.773 109.686 L 211.773 109.686 L 211.773 109.686 Q 211.857 109.882 212.109 110.064 L 212.109 110.064 L 212.109 110.064 Q 212.361 110.246 212.795 110.455 L 212.795 110.455 L 212.795 110.455 Q 213.229 110.664 213.901 110.914 L 213.901 110.914 L 213.901 110.914 Q 215.273 111.415 216.169 111.902 L 216.169 111.902 L 216.169 111.902 Q 217.065 112.39 217.583 112.964 L 217.583 112.964 L 217.583 112.964 Q 218.101 113.539 218.311 114.24 L 218.311 114.24 L 218.311 114.24 Q 218.521 114.942 218.521 115.867 L 218.521 115.867 L 218.521 115.867 Q 218.521 118.054 216.883 119.176 L 216.883 119.176 L 216.883 119.176 Q 215.245 120.298 212.249 120.298 L 212.249 120.298 L 212.249 120.298 Q 210.289 120.298 208.987 119.962 L 208.987 119.962 L 208.987 119.962 Q 207.685 119.626 207.181 119.402 L 207.181 119.402 L 207.881 116.014 L 207.881 116.014 Q 208.945 116.434 210.065 116.672 L 210.065 116.672 L 210.065 116.672 Q 211.185 116.91 212.277 116.91 Z  M 221.629 119.906 L 221.629 105.682 L 221.629 105.682 Q 222.693 105.374 224.373 105.108 L 224.373 105.108 L 224.373 105.108 Q 226.053 104.842 227.901 104.842 L 227.901 104.842 L 227.901 104.842 Q 229.777 104.842 231.023 105.332 L 231.023 105.332 L 231.023 105.332 Q 232.269 105.822 232.997 106.718 L 232.997 106.718 L 232.997 106.718 Q 233.725 107.614 234.033 108.846 L 234.033 108.846 L 234.033 108.846 Q 234.341 110.078 234.341 111.59 L 234.341 111.59 L 234.341 119.906 L 230.169 119.906 L 230.169 112.094 L 230.169 112.094 Q 230.169 110.078 229.637 109.238 L 229.637 109.238 L 229.637 109.238 Q 229.105 108.398 227.649 108.398 L 227.649 108.398 L 227.649 108.398 Q 227.201 108.398 226.697 108.44 L 226.697 108.44 L 226.697 108.44 Q 226.193 108.482 225.801 108.538 L 225.801 108.538 L 225.801 119.906 L 221.629 119.906 Z  M 184.865 113.28 L 184.865 109.76 L 196.905 104.702 L 197.997 108.09 L 189.205 111.52 L 197.997 114.95 L 196.905 118.338 L 184.865 113.28 Z " fill="rgb(93,93,93)"/><path d="M 186.199 90 L 256.051 90 C 256.9 90 257.589 90.689 257.589 91.538 L 257.589 92.44 C 257.589 93.289 256.9 93.978 256.051 93.978 L 186.199 93.978 C 185.35 93.978 184.661 93.289 184.661 92.44 L 184.661 91.538 C 184.661 90.689 185.35 90 186.199 90 Z" style="stroke:none;fill:#5D5D5D;stroke-miterlimit:10;"/></g></g></svg>