<?xml version="1.0" standalone="no"?><!-- Generator: Gravit.io --><svg xmlns="http://www.w3.org/2000/svg" xmlns:xlink="http://www.w3.org/1999/xlink" style="isolation:isolate" viewBox="0 0 141 141" width="141" height="141"><g><circle vector-effect="non-scaling-stroke" cx="70.5" cy="70.5" r="62.5" fill="rgb(193,234,197)" stroke-width="4" stroke="rgb(123,196,127)" stroke-linejoin="miter" stroke-linecap="square" stroke-miterlimit="3"/><g><path d=" M 124.89 66.39 L 124.89 71.67 L 106.83 79.257 L 105.192 74.175 L 118.38 69.03 L 105.192 63.885 L 106.83 58.803 L 124.89 66.39 Z  M 57.228 77.115 L 57.228 77.115 L 57.228 77.115 Q 58.95 77.115 59.664 76.779 L 59.664 76.779 L 59.664 76.779 Q 60.378 76.443 60.378 75.477 L 60.378 75.477 L 60.378 75.477 Q 60.378 74.721 59.454 74.154 L 59.454 74.154 L 59.454 74.154 Q 58.53 73.587 56.64 72.873 L 56.64 72.873 L 56.64 72.873 Q 55.17 72.327 53.973 71.739 L 53.973 71.739 L 53.973 71.739 Q 52.776 71.151 51.936 70.332 L 51.936 70.332 L 51.936 70.332 Q 51.096 69.513 50.634 68.379 L 50.634 68.379 L 50.634 68.379 Q 50.172 67.245 50.172 65.649 L 50.172 65.649 L 50.172 65.649 Q 50.172 62.541 52.482 60.735 L 52.482 60.735 L 52.482 60.735 Q 54.792 58.929 58.824 58.929 L 58.824 58.929 L 58.824 58.929 Q 60.84 58.929 62.688 59.286 L 62.688 59.286 L 62.688 59.286 Q 64.536 59.643 65.628 60.063 L 65.628 60.063 L 64.536 64.935 L 64.536 64.935 Q 63.444 64.557 62.163 64.263 L 62.163 64.263 L 62.163 64.263 Q 60.882 63.969 59.286 63.969 L 59.286 63.969 L 59.286 63.969 Q 56.346 63.969 56.346 65.607 L 56.346 65.607 L 56.346 65.607 Q 56.346 65.985 56.472 66.279 L 56.472 66.279 L 56.472 66.279 Q 56.598 66.573 56.976 66.846 L 56.976 66.846 L 56.976 66.846 Q 57.354 67.119 58.005 67.432 L 58.005 67.432 L 58.005 67.432 Q 58.656 67.745 59.664 68.121 L 59.664 68.121 L 59.664 68.121 Q 61.722 68.873 63.066 69.604 L 63.066 69.604 L 63.066 69.604 Q 64.41 70.334 65.187 71.197 L 65.187 71.197 L 65.187 71.197 Q 65.964 72.059 66.279 73.111 L 66.279 73.111 L 66.279 73.111 Q 66.594 74.162 66.594 75.551 L 66.594 75.551 L 66.594 75.551 Q 66.594 78.832 64.137 80.514 L 64.137 80.514 L 64.137 80.514 Q 61.68 82.197 57.186 82.197 L 57.186 82.197 L 57.186 82.197 Q 54.246 82.197 52.293 81.693 L 52.293 81.693 L 52.293 81.693 Q 50.34 81.189 49.584 80.853 L 49.584 80.853 L 50.634 75.771 L 50.634 75.771 Q 52.23 76.401 53.91 76.758 L 53.91 76.758 L 53.91 76.758 Q 55.59 77.115 57.228 77.115 Z  M 71.256 81.609 L 71.256 60.273 L 71.256 60.273 Q 72.852 59.811 75.372 59.412 L 75.372 59.412 L 75.372 59.412 Q 77.892 59.013 80.664 59.013 L 80.664 59.013 L 80.664 59.013 Q 83.478 59.013 85.347 59.748 L 85.347 59.748 L 85.347 59.748 Q 87.216 60.483 88.308 61.827 L 88.308 61.827 L 88.308 61.827 Q 89.4 63.171 89.862 65.019 L 89.862 65.019 L 89.862 65.019 Q 90.324 66.867 90.324 69.135 L 90.324 69.135 L 90.324 81.609 L 84.066 81.609 L 84.066 69.891 L 84.066 69.891 Q 84.066 66.867 83.268 65.607 L 83.268 65.607 L 83.268 65.607 Q 82.47 64.347 80.286 64.347 L 80.286 64.347 L 80.286 64.347 Q 79.614 64.347 78.858 64.41 L 78.858 64.41 L 78.858 64.41 Q 78.102 64.473 77.514 64.557 L 77.514 64.557 L 77.514 81.609 L 71.256 81.609 Z  M 16.11 71.67 L 16.11 66.39 L 34.17 58.803 L 35.808 63.885 L 22.62 69.03 L 35.808 74.175 L 34.17 79.257 L 16.11 71.67 Z " fill="rgb(5,64,10)"/></g></g></svg>