<?xml version="1.0" standalone="no"?><!-- Generator: Gravit.io --><svg xmlns="http://www.w3.org/2000/svg" xmlns:xlink="http://www.w3.org/1999/xlink" style="isolation:isolate" viewBox="0 0 753 152.375" width="753" height="152.375"><path d=" M 433.776 102.936 L 426.072 102.936 L 426.072 102.936 Q 423.624 98.832 420.6 94.116 L 420.6 94.116 L 420.6 94.116 Q 417.576 89.4 414.336 84.612 L 414.336 84.612 L 414.336 84.612 Q 411.096 79.824 407.748 75.324 L 407.748 75.324 L 407.748 75.324 Q 404.4 70.824 401.376 67.224 L 401.376 67.224 L 401.376 102.936 L 392.448 102.936 L 392.448 53.04 L 399.864 53.04 L 399.864 53.04 Q 402.744 56.064 406.056 60.204 L 406.056 60.204 L 406.056 60.204 Q 409.368 64.344 412.716 68.808 L 412.716 68.808 L 412.716 68.808 Q 416.064 73.272 419.196 77.772 L 419.196 77.772 L 419.196 77.772 Q 422.328 82.272 424.776 86.16 L 424.776 86.16 L 424.776 53.04 L 433.776 53.04 L 433.776 102.936 L 433.776 102.936 Z  M 458.544 96.816 L 458.544 96.816 L 458.544 96.816 Q 462.576 96.816 464.664 96.384 L 464.664 96.384 L 464.664 86.736 L 464.664 86.736 Q 463.944 86.52 462.576 86.304 L 462.576 86.304 L 462.576 86.304 Q 461.208 86.088 459.552 86.088 L 459.552 86.088 L 459.552 86.088 Q 458.112 86.088 456.636 86.304 L 456.636 86.304 L 456.636 86.304 Q 455.16 86.52 453.972 87.096 L 453.972 87.096 L 453.972 87.096 Q 452.784 87.672 452.064 88.716 L 452.064 88.716 L 452.064 88.716 Q 451.344 89.76 451.344 91.344 L 451.344 91.344 L 451.344 91.344 Q 451.344 94.44 453.288 95.628 L 453.288 95.628 L 453.288 95.628 Q 455.232 96.816 458.544 96.816 Z  M 457.824 64.344 L 457.824 64.344 L 457.824 64.344 Q 462.144 64.344 465.096 65.423 L 465.096 65.423 L 465.096 65.423 Q 468.048 66.504 469.812 68.447 L 469.812 68.447 L 469.812 68.447 Q 471.576 70.392 472.332 73.164 L 472.332 73.164 L 472.332 73.164 Q 473.088 75.936 473.088 79.248 L 473.088 79.248 L 473.088 102.072 L 473.088 102.072 Q 471.072 102.504 467.004 103.116 L 467.004 103.116 L 467.004 103.116 Q 462.936 103.728 457.824 103.728 L 457.824 103.728 L 457.824 103.728 Q 454.44 103.728 451.632 103.08 L 451.632 103.08 L 451.632 103.08 Q 448.824 102.432 446.844 100.992 L 446.844 100.992 L 446.844 100.992 Q 444.864 99.552 443.748 97.248 L 443.748 97.248 L 443.748 97.248 Q 442.632 94.944 442.632 91.56 L 442.632 91.56 L 442.632 91.56 Q 442.632 88.32 443.892 86.088 L 443.892 86.088 L 443.892 86.088 Q 445.152 83.856 447.312 82.452 L 447.312 82.452 L 447.312 82.452 Q 449.472 81.048 452.316 80.436 L 452.316 80.436 L 452.316 80.436 Q 455.16 79.824 458.256 79.824 L 458.256 79.824 L 458.256 79.824 Q 459.696 79.824 461.28 80.004 L 461.28 80.004 L 461.28 80.004 Q 462.864 80.184 464.664 80.616 L 464.664 80.616 L 464.664 79.176 L 464.664 79.176 Q 464.664 77.664 464.304 76.296 L 464.304 76.296 L 464.304 76.296 Q 463.944 74.928 463.044 73.884 L 463.044 73.884 L 463.044 73.884 Q 462.144 72.84 460.668 72.264 L 460.668 72.264 L 460.668 72.264 Q 459.192 71.688 456.96 71.688 L 456.96 71.688 L 456.96 71.688 Q 453.936 71.688 451.416 72.12 L 451.416 72.12 L 451.416 72.12 Q 448.896 72.552 447.312 73.128 L 447.312 73.128 L 446.232 66.072 L 446.232 66.072 Q 447.888 65.495 451.056 64.92 L 451.056 64.92 L 451.056 64.92 Q 454.224 64.344 457.824 64.344 Z  M 500.033 102.936 L 492.439 102.936 L 492.439 102.936 Q 488.844 95.52 485.068 85.908 L 485.068 85.908 L 485.068 85.908 Q 481.292 76.296 478.2 65.28 L 478.2 65.28 L 487.488 65.28 L 487.488 65.28 Q 488.283 68.447 489.331 72.084 L 489.331 72.084 L 489.331 72.084 Q 490.38 75.72 491.573 79.356 L 491.573 79.356 L 491.573 79.356 Q 492.765 82.992 494.03 86.412 L 494.03 86.412 L 494.03 86.412 Q 495.296 89.832 496.38 92.568 L 496.38 92.568 L 496.38 92.568 Q 497.464 89.832 498.693 86.412 L 498.693 86.412 L 498.693 86.412 Q 499.922 82.992 501.115 79.356 L 501.115 79.356 L 501.115 79.356 Q 502.308 75.72 503.392 72.084 L 503.392 72.084 L 503.392 72.084 Q 504.477 68.447 505.272 65.28 L 505.272 65.28 L 514.272 65.28 L 514.272 65.28 Q 511.18 76.296 507.404 85.908 L 507.404 85.908 L 507.404 85.908 Q 503.628 95.52 500.033 102.936 L 500.033 102.936 L 500.033 102.936 Z  M 529.464 65.28 L 529.464 102.936 L 520.752 102.936 L 520.752 65.28 L 529.464 65.28 L 529.464 65.28 Z  M 530.4 54.264 L 530.4 54.264 L 530.4 54.264 Q 530.4 56.712 528.816 58.152 L 528.816 58.152 L 528.816 58.152 Q 527.232 59.592 525.072 59.592 L 525.072 59.592 L 525.072 59.592 Q 522.84 59.592 521.256 58.152 L 521.256 58.152 L 521.256 58.152 Q 519.672 56.712 519.672 54.264 L 519.672 54.264 L 519.672 54.264 Q 519.672 51.744 521.256 50.304 L 521.256 50.304 L 521.256 50.304 Q 522.84 48.863 525.072 48.863 L 525.072 48.863 L 525.072 48.863 Q 527.232 48.863 528.816 50.304 L 528.816 50.304 L 528.816 50.304 Q 530.4 51.744 530.4 54.264 Z  M 547.392 83.136 L 547.392 83.136 L 547.392 83.136 Q 547.392 88.68 549.804 91.236 L 549.804 91.236 L 549.804 91.236 Q 552.216 93.792 556.032 93.792 L 556.032 93.792 L 556.032 93.792 Q 558.12 93.792 559.956 93.216 L 559.956 93.216 L 559.956 93.216 Q 561.792 92.64 562.944 91.848 L 562.944 91.848 L 562.944 72.336 L 562.944 72.336 Q 562.008 72.12 560.64 71.94 L 560.64 71.94 L 560.64 71.94 Q 559.272 71.76 557.184 71.76 L 557.184 71.76 L 557.184 71.76 Q 552.432 71.76 549.912 74.892 L 549.912 74.892 L 549.912 74.892 Q 547.392 78.024 547.392 83.136 Z  M 571.656 66.504 L 571.656 99.12 L 571.656 99.12 Q 571.656 108.12 567.084 112.296 L 567.084 112.296 L 567.084 112.296 Q 562.512 116.472 553.08 116.472 L 553.08 116.472 L 553.08 116.472 Q 549.624 116.472 546.348 115.896 L 546.348 115.896 L 546.348 115.896 Q 543.072 115.32 540.408 114.384 L 540.408 114.384 L 541.992 106.968 L 541.992 106.968 Q 544.224 107.904 547.068 108.48 L 547.068 108.48 L 547.068 108.48 Q 549.912 109.056 553.224 109.056 L 553.224 109.056 L 553.224 109.056 Q 558.48 109.056 560.712 106.896 L 560.712 106.896 L 560.712 106.896 Q 562.944 104.736 562.944 100.488 L 562.944 100.488 L 562.944 99.048 L 562.944 99.048 Q 561.648 99.696 559.524 100.344 L 559.524 100.344 L 559.524 100.344 Q 557.4 100.992 554.664 100.992 L 554.664 100.992 L 554.664 100.992 Q 551.064 100.992 548.076 99.84 L 548.076 99.84 L 548.076 99.84 Q 545.088 98.688 542.964 96.456 L 542.964 96.456 L 542.964 96.456 Q 540.84 94.224 539.652 90.876 L 539.652 90.876 L 539.652 90.876 Q 538.464 87.528 538.464 83.136 L 538.464 83.136 L 538.464 83.136 Q 538.464 79.032 539.724 75.576 L 539.724 75.576 L 539.724 75.576 Q 540.984 72.12 543.396 69.672 L 543.396 69.672 L 543.396 69.672 Q 545.808 67.224 549.264 65.856 L 549.264 65.856 L 549.264 65.856 Q 552.72 64.488 557.112 64.488 L 557.112 64.488 L 557.112 64.488 Q 561.36 64.488 565.176 65.136 L 565.176 65.136 L 565.176 65.136 Q 568.992 65.784 571.656 66.504 L 571.656 66.504 L 571.656 66.504 Z  M 595.992 96.816 L 595.992 96.816 L 595.992 96.816 Q 600.024 96.816 602.112 96.384 L 602.112 96.384 L 602.112 86.736 L 602.112 86.736 Q 601.392 86.52 600.024 86.304 L 600.024 86.304 L 600.024 86.304 Q 598.656 86.088 597 86.088 L 597 86.088 L 597 86.088 Q 595.56 86.088 594.084 86.304 L 594.084 86.304 L 594.084 86.304 Q 592.608 86.52 591.42 87.096 L 591.42 87.096 L 591.42 87.096 Q 590.232 87.672 589.512 88.716 L 589.512 88.716 L 589.512 88.716 Q 588.792 89.76 588.792 91.344 L 588.792 91.344 L 588.792 91.344 Q 588.792 94.44 590.736 95.628 L 590.736 95.628 L 590.736 95.628 Q 592.68 96.816 595.992 96.816 Z  M 595.272 64.344 L 595.272 64.344 L 595.272 64.344 Q 599.592 64.344 602.544 65.423 L 602.544 65.423 L 602.544 65.423 Q 605.496 66.504 607.26 68.447 L 607.26 68.447 L 607.26 68.447 Q 609.024 70.392 609.78 73.164 L 609.78 73.164 L 609.78 73.164 Q 610.536 75.936 610.536 79.248 L 610.536 79.248 L 610.536 102.072 L 610.536 102.072 Q 608.52 102.504 604.452 103.116 L 604.452 103.116 L 604.452 103.116 Q 600.384 103.728 595.272 103.728 L 595.272 103.728 L 595.272 103.728 Q 591.888 103.728 589.08 103.08 L 589.08 103.08 L 589.08 103.08 Q 586.272 102.432 584.292 100.992 L 584.292 100.992 L 584.292 100.992 Q 582.312 99.552 581.196 97.248 L 581.196 97.248 L 581.196 97.248 Q 580.08 94.944 580.08 91.56 L 580.08 91.56 L 580.08 91.56 Q 580.08 88.32 581.34 86.088 L 581.34 86.088 L 581.34 86.088 Q 582.6 83.856 584.76 82.452 L 584.76 82.452 L 584.76 82.452 Q 586.92 81.048 589.764 80.436 L 589.764 80.436 L 589.764 80.436 Q 592.608 79.824 595.704 79.824 L 595.704 79.824 L 595.704 79.824 Q 597.144 79.824 598.728 80.004 L 598.728 80.004 L 598.728 80.004 Q 600.312 80.184 602.112 80.616 L 602.112 80.616 L 602.112 79.176 L 602.112 79.176 Q 602.112 77.664 601.752 76.296 L 601.752 76.296 L 601.752 76.296 Q 601.392 74.928 600.492 73.884 L 600.492 73.884 L 600.492 73.884 Q 599.592 72.84 598.116 72.264 L 598.116 72.264 L 598.116 72.264 Q 596.64 71.688 594.408 71.688 L 594.408 71.688 L 594.408 71.688 Q 591.384 71.688 588.864 72.12 L 588.864 72.12 L 588.864 72.12 Q 586.344 72.552 584.76 73.128 L 584.76 73.128 L 583.68 66.072 L 583.68 66.072 Q 585.336 65.495 588.504 64.92 L 588.504 64.92 L 588.504 64.92 Q 591.672 64.344 595.272 64.344 Z  M 620.76 87.96 L 620.76 55.344 L 629.472 53.904 L 629.472 65.28 L 642.864 65.28 L 642.864 72.552 L 629.472 72.552 L 629.472 87.888 L 629.472 87.888 Q 629.472 92.424 630.912 94.368 L 630.912 94.368 L 630.912 94.368 Q 632.352 96.312 635.808 96.312 L 635.808 96.312 L 635.808 96.312 Q 638.184 96.312 640.02 95.808 L 640.02 95.808 L 640.02 95.808 Q 641.856 95.304 642.936 94.872 L 642.936 94.872 L 644.376 101.784 L 644.376 101.784 Q 642.864 102.432 640.416 103.116 L 640.416 103.116 L 640.416 103.116 Q 637.968 103.8 634.656 103.8 L 634.656 103.8 L 634.656 103.8 Q 630.624 103.8 627.924 102.72 L 627.924 102.72 L 627.924 102.72 Q 625.224 101.64 623.64 99.588 L 623.64 99.588 L 623.64 99.588 Q 622.056 97.536 621.408 94.62 L 621.408 94.62 L 621.408 94.62 Q 620.76 91.704 620.76 87.96 L 620.76 87.96 L 620.76 87.96 Z  M 660.072 65.28 L 660.072 102.936 L 651.36 102.936 L 651.36 65.28 L 660.072 65.28 L 660.072 65.28 Z  M 661.008 54.264 L 661.008 54.264 L 661.008 54.264 Q 661.008 56.712 659.424 58.152 L 659.424 58.152 L 659.424 58.152 Q 657.84 59.592 655.68 59.592 L 655.68 59.592 L 655.68 59.592 Q 653.448 59.592 651.864 58.152 L 651.864 58.152 L 651.864 58.152 Q 650.28 56.712 650.28 54.264 L 650.28 54.264 L 650.28 54.264 Q 650.28 51.744 651.864 50.304 L 651.864 50.304 L 651.864 50.304 Q 653.448 48.863 655.68 48.863 L 655.68 48.863 L 655.68 48.863 Q 657.84 48.863 659.424 50.304 L 659.424 50.304 L 659.424 50.304 Q 661.008 51.744 661.008 54.264 Z  M 705.216 84.072 L 705.216 84.072 L 705.216 84.072 Q 705.216 88.536 703.92 92.208 L 703.92 92.208 L 703.92 92.208 Q 702.624 95.88 700.248 98.472 L 700.248 98.472 L 700.248 98.472 Q 697.872 101.064 694.524 102.504 L 694.524 102.504 L 694.524 102.504 Q 691.176 103.944 687.144 103.944 L 687.144 103.944 L 687.144 103.944 Q 683.112 103.944 679.8 102.504 L 679.8 102.504 L 679.8 102.504 Q 676.488 101.064 674.112 98.472 L 674.112 98.472 L 674.112 98.472 Q 671.736 95.88 670.404 92.208 L 670.404 92.208 L 670.404 92.208 Q 669.072 88.536 669.072 84.072 L 669.072 84.072 L 669.072 84.072 Q 669.072 79.608 670.404 75.972 L 670.404 75.972 L 670.404 75.972 Q 671.736 72.336 674.148 69.744 L 674.148 69.744 L 674.148 69.744 Q 676.56 67.152 679.872 65.748 L 679.872 65.748 L 679.872 65.748 Q 683.184 64.344 687.144 64.344 L 687.144 64.344 L 687.144 64.344 Q 691.104 64.344 694.452 65.748 L 694.452 65.748 L 694.452 65.748 Q 697.8 67.152 700.176 69.744 L 700.176 69.744 L 700.176 69.744 Q 702.552 72.336 703.884 75.972 L 703.884 75.972 L 703.884 75.972 Q 705.216 79.608 705.216 84.072 Z  M 696.288 84.072 L 696.288 84.072 L 696.288 84.072 Q 696.288 78.456 693.876 75.18 L 693.876 75.18 L 693.876 75.18 Q 691.464 71.904 687.144 71.904 L 687.144 71.904 L 687.144 71.904 Q 682.824 71.904 680.412 75.18 L 680.412 75.18 L 680.412 75.18 Q 678 78.456 678 84.072 L 678 84.072 L 678 84.072 Q 678 89.76 680.412 93.072 L 680.412 93.072 L 680.412 93.072 Q 682.824 96.384 687.144 96.384 L 687.144 96.384 L 687.144 96.384 Q 691.464 96.384 693.876 93.072 L 693.876 93.072 L 693.876 93.072 Q 696.288 89.76 696.288 84.072 Z  M 714.216 102.936 L 714.216 66.504 L 714.216 66.504 Q 716.736 65.784 720.768 65.136 L 720.768 65.136 L 720.768 65.136 Q 724.8 64.488 729.696 64.488 L 729.696 64.488 L 729.696 64.488 Q 734.304 64.488 737.4 65.748 L 737.4 65.748 L 737.4 65.748 Q 740.496 67.008 742.332 69.276 L 742.332 69.276 L 742.332 69.276 Q 744.168 71.544 744.924 74.748 L 744.924 74.748 L 744.924 74.748 Q 745.68 77.952 745.68 81.768 L 745.68 81.768 L 745.68 102.936 L 736.968 102.936 L 736.968 83.136 L 736.968 83.136 Q 736.968 80.112 736.572 77.988 L 736.572 77.988 L 736.572 77.988 Q 736.176 75.864 735.276 74.532 L 735.276 74.532 L 735.276 74.532 Q 734.376 73.2 732.828 72.588 L 732.828 72.588 L 732.828 72.588 Q 731.28 71.976 729.048 71.976 L 729.048 71.976 L 729.048 71.976 Q 727.392 71.976 725.592 72.192 L 725.592 72.192 L 725.592 72.192 Q 723.792 72.408 722.928 72.552 L 722.928 72.552 L 722.928 102.936 L 714.216 102.936 L 714.216 102.936 Z  M 165.072 96.168 L 165.072 96.168 L 165.072 96.168 Q 169.968 96.168 172.2 94.512 L 172.2 94.512 L 172.2 94.512 Q 174.432 92.856 174.432 89.832 L 174.432 89.832 L 174.432 89.832 Q 174.432 88.032 173.676 86.736 L 173.676 86.736 L 173.676 86.736 Q 172.92 85.44 171.516 84.396 L 171.516 84.396 L 171.516 84.396 Q 170.112 83.352 168.096 82.452 L 168.096 82.452 L 168.096 82.452 Q 166.08 81.552 163.488 80.688 L 163.488 80.688 L 163.488 80.688 Q 160.896 79.752 158.484 78.636 L 158.484 78.636 L 158.484 78.636 Q 156.072 77.52 154.236 75.864 L 154.236 75.864 L 154.236 75.864 Q 152.4 74.208 151.284 71.904 L 151.284 71.904 L 151.284 71.904 Q 150.168 69.6 150.168 66.36 L 150.168 66.36 L 150.168 66.36 Q 150.168 59.592 154.848 55.74 L 154.848 55.74 L 154.848 55.74 Q 159.528 51.887 167.592 51.887 L 167.592 51.887 L 167.592 51.887 Q 172.272 51.887 175.908 52.932 L 175.908 52.932 L 175.908 52.932 Q 179.544 53.976 181.632 55.2 L 181.632 55.2 L 178.824 62.544 L 178.824 62.544 Q 176.376 61.176 173.46 60.456 L 173.46 60.456 L 173.46 60.456 Q 170.544 59.736 167.448 59.736 L 167.448 59.736 L 167.448 59.736 Q 163.776 59.736 161.724 61.248 L 161.724 61.248 L 161.724 61.248 Q 159.672 62.76 159.672 65.495 L 159.672 65.495 L 159.672 65.495 Q 159.672 67.152 160.356 68.34 L 160.356 68.34 L 160.356 68.34 Q 161.04 69.528 162.3 70.464 L 162.3 70.464 L 162.3 70.464 Q 163.56 71.4 165.252 72.192 L 165.252 72.192 L 165.252 72.192 Q 166.944 72.983 168.96 73.704 L 168.96 73.704 L 168.96 73.704 Q 172.488 75 175.26 76.332 L 175.26 76.332 L 175.26 76.332 Q 178.032 77.664 179.94 79.5 L 179.94 79.5 L 179.94 79.5 Q 181.848 81.336 182.856 83.82 L 182.856 83.82 L 182.856 83.82 Q 183.864 86.304 183.864 89.832 L 183.864 89.832 L 183.864 89.832 Q 183.864 96.6 179.076 100.308 L 179.076 100.308 L 179.076 100.308 Q 174.288 104.016 165.072 104.016 L 165.072 104.016 L 165.072 104.016 Q 161.976 104.016 159.42 103.62 L 159.42 103.62 L 159.42 103.62 Q 156.864 103.224 154.884 102.648 L 154.884 102.648 L 154.884 102.648 Q 152.904 102.072 151.464 101.46 L 151.464 101.46 L 151.464 101.46 Q 150.024 100.848 149.16 100.344 L 149.16 100.344 L 151.824 92.928 L 151.824 92.928 Q 153.768 94.008 157.08 95.088 L 157.08 95.088 L 157.08 95.088 Q 160.392 96.168 165.072 96.168 Z  M 200.208 65.28 L 200.208 102.936 L 191.496 102.936 L 191.496 65.28 L 200.208 65.28 L 200.208 65.28 Z  M 201.144 54.264 L 201.144 54.264 L 201.144 54.264 Q 201.144 56.712 199.56 58.152 L 199.56 58.152 L 199.56 58.152 Q 197.976 59.592 195.816 59.592 L 195.816 59.592 L 195.816 59.592 Q 193.584 59.592 192 58.152 L 192 58.152 L 192 58.152 Q 190.416 56.712 190.416 54.264 L 190.416 54.264 L 190.416 54.264 Q 190.416 51.744 192 50.304 L 192 50.304 L 192 50.304 Q 193.584 48.863 195.816 48.863 L 195.816 48.863 L 195.816 48.863 Q 197.976 48.863 199.56 50.304 L 199.56 50.304 L 199.56 50.304 Q 201.144 51.744 201.144 54.264 Z  M 232.752 102.936 L 232.752 83.136 L 232.752 83.136 Q 232.752 77.232 231.276 74.604 L 231.276 74.604 L 231.276 74.604 Q 229.8 71.976 225.768 71.976 L 225.768 71.976 L 225.768 71.976 Q 224.328 71.976 222.6 72.192 L 222.6 72.192 L 222.6 72.192 Q 220.872 72.408 220.008 72.552 L 220.008 72.552 L 220.008 102.936 L 211.296 102.936 L 211.296 66.504 L 211.296 66.504 Q 213.816 65.784 217.884 65.136 L 217.884 65.136 L 217.884 65.136 Q 221.952 64.488 226.488 64.488 L 226.488 64.488 L 226.488 64.488 Q 230.376 64.488 232.86 65.495 L 232.86 65.495 L 232.86 65.495 Q 235.344 66.504 237 68.16 L 237 68.16 L 237 68.16 Q 237.792 67.584 239.016 66.935 L 239.016 66.935 L 239.016 66.935 Q 240.24 66.288 241.752 65.748 L 241.752 65.748 L 241.752 65.748 Q 243.264 65.208 244.956 64.848 L 244.956 64.848 L 244.956 64.848 Q 246.648 64.488 248.376 64.488 L 248.376 64.488 L 248.376 64.488 Q 252.768 64.488 255.612 65.748 L 255.612 65.748 L 255.612 65.748 Q 258.456 67.008 260.076 69.276 L 260.076 69.276 L 260.076 69.276 Q 261.696 71.544 262.308 74.748 L 262.308 74.748 L 262.308 74.748 Q 262.92 77.952 262.92 81.768 L 262.92 81.768 L 262.92 102.936 L 254.208 102.936 L 254.208 83.136 L 254.208 83.136 Q 254.208 77.232 252.768 74.604 L 252.768 74.604 L 252.768 74.604 Q 251.328 71.976 247.224 71.976 L 247.224 71.976 L 247.224 71.976 Q 245.136 71.976 243.264 72.66 L 243.264 72.66 L 243.264 72.66 Q 241.392 73.344 240.456 73.992 L 240.456 73.992 L 240.456 73.992 Q 241.032 75.792 241.248 77.808 L 241.248 77.808 L 241.248 77.808 Q 241.464 79.824 241.464 82.128 L 241.464 82.128 L 241.464 102.936 L 232.752 102.936 L 232.752 102.936 Z  M 298.56 84.288 L 298.56 84.288 L 298.56 84.288 Q 298.56 78.456 295.932 75.216 L 295.932 75.216 L 295.932 75.216 Q 293.304 71.976 287.472 71.976 L 287.472 71.976 L 287.472 71.976 Q 286.248 71.976 284.916 72.084 L 284.916 72.084 L 284.916 72.084 Q 283.584 72.192 282.288 72.552 L 282.288 72.552 L 282.288 94.08 L 282.288 94.08 Q 283.44 94.872 285.348 95.556 L 285.348 95.556 L 285.348 95.556 Q 287.256 96.24 289.416 96.24 L 289.416 96.24 L 289.416 96.24 Q 294.168 96.24 296.364 93 L 296.364 93 L 296.364 93 Q 298.56 89.76 298.56 84.288 Z  M 307.488 84.144 L 307.488 84.144 L 307.488 84.144 Q 307.488 88.464 306.372 92.064 L 306.372 92.064 L 306.372 92.064 Q 305.256 95.664 303.168 98.256 L 303.168 98.256 L 303.168 98.256 Q 301.08 100.848 297.948 102.288 L 297.948 102.288 L 297.948 102.288 Q 294.816 103.728 290.856 103.728 L 290.856 103.728 L 290.856 103.728 Q 288.192 103.728 285.96 103.08 L 285.96 103.08 L 285.96 103.08 Q 283.728 102.432 282.288 101.64 L 282.288 101.64 L 282.288 116.256 L 273.576 116.256 L 273.576 66.504 L 273.576 66.504 Q 276.24 65.784 280.128 65.136 L 280.128 65.136 L 280.128 65.136 Q 284.016 64.488 288.336 64.488 L 288.336 64.488 L 288.336 64.488 Q 292.8 64.488 296.328 65.856 L 296.328 65.856 L 296.328 65.856 Q 299.856 67.224 302.34 69.78 L 302.34 69.78 L 302.34 69.78 Q 304.824 72.336 306.156 75.972 L 306.156 75.972 L 306.156 75.972 Q 307.488 79.608 307.488 84.144 Z  M 330.816 96.456 L 329.592 103.656 L 329.592 103.656 Q 325.704 103.584 323.148 102.792 L 323.148 102.792 L 323.148 102.792 Q 320.592 102 319.08 100.524 L 319.08 100.524 L 319.08 100.524 Q 317.568 99.048 316.956 96.852 L 316.956 96.852 L 316.956 96.852 Q 316.344 94.656 316.344 91.848 L 316.344 91.848 L 316.344 48.503 L 325.056 47.064 L 325.056 90.192 L 325.056 90.192 Q 325.056 91.776 325.308 92.856 L 325.308 92.856 L 325.308 92.856 Q 325.56 93.936 326.208 94.692 L 326.208 94.692 L 326.208 94.692 Q 326.856 95.448 327.972 95.844 L 327.972 95.844 L 327.972 95.844 Q 329.088 96.24 330.816 96.456 L 330.816 96.456 L 330.816 96.456 Z  M 359.616 65.28 L 368.616 65.28 L 368.616 65.28 Q 362.795 86.736 355.105 104.16 L 355.105 104.16 L 355.105 104.16 Q 353.664 107.4 352.15 109.704 L 352.15 109.704 L 352.15 109.704 Q 350.636 112.008 348.762 113.52 L 348.762 113.52 L 348.762 113.52 Q 346.888 115.032 344.582 115.716 L 344.582 115.716 L 344.582 115.716 Q 342.275 116.4 339.248 116.4 L 339.248 116.4 L 339.248 116.4 Q 337.23 116.4 335.247 115.968 L 335.247 115.968 L 335.247 115.968 Q 333.265 115.536 332.256 115.032 L 332.256 115.032 L 333.84 108.048 L 333.84 108.048 Q 336.43 109.056 338.947 109.056 L 338.947 109.056 L 338.947 109.056 Q 342.328 109.056 344.234 107.436 L 344.234 107.436 L 344.234 107.436 Q 346.14 105.816 347.579 102.432 L 347.579 102.432 L 347.579 102.432 Q 343.479 94.512 339.702 85.152 L 339.702 85.152 L 339.702 85.152 Q 335.925 75.792 332.976 65.28 L 332.976 65.28 L 342.264 65.28 L 342.264 65.28 Q 342.987 68.304 344.035 71.832 L 344.035 71.832 L 344.035 71.832 Q 345.083 75.36 346.312 78.996 L 346.312 78.996 L 346.312 78.996 Q 347.54 82.632 348.913 86.232 L 348.913 86.232 L 348.913 86.232 Q 350.287 89.832 351.66 92.928 L 351.66 92.928 L 351.66 92.928 Q 353.954 86.52 355.961 79.284 L 355.961 79.284 L 355.961 79.284 Q 357.967 72.048 359.616 65.28 L 359.616 65.28 L 359.616 65.28 Z " fill="rgb(48,48,48)"/><g><circle vector-effect="non-scaling-stroke" cx="70.5" cy="76.1875" r="62.5" fill="rgb(193,234,197)" stroke-width="4" stroke="rgb(123,196,127)" stroke-linejoin="miter" stroke-linecap="square" stroke-miterlimit="3"/><g><path d=" M 124.89 72.077 L 124.89 77.358 L 106.83 84.945 L 105.192 79.863 L 118.38 74.718 L 105.192 69.573 L 106.83 64.49 L 124.89 72.077 Z  M 57.228 82.802 L 57.228 82.802 L 57.228 82.802 Q 58.95 82.802 59.664 82.467 L 59.664 82.467 L 59.664 82.467 Q 60.378 82.131 60.378 81.165 L 60.378 81.165 L 60.378 81.165 Q 60.378 80.408 59.454 79.842 L 59.454 79.842 L 59.454 79.842 Q 58.53 79.275 56.64 78.561 L 56.64 78.561 L 56.64 78.561 Q 55.17 78.014 53.973 77.427 L 53.973 77.427 L 53.973 77.427 Q 52.776 76.839 51.936 76.02 L 51.936 76.02 L 51.936 76.02 Q 51.096 75.2 50.634 74.067 L 50.634 74.067 L 50.634 74.067 Q 50.172 72.932 50.172 71.337 L 50.172 71.337 L 50.172 71.337 Q 50.172 68.229 52.482 66.423 L 52.482 66.423 L 52.482 66.423 Q 54.792 64.616 58.824 64.616 L 58.824 64.616 L 58.824 64.616 Q 60.84 64.616 62.688 64.973 L 62.688 64.973 L 62.688 64.973 Q 64.536 65.331 65.628 65.751 L 65.628 65.751 L 64.536 70.623 L 64.536 70.623 Q 63.444 70.244 62.163 69.95 L 62.163 69.95 L 62.163 69.95 Q 60.882 69.656 59.286 69.656 L 59.286 69.656 L 59.286 69.656 Q 56.346 69.656 56.346 71.295 L 56.346 71.295 L 56.346 71.295 Q 56.346 71.673 56.472 71.967 L 56.472 71.967 L 56.472 71.967 Q 56.598 72.26 56.976 72.533 L 56.976 72.533 L 56.976 72.533 Q 57.354 72.806 58.005 73.12 L 58.005 73.12 L 58.005 73.12 Q 58.656 73.433 59.664 73.809 L 59.664 73.809 L 59.664 73.809 Q 61.722 74.56 63.066 75.291 L 63.066 75.291 L 63.066 75.291 Q 64.41 76.022 65.187 76.884 L 65.187 76.884 L 65.187 76.884 Q 65.964 77.746 66.279 78.798 L 66.279 78.798 L 66.279 78.798 Q 66.594 79.85 66.594 81.238 L 66.594 81.238 L 66.594 81.238 Q 66.594 84.519 64.137 86.202 L 64.137 86.202 L 64.137 86.202 Q 61.68 87.885 57.186 87.885 L 57.186 87.885 L 57.186 87.885 Q 54.246 87.885 52.293 87.381 L 52.293 87.381 L 52.293 87.381 Q 50.34 86.877 49.584 86.541 L 49.584 86.541 L 50.634 81.459 L 50.634 81.459 Q 52.23 82.089 53.91 82.446 L 53.91 82.446 L 53.91 82.446 Q 55.59 82.802 57.228 82.802 Z  M 71.256 87.297 L 71.256 65.961 L 71.256 65.961 Q 72.852 65.499 75.372 65.1 L 75.372 65.1 L 75.372 65.1 Q 77.892 64.7 80.664 64.7 L 80.664 64.7 L 80.664 64.7 Q 83.478 64.7 85.347 65.436 L 85.347 65.436 L 85.347 65.436 Q 87.216 66.171 88.308 67.514 L 88.308 67.514 L 88.308 67.514 Q 89.4 68.859 89.862 70.707 L 89.862 70.707 L 89.862 70.707 Q 90.324 72.554 90.324 74.823 L 90.324 74.823 L 90.324 87.297 L 84.066 87.297 L 84.066 75.578 L 84.066 75.578 Q 84.066 72.554 83.268 71.295 L 83.268 71.295 L 83.268 71.295 Q 82.47 70.034 80.286 70.034 L 80.286 70.034 L 80.286 70.034 Q 79.614 70.034 78.858 70.097 L 78.858 70.097 L 78.858 70.097 Q 78.102 70.16 77.514 70.244 L 77.514 70.244 L 77.514 87.297 L 71.256 87.297 Z  M 16.11 77.358 L 16.11 72.077 L 34.17 64.49 L 35.808 69.573 L 22.62 74.718 L 35.808 79.863 L 34.17 84.945 L 16.11 77.358 Z " fill="rgb(5,64,10)"/></g></g></svg>