<?xml version="1.0" standalone="no"?><!-- Generator: Gravit.io --><svg xmlns="http://www.w3.org/2000/svg" xmlns:xlink="http://www.w3.org/1999/xlink" style="isolation:isolate" viewBox="0 0 755.75 152.375" width="755.75" height="152.375"><defs><clipPath id="_clipPath_pov2lczoyUbW9953oJk08umMxTffMVTr"><rect width="755.75" height="152.375"/></clipPath></defs><g clip-path="url(#_clipPath_pov2lczoyUbW9953oJk08umMxTffMVTr)"><path d=" M 436.526 102.936 L 428.822 102.936 L 428.822 102.936 Q 426.374 98.832 423.35 94.116 L 423.35 94.116 L 423.35 94.116 Q 420.326 89.4 417.086 84.612 L 417.086 84.612 L 417.086 84.612 Q 413.846 79.824 410.498 75.324 L 410.498 75.324 L 410.498 75.324 Q 407.15 70.824 404.126 67.224 L 404.126 67.224 L 404.126 102.936 L 395.198 102.936 L 395.198 53.04 L 402.614 53.04 L 402.614 53.04 Q 405.494 56.064 408.806 60.204 L 408.806 60.204 L 408.806 60.204 Q 412.118 64.344 415.466 68.808 L 415.466 68.808 L 415.466 68.808 Q 418.814 73.272 421.946 77.772 L 421.946 77.772 L 421.946 77.772 Q 425.078 82.272 427.526 86.16 L 427.526 86.16 L 427.526 53.04 L 436.526 53.04 L 436.526 102.936 L 436.526 102.936 Z  M 461.294 96.816 L 461.294 96.816 L 461.294 96.816 Q 465.326 96.816 467.414 96.384 L 467.414 96.384 L 467.414 86.736 L 467.414 86.736 Q 466.694 86.52 465.326 86.304 L 465.326 86.304 L 465.326 86.304 Q 463.958 86.088 462.302 86.088 L 462.302 86.088 L 462.302 86.088 Q 460.862 86.088 459.386 86.304 L 459.386 86.304 L 459.386 86.304 Q 457.91 86.52 456.722 87.096 L 456.722 87.096 L 456.722 87.096 Q 455.534 87.672 454.814 88.716 L 454.814 88.716 L 454.814 88.716 Q 454.094 89.76 454.094 91.344 L 454.094 91.344 L 454.094 91.344 Q 454.094 94.44 456.038 95.628 L 456.038 95.628 L 456.038 95.628 Q 457.982 96.816 461.294 96.816 Z  M 460.574 64.344 L 460.574 64.344 L 460.574 64.344 Q 464.894 64.344 467.846 65.423 L 467.846 65.423 L 467.846 65.423 Q 470.798 66.504 472.562 68.447 L 472.562 68.447 L 472.562 68.447 Q 474.326 70.392 475.082 73.164 L 475.082 73.164 L 475.082 73.164 Q 475.838 75.936 475.838 79.248 L 475.838 79.248 L 475.838 102.072 L 475.838 102.072 Q 473.822 102.504 469.754 103.116 L 469.754 103.116 L 469.754 103.116 Q 465.686 103.728 460.574 103.728 L 460.574 103.728 L 460.574 103.728 Q 457.19 103.728 454.382 103.08 L 454.382 103.08 L 454.382 103.08 Q 451.574 102.432 449.594 100.992 L 449.594 100.992 L 449.594 100.992 Q 447.614 99.552 446.498 97.248 L 446.498 97.248 L 446.498 97.248 Q 445.382 94.944 445.382 91.56 L 445.382 91.56 L 445.382 91.56 Q 445.382 88.32 446.642 86.088 L 446.642 86.088 L 446.642 86.088 Q 447.902 83.856 450.062 82.452 L 450.062 82.452 L 450.062 82.452 Q 452.222 81.048 455.066 80.436 L 455.066 80.436 L 455.066 80.436 Q 457.91 79.824 461.006 79.824 L 461.006 79.824 L 461.006 79.824 Q 462.446 79.824 464.03 80.004 L 464.03 80.004 L 464.03 80.004 Q 465.614 80.184 467.414 80.616 L 467.414 80.616 L 467.414 79.176 L 467.414 79.176 Q 467.414 77.664 467.054 76.296 L 467.054 76.296 L 467.054 76.296 Q 466.694 74.928 465.794 73.884 L 465.794 73.884 L 465.794 73.884 Q 464.894 72.84 463.418 72.264 L 463.418 72.264 L 463.418 72.264 Q 461.942 71.688 459.71 71.688 L 459.71 71.688 L 459.71 71.688 Q 456.686 71.688 454.166 72.12 L 454.166 72.12 L 454.166 72.12 Q 451.646 72.552 450.062 73.128 L 450.062 73.128 L 448.982 66.072 L 448.982 66.072 Q 450.638 65.495 453.806 64.92 L 453.806 64.92 L 453.806 64.92 Q 456.974 64.344 460.574 64.344 Z  M 502.783 102.936 L 495.189 102.936 L 495.189 102.936 Q 491.594 95.52 487.818 85.908 L 487.818 85.908 L 487.818 85.908 Q 484.042 76.296 480.95 65.28 L 480.95 65.28 L 490.238 65.28 L 490.238 65.28 Q 491.033 68.447 492.081 72.084 L 492.081 72.084 L 492.081 72.084 Q 493.13 75.72 494.323 79.356 L 494.323 79.356 L 494.323 79.356 Q 495.515 82.992 496.78 86.412 L 496.78 86.412 L 496.78 86.412 Q 498.046 89.832 499.13 92.568 L 499.13 92.568 L 499.13 92.568 Q 500.214 89.832 501.443 86.412 L 501.443 86.412 L 501.443 86.412 Q 502.672 82.992 503.865 79.356 L 503.865 79.356 L 503.865 79.356 Q 505.058 75.72 506.142 72.084 L 506.142 72.084 L 506.142 72.084 Q 507.227 68.447 508.022 65.28 L 508.022 65.28 L 517.022 65.28 L 517.022 65.28 Q 513.93 76.296 510.154 85.908 L 510.154 85.908 L 510.154 85.908 Q 506.378 95.52 502.783 102.936 L 502.783 102.936 L 502.783 102.936 Z  M 532.214 65.28 L 532.214 102.936 L 523.502 102.936 L 523.502 65.28 L 532.214 65.28 L 532.214 65.28 Z  M 533.15 54.264 L 533.15 54.264 L 533.15 54.264 Q 533.15 56.712 531.566 58.152 L 531.566 58.152 L 531.566 58.152 Q 529.982 59.592 527.822 59.592 L 527.822 59.592 L 527.822 59.592 Q 525.59 59.592 524.006 58.152 L 524.006 58.152 L 524.006 58.152 Q 522.422 56.712 522.422 54.264 L 522.422 54.264 L 522.422 54.264 Q 522.422 51.744 524.006 50.304 L 524.006 50.304 L 524.006 50.304 Q 525.59 48.863 527.822 48.863 L 527.822 48.863 L 527.822 48.863 Q 529.982 48.863 531.566 50.304 L 531.566 50.304 L 531.566 50.304 Q 533.15 51.744 533.15 54.264 Z  M 550.142 83.136 L 550.142 83.136 L 550.142 83.136 Q 550.142 88.68 552.554 91.236 L 552.554 91.236 L 552.554 91.236 Q 554.966 93.792 558.782 93.792 L 558.782 93.792 L 558.782 93.792 Q 560.87 93.792 562.706 93.216 L 562.706 93.216 L 562.706 93.216 Q 564.542 92.64 565.694 91.848 L 565.694 91.848 L 565.694 72.336 L 565.694 72.336 Q 564.758 72.12 563.39 71.94 L 563.39 71.94 L 563.39 71.94 Q 562.022 71.76 559.934 71.76 L 559.934 71.76 L 559.934 71.76 Q 555.182 71.76 552.662 74.892 L 552.662 74.892 L 552.662 74.892 Q 550.142 78.024 550.142 83.136 Z  M 574.406 66.504 L 574.406 99.12 L 574.406 99.12 Q 574.406 108.12 569.834 112.296 L 569.834 112.296 L 569.834 112.296 Q 565.262 116.472 555.83 116.472 L 555.83 116.472 L 555.83 116.472 Q 552.374 116.472 549.098 115.896 L 549.098 115.896 L 549.098 115.896 Q 545.822 115.32 543.158 114.384 L 543.158 114.384 L 544.742 106.968 L 544.742 106.968 Q 546.974 107.904 549.818 108.48 L 549.818 108.48 L 549.818 108.48 Q 552.662 109.056 555.974 109.056 L 555.974 109.056 L 555.974 109.056 Q 561.23 109.056 563.462 106.896 L 563.462 106.896 L 563.462 106.896 Q 565.694 104.736 565.694 100.488 L 565.694 100.488 L 565.694 99.048 L 565.694 99.048 Q 564.398 99.696 562.274 100.344 L 562.274 100.344 L 562.274 100.344 Q 560.15 100.992 557.414 100.992 L 557.414 100.992 L 557.414 100.992 Q 553.814 100.992 550.826 99.84 L 550.826 99.84 L 550.826 99.84 Q 547.838 98.688 545.714 96.456 L 545.714 96.456 L 545.714 96.456 Q 543.59 94.224 542.402 90.876 L 542.402 90.876 L 542.402 90.876 Q 541.214 87.528 541.214 83.136 L 541.214 83.136 L 541.214 83.136 Q 541.214 79.032 542.474 75.576 L 542.474 75.576 L 542.474 75.576 Q 543.734 72.12 546.146 69.672 L 546.146 69.672 L 546.146 69.672 Q 548.558 67.224 552.014 65.856 L 552.014 65.856 L 552.014 65.856 Q 555.47 64.488 559.862 64.488 L 559.862 64.488 L 559.862 64.488 Q 564.11 64.488 567.926 65.136 L 567.926 65.136 L 567.926 65.136 Q 571.742 65.784 574.406 66.504 L 574.406 66.504 L 574.406 66.504 Z  M 598.742 96.816 L 598.742 96.816 L 598.742 96.816 Q 602.774 96.816 604.862 96.384 L 604.862 96.384 L 604.862 86.736 L 604.862 86.736 Q 604.142 86.52 602.774 86.304 L 602.774 86.304 L 602.774 86.304 Q 601.406 86.088 599.75 86.088 L 599.75 86.088 L 599.75 86.088 Q 598.31 86.088 596.834 86.304 L 596.834 86.304 L 596.834 86.304 Q 595.358 86.52 594.17 87.096 L 594.17 87.096 L 594.17 87.096 Q 592.982 87.672 592.262 88.716 L 592.262 88.716 L 592.262 88.716 Q 591.542 89.76 591.542 91.344 L 591.542 91.344 L 591.542 91.344 Q 591.542 94.44 593.486 95.628 L 593.486 95.628 L 593.486 95.628 Q 595.43 96.816 598.742 96.816 Z  M 598.022 64.344 L 598.022 64.344 L 598.022 64.344 Q 602.342 64.344 605.294 65.423 L 605.294 65.423 L 605.294 65.423 Q 608.246 66.504 610.01 68.447 L 610.01 68.447 L 610.01 68.447 Q 611.774 70.392 612.53 73.164 L 612.53 73.164 L 612.53 73.164 Q 613.286 75.936 613.286 79.248 L 613.286 79.248 L 613.286 102.072 L 613.286 102.072 Q 611.27 102.504 607.202 103.116 L 607.202 103.116 L 607.202 103.116 Q 603.134 103.728 598.022 103.728 L 598.022 103.728 L 598.022 103.728 Q 594.638 103.728 591.83 103.08 L 591.83 103.08 L 591.83 103.08 Q 589.022 102.432 587.042 100.992 L 587.042 100.992 L 587.042 100.992 Q 585.062 99.552 583.946 97.248 L 583.946 97.248 L 583.946 97.248 Q 582.83 94.944 582.83 91.56 L 582.83 91.56 L 582.83 91.56 Q 582.83 88.32 584.09 86.088 L 584.09 86.088 L 584.09 86.088 Q 585.35 83.856 587.51 82.452 L 587.51 82.452 L 587.51 82.452 Q 589.67 81.048 592.514 80.436 L 592.514 80.436 L 592.514 80.436 Q 595.358 79.824 598.454 79.824 L 598.454 79.824 L 598.454 79.824 Q 599.894 79.824 601.478 80.004 L 601.478 80.004 L 601.478 80.004 Q 603.062 80.184 604.862 80.616 L 604.862 80.616 L 604.862 79.176 L 604.862 79.176 Q 604.862 77.664 604.502 76.296 L 604.502 76.296 L 604.502 76.296 Q 604.142 74.928 603.242 73.884 L 603.242 73.884 L 603.242 73.884 Q 602.342 72.84 600.866 72.264 L 600.866 72.264 L 600.866 72.264 Q 599.39 71.688 597.158 71.688 L 597.158 71.688 L 597.158 71.688 Q 594.134 71.688 591.614 72.12 L 591.614 72.12 L 591.614 72.12 Q 589.094 72.552 587.51 73.128 L 587.51 73.128 L 586.43 66.072 L 586.43 66.072 Q 588.086 65.495 591.254 64.92 L 591.254 64.92 L 591.254 64.92 Q 594.422 64.344 598.022 64.344 Z  M 623.51 87.96 L 623.51 55.344 L 632.222 53.904 L 632.222 65.28 L 645.614 65.28 L 645.614 72.552 L 632.222 72.552 L 632.222 87.888 L 632.222 87.888 Q 632.222 92.424 633.662 94.368 L 633.662 94.368 L 633.662 94.368 Q 635.102 96.312 638.558 96.312 L 638.558 96.312 L 638.558 96.312 Q 640.934 96.312 642.77 95.808 L 642.77 95.808 L 642.77 95.808 Q 644.606 95.304 645.686 94.872 L 645.686 94.872 L 647.126 101.784 L 647.126 101.784 Q 645.614 102.432 643.166 103.116 L 643.166 103.116 L 643.166 103.116 Q 640.718 103.8 637.406 103.8 L 637.406 103.8 L 637.406 103.8 Q 633.374 103.8 630.674 102.72 L 630.674 102.72 L 630.674 102.72 Q 627.974 101.64 626.39 99.588 L 626.39 99.588 L 626.39 99.588 Q 624.806 97.536 624.158 94.62 L 624.158 94.62 L 624.158 94.62 Q 623.51 91.704 623.51 87.96 L 623.51 87.96 L 623.51 87.96 Z  M 662.822 65.28 L 662.822 102.936 L 654.11 102.936 L 654.11 65.28 L 662.822 65.28 L 662.822 65.28 Z  M 663.758 54.264 L 663.758 54.264 L 663.758 54.264 Q 663.758 56.712 662.174 58.152 L 662.174 58.152 L 662.174 58.152 Q 660.59 59.592 658.43 59.592 L 658.43 59.592 L 658.43 59.592 Q 656.198 59.592 654.614 58.152 L 654.614 58.152 L 654.614 58.152 Q 653.03 56.712 653.03 54.264 L 653.03 54.264 L 653.03 54.264 Q 653.03 51.744 654.614 50.304 L 654.614 50.304 L 654.614 50.304 Q 656.198 48.863 658.43 48.863 L 658.43 48.863 L 658.43 48.863 Q 660.59 48.863 662.174 50.304 L 662.174 50.304 L 662.174 50.304 Q 663.758 51.744 663.758 54.264 Z  M 707.966 84.072 L 707.966 84.072 L 707.966 84.072 Q 707.966 88.536 706.67 92.208 L 706.67 92.208 L 706.67 92.208 Q 705.374 95.88 702.998 98.472 L 702.998 98.472 L 702.998 98.472 Q 700.622 101.064 697.274 102.504 L 697.274 102.504 L 697.274 102.504 Q 693.926 103.944 689.894 103.944 L 689.894 103.944 L 689.894 103.944 Q 685.862 103.944 682.55 102.504 L 682.55 102.504 L 682.55 102.504 Q 679.238 101.064 676.862 98.472 L 676.862 98.472 L 676.862 98.472 Q 674.486 95.88 673.154 92.208 L 673.154 92.208 L 673.154 92.208 Q 671.822 88.536 671.822 84.072 L 671.822 84.072 L 671.822 84.072 Q 671.822 79.608 673.154 75.972 L 673.154 75.972 L 673.154 75.972 Q 674.486 72.336 676.898 69.744 L 676.898 69.744 L 676.898 69.744 Q 679.31 67.152 682.622 65.748 L 682.622 65.748 L 682.622 65.748 Q 685.934 64.344 689.894 64.344 L 689.894 64.344 L 689.894 64.344 Q 693.854 64.344 697.202 65.748 L 697.202 65.748 L 697.202 65.748 Q 700.55 67.152 702.926 69.744 L 702.926 69.744 L 702.926 69.744 Q 705.302 72.336 706.634 75.972 L 706.634 75.972 L 706.634 75.972 Q 707.966 79.608 707.966 84.072 Z  M 699.038 84.072 L 699.038 84.072 L 699.038 84.072 Q 699.038 78.456 696.626 75.18 L 696.626 75.18 L 696.626 75.18 Q 694.214 71.904 689.894 71.904 L 689.894 71.904 L 689.894 71.904 Q 685.574 71.904 683.162 75.18 L 683.162 75.18 L 683.162 75.18 Q 680.75 78.456 680.75 84.072 L 680.75 84.072 L 680.75 84.072 Q 680.75 89.76 683.162 93.072 L 683.162 93.072 L 683.162 93.072 Q 685.574 96.384 689.894 96.384 L 689.894 96.384 L 689.894 96.384 Q 694.214 96.384 696.626 93.072 L 696.626 93.072 L 696.626 93.072 Q 699.038 89.76 699.038 84.072 Z  M 716.966 102.936 L 716.966 66.504 L 716.966 66.504 Q 719.486 65.784 723.518 65.136 L 723.518 65.136 L 723.518 65.136 Q 727.55 64.488 732.446 64.488 L 732.446 64.488 L 732.446 64.488 Q 737.054 64.488 740.15 65.748 L 740.15 65.748 L 740.15 65.748 Q 743.246 67.008 745.082 69.276 L 745.082 69.276 L 745.082 69.276 Q 746.918 71.544 747.674 74.748 L 747.674 74.748 L 747.674 74.748 Q 748.43 77.952 748.43 81.768 L 748.43 81.768 L 748.43 102.936 L 739.718 102.936 L 739.718 83.136 L 739.718 83.136 Q 739.718 80.112 739.322 77.988 L 739.322 77.988 L 739.322 77.988 Q 738.926 75.864 738.026 74.532 L 738.026 74.532 L 738.026 74.532 Q 737.126 73.2 735.578 72.588 L 735.578 72.588 L 735.578 72.588 Q 734.03 71.976 731.798 71.976 L 731.798 71.976 L 731.798 71.976 Q 730.142 71.976 728.342 72.192 L 728.342 72.192 L 728.342 72.192 Q 726.542 72.408 725.678 72.552 L 725.678 72.552 L 725.678 102.936 L 716.966 102.936 L 716.966 102.936 Z  M 167.822 96.168 L 167.822 96.168 L 167.822 96.168 Q 172.718 96.168 174.95 94.512 L 174.95 94.512 L 174.95 94.512 Q 177.182 92.856 177.182 89.832 L 177.182 89.832 L 177.182 89.832 Q 177.182 88.032 176.426 86.736 L 176.426 86.736 L 176.426 86.736 Q 175.67 85.44 174.266 84.396 L 174.266 84.396 L 174.266 84.396 Q 172.862 83.352 170.846 82.452 L 170.846 82.452 L 170.846 82.452 Q 168.83 81.552 166.238 80.688 L 166.238 80.688 L 166.238 80.688 Q 163.646 79.752 161.234 78.636 L 161.234 78.636 L 161.234 78.636 Q 158.822 77.52 156.986 75.864 L 156.986 75.864 L 156.986 75.864 Q 155.15 74.208 154.034 71.904 L 154.034 71.904 L 154.034 71.904 Q 152.918 69.6 152.918 66.36 L 152.918 66.36 L 152.918 66.36 Q 152.918 59.592 157.598 55.74 L 157.598 55.74 L 157.598 55.74 Q 162.278 51.887 170.342 51.887 L 170.342 51.887 L 170.342 51.887 Q 175.022 51.887 178.658 52.932 L 178.658 52.932 L 178.658 52.932 Q 182.294 53.976 184.382 55.2 L 184.382 55.2 L 181.574 62.544 L 181.574 62.544 Q 179.126 61.176 176.21 60.456 L 176.21 60.456 L 176.21 60.456 Q 173.294 59.736 170.198 59.736 L 170.198 59.736 L 170.198 59.736 Q 166.526 59.736 164.474 61.248 L 164.474 61.248 L 164.474 61.248 Q 162.422 62.76 162.422 65.495 L 162.422 65.495 L 162.422 65.495 Q 162.422 67.152 163.106 68.34 L 163.106 68.34 L 163.106 68.34 Q 163.79 69.528 165.05 70.464 L 165.05 70.464 L 165.05 70.464 Q 166.31 71.4 168.002 72.192 L 168.002 72.192 L 168.002 72.192 Q 169.694 72.983 171.71 73.704 L 171.71 73.704 L 171.71 73.704 Q 175.238 75 178.01 76.332 L 178.01 76.332 L 178.01 76.332 Q 180.782 77.664 182.69 79.5 L 182.69 79.5 L 182.69 79.5 Q 184.598 81.336 185.606 83.82 L 185.606 83.82 L 185.606 83.82 Q 186.614 86.304 186.614 89.832 L 186.614 89.832 L 186.614 89.832 Q 186.614 96.6 181.826 100.308 L 181.826 100.308 L 181.826 100.308 Q 177.038 104.016 167.822 104.016 L 167.822 104.016 L 167.822 104.016 Q 164.726 104.016 162.17 103.62 L 162.17 103.62 L 162.17 103.62 Q 159.614 103.224 157.634 102.648 L 157.634 102.648 L 157.634 102.648 Q 155.654 102.072 154.214 101.46 L 154.214 101.46 L 154.214 101.46 Q 152.774 100.848 151.91 100.344 L 151.91 100.344 L 154.574 92.928 L 154.574 92.928 Q 156.518 94.008 159.83 95.088 L 159.83 95.088 L 159.83 95.088 Q 163.142 96.168 167.822 96.168 Z  M 202.958 65.28 L 202.958 102.936 L 194.246 102.936 L 194.246 65.28 L 202.958 65.28 L 202.958 65.28 Z  M 203.894 54.264 L 203.894 54.264 L 203.894 54.264 Q 203.894 56.712 202.31 58.152 L 202.31 58.152 L 202.31 58.152 Q 200.726 59.592 198.566 59.592 L 198.566 59.592 L 198.566 59.592 Q 196.334 59.592 194.75 58.152 L 194.75 58.152 L 194.75 58.152 Q 193.166 56.712 193.166 54.264 L 193.166 54.264 L 193.166 54.264 Q 193.166 51.744 194.75 50.304 L 194.75 50.304 L 194.75 50.304 Q 196.334 48.863 198.566 48.863 L 198.566 48.863 L 198.566 48.863 Q 200.726 48.863 202.31 50.304 L 202.31 50.304 L 202.31 50.304 Q 203.894 51.744 203.894 54.264 Z  M 235.502 102.936 L 235.502 83.136 L 235.502 83.136 Q 235.502 77.232 234.026 74.604 L 234.026 74.604 L 234.026 74.604 Q 232.55 71.976 228.518 71.976 L 228.518 71.976 L 228.518 71.976 Q 227.078 71.976 225.35 72.192 L 225.35 72.192 L 225.35 72.192 Q 223.622 72.408 222.758 72.552 L 222.758 72.552 L 222.758 102.936 L 214.046 102.936 L 214.046 66.504 L 214.046 66.504 Q 216.566 65.784 220.634 65.136 L 220.634 65.136 L 220.634 65.136 Q 224.702 64.488 229.238 64.488 L 229.238 64.488 L 229.238 64.488 Q 233.126 64.488 235.61 65.495 L 235.61 65.495 L 235.61 65.495 Q 238.094 66.504 239.75 68.16 L 239.75 68.16 L 239.75 68.16 Q 240.542 67.584 241.766 66.935 L 241.766 66.935 L 241.766 66.935 Q 242.99 66.288 244.502 65.748 L 244.502 65.748 L 244.502 65.748 Q 246.014 65.208 247.706 64.848 L 247.706 64.848 L 247.706 64.848 Q 249.398 64.488 251.126 64.488 L 251.126 64.488 L 251.126 64.488 Q 255.518 64.488 258.362 65.748 L 258.362 65.748 L 258.362 65.748 Q 261.206 67.008 262.826 69.276 L 262.826 69.276 L 262.826 69.276 Q 264.446 71.544 265.058 74.748 L 265.058 74.748 L 265.058 74.748 Q 265.67 77.952 265.67 81.768 L 265.67 81.768 L 265.67 102.936 L 256.958 102.936 L 256.958 83.136 L 256.958 83.136 Q 256.958 77.232 255.518 74.604 L 255.518 74.604 L 255.518 74.604 Q 254.078 71.976 249.974 71.976 L 249.974 71.976 L 249.974 71.976 Q 247.886 71.976 246.014 72.66 L 246.014 72.66 L 246.014 72.66 Q 244.142 73.344 243.206 73.992 L 243.206 73.992 L 243.206 73.992 Q 243.782 75.792 243.998 77.808 L 243.998 77.808 L 243.998 77.808 Q 244.214 79.824 244.214 82.128 L 244.214 82.128 L 244.214 102.936 L 235.502 102.936 L 235.502 102.936 Z  M 301.31 84.288 L 301.31 84.288 L 301.31 84.288 Q 301.31 78.456 298.682 75.216 L 298.682 75.216 L 298.682 75.216 Q 296.054 71.976 290.222 71.976 L 290.222 71.976 L 290.222 71.976 Q 288.998 71.976 287.666 72.084 L 287.666 72.084 L 287.666 72.084 Q 286.334 72.192 285.038 72.552 L 285.038 72.552 L 285.038 94.08 L 285.038 94.08 Q 286.19 94.872 288.098 95.556 L 288.098 95.556 L 288.098 95.556 Q 290.006 96.24 292.166 96.24 L 292.166 96.24 L 292.166 96.24 Q 296.918 96.24 299.114 93 L 299.114 93 L 299.114 93 Q 301.31 89.76 301.31 84.288 Z  M 310.238 84.144 L 310.238 84.144 L 310.238 84.144 Q 310.238 88.464 309.122 92.064 L 309.122 92.064 L 309.122 92.064 Q 308.006 95.664 305.918 98.256 L 305.918 98.256 L 305.918 98.256 Q 303.83 100.848 300.698 102.288 L 300.698 102.288 L 300.698 102.288 Q 297.566 103.728 293.606 103.728 L 293.606 103.728 L 293.606 103.728 Q 290.942 103.728 288.71 103.08 L 288.71 103.08 L 288.71 103.08 Q 286.478 102.432 285.038 101.64 L 285.038 101.64 L 285.038 116.256 L 276.326 116.256 L 276.326 66.504 L 276.326 66.504 Q 278.99 65.784 282.878 65.136 L 282.878 65.136 L 282.878 65.136 Q 286.766 64.488 291.086 64.488 L 291.086 64.488 L 291.086 64.488 Q 295.55 64.488 299.078 65.856 L 299.078 65.856 L 299.078 65.856 Q 302.606 67.224 305.09 69.78 L 305.09 69.78 L 305.09 69.78 Q 307.574 72.336 308.906 75.972 L 308.906 75.972 L 308.906 75.972 Q 310.238 79.608 310.238 84.144 Z  M 333.566 96.456 L 332.342 103.656 L 332.342 103.656 Q 328.454 103.584 325.898 102.792 L 325.898 102.792 L 325.898 102.792 Q 323.342 102 321.83 100.524 L 321.83 100.524 L 321.83 100.524 Q 320.318 99.048 319.706 96.852 L 319.706 96.852 L 319.706 96.852 Q 319.094 94.656 319.094 91.848 L 319.094 91.848 L 319.094 48.503 L 327.806 47.064 L 327.806 90.192 L 327.806 90.192 Q 327.806 91.776 328.058 92.856 L 328.058 92.856 L 328.058 92.856 Q 328.31 93.936 328.958 94.692 L 328.958 94.692 L 328.958 94.692 Q 329.606 95.448 330.722 95.844 L 330.722 95.844 L 330.722 95.844 Q 331.838 96.24 333.566 96.456 L 333.566 96.456 L 333.566 96.456 Z  M 362.366 65.28 L 371.366 65.28 L 371.366 65.28 Q 365.545 86.736 357.855 104.16 L 357.855 104.16 L 357.855 104.16 Q 356.414 107.4 354.9 109.704 L 354.9 109.704 L 354.9 109.704 Q 353.386 112.008 351.512 113.52 L 351.512 113.52 L 351.512 113.52 Q 349.638 115.032 347.332 115.716 L 347.332 115.716 L 347.332 115.716 Q 345.025 116.4 341.998 116.4 L 341.998 116.4 L 341.998 116.4 Q 339.98 116.4 337.997 115.968 L 337.997 115.968 L 337.997 115.968 Q 336.015 115.536 335.006 115.032 L 335.006 115.032 L 336.59 108.048 L 336.59 108.048 Q 339.18 109.056 341.697 109.056 L 341.697 109.056 L 341.697 109.056 Q 345.078 109.056 346.984 107.436 L 346.984 107.436 L 346.984 107.436 Q 348.89 105.816 350.329 102.432 L 350.329 102.432 L 350.329 102.432 Q 346.229 94.512 342.452 85.152 L 342.452 85.152 L 342.452 85.152 Q 338.675 75.792 335.726 65.28 L 335.726 65.28 L 345.014 65.28 L 345.014 65.28 Q 345.737 68.304 346.785 71.832 L 346.785 71.832 L 346.785 71.832 Q 347.833 75.36 349.062 78.996 L 349.062 78.996 L 349.062 78.996 Q 350.29 82.632 351.663 86.232 L 351.663 86.232 L 351.663 86.232 Q 353.037 89.832 354.41 92.928 L 354.41 92.928 L 354.41 92.928 Q 356.704 86.52 358.711 79.284 L 358.711 79.284 L 358.711 79.284 Q 360.717 72.048 362.366 65.28 L 362.366 65.28 L 362.366 65.28 Z " fill="rgb(93,93,93)"/><g><circle vector-effect="non-scaling-stroke" cx="62.5" cy="76.1875" r="62.5" fill="rgb(185,185,185)"/><g><path d="M 27.574 94.71 L 97.426 94.71 C 98.275 94.71 98.964 95.399 98.964 96.248 L 98.964 97.149 C 98.964 97.998 98.275 98.688 97.426 98.688 L 27.574 98.688 C 26.725 98.688 26.036 97.998 26.036 97.149 L 26.036 96.248 C 26.036 95.399 26.725 94.71 27.574 94.71 Z" style="stroke:none;fill:#5D5D5D;stroke-miterlimit:10;"/><path d=" M 98.76 73.447 L 98.76 76.968 L 86.72 82.026 L 85.628 78.638 L 94.42 75.208 L 85.628 71.778 L 86.72 68.39 L 98.76 73.447 Z  M 53.652 80.598 L 53.652 80.598 L 53.652 80.598 Q 54.8 80.598 55.276 80.374 L 55.276 80.374 L 55.276 80.374 Q 55.752 80.15 55.752 79.506 L 55.752 79.506 L 55.752 79.506 Q 55.752 79.002 55.136 78.624 L 55.136 78.624 L 55.136 78.624 Q 54.52 78.246 53.26 77.77 L 53.26 77.77 L 53.26 77.77 Q 52.28 77.406 51.482 77.014 L 51.482 77.014 L 51.482 77.014 Q 50.684 76.622 50.124 76.076 L 50.124 76.076 L 50.124 76.076 Q 49.564 75.53 49.256 74.774 L 49.256 74.774 L 49.256 74.774 Q 48.948 74.018 48.948 72.954 L 48.948 72.954 L 48.948 72.954 Q 48.948 70.882 50.488 69.678 L 50.488 69.678 L 50.488 69.678 Q 52.028 68.474 54.716 68.474 L 54.716 68.474 L 54.716 68.474 Q 56.06 68.474 57.292 68.712 L 57.292 68.712 L 57.292 68.712 Q 58.524 68.95 59.252 69.23 L 59.252 69.23 L 58.524 72.478 L 58.524 72.478 Q 57.796 72.226 56.942 72.03 L 56.942 72.03 L 56.942 72.03 Q 56.088 71.834 55.024 71.834 L 55.024 71.834 L 55.024 71.834 Q 53.064 71.834 53.064 72.926 L 53.064 72.926 L 53.064 72.926 Q 53.064 73.178 53.148 73.374 L 53.148 73.374 L 53.148 73.374 Q 53.232 73.57 53.484 73.752 L 53.484 73.752 L 53.484 73.752 Q 53.736 73.934 54.17 74.142 L 54.17 74.142 L 54.17 74.142 Q 54.604 74.351 55.276 74.602 L 55.276 74.602 L 55.276 74.602 Q 56.648 75.103 57.544 75.59 L 57.544 75.59 L 57.544 75.59 Q 58.44 76.077 58.958 76.652 L 58.958 76.652 L 58.958 76.652 Q 59.476 77.227 59.686 77.928 L 59.686 77.928 L 59.686 77.928 Q 59.896 78.629 59.896 79.554 L 59.896 79.554 L 59.896 79.554 Q 59.896 81.742 58.258 82.864 L 58.258 82.864 L 58.258 82.864 Q 56.62 83.986 53.624 83.986 L 53.624 83.986 L 53.624 83.986 Q 51.664 83.986 50.362 83.65 L 50.362 83.65 L 50.362 83.65 Q 49.06 83.314 48.556 83.09 L 48.556 83.09 L 49.256 79.702 L 49.256 79.702 Q 50.32 80.122 51.44 80.36 L 51.44 80.36 L 51.44 80.36 Q 52.56 80.598 53.652 80.598 Z  M 63.004 83.594 L 63.004 69.37 L 63.004 69.37 Q 64.068 69.062 65.748 68.796 L 65.748 68.796 L 65.748 68.796 Q 67.428 68.53 69.276 68.53 L 69.276 68.53 L 69.276 68.53 Q 71.152 68.53 72.398 69.02 L 72.398 69.02 L 72.398 69.02 Q 73.644 69.51 74.372 70.406 L 74.372 70.406 L 74.372 70.406 Q 75.1 71.302 75.408 72.534 L 75.408 72.534 L 75.408 72.534 Q 75.716 73.766 75.716 75.278 L 75.716 75.278 L 75.716 83.594 L 71.544 83.594 L 71.544 75.782 L 71.544 75.782 Q 71.544 73.766 71.012 72.926 L 71.012 72.926 L 71.012 72.926 Q 70.48 72.086 69.024 72.086 L 69.024 72.086 L 69.024 72.086 Q 68.576 72.086 68.072 72.128 L 68.072 72.128 L 68.072 72.128 Q 67.568 72.17 67.176 72.226 L 67.176 72.226 L 67.176 83.594 L 63.004 83.594 Z  M 26.24 76.968 L 26.24 73.447 L 38.28 68.39 L 39.372 71.778 L 30.58 75.208 L 39.372 78.638 L 38.28 82.026 L 26.24 76.968 Z " fill="rgb(93,93,93)"/><path d="M 27.574 53.688 L 97.426 53.688 C 98.275 53.688 98.964 54.377 98.964 55.226 L 98.964 56.127 C 98.964 56.976 98.275 57.665 97.426 57.665 L 27.574 57.665 C 26.725 57.665 26.036 56.976 26.036 56.127 L 26.036 55.226 C 26.036 54.377 26.725 53.688 27.574 53.688 Z" style="stroke:none;fill:#5D5D5D;stroke-miterlimit:10;"/></g></g></g></svg>