<?xml version="1.0" standalone="no"?><!-- Generator: Gravit.io --><svg xmlns="http://www.w3.org/2000/svg" xmlns:xlink="http://www.w3.org/1999/xlink" style="isolation:isolate" viewBox="0 0 1073 225" width="1073" height="225"><defs><clipPath id="_clipPath_nROmkfpA2L0mCU0WeDiMdDrEsqNOYXEu"><rect width="1073" height="225"/></clipPath></defs><g clip-path="url(#_clipPath_nROmkfpA2L0mCU0WeDiMdDrEsqNOYXEu)"><path d=" M 595.151 139.248 L 587.447 139.248 L 587.447 139.248 Q 584.999 135.144 581.975 130.428 L 581.975 130.428 L 581.975 130.428 Q 578.951 125.712 575.711 120.924 L 575.711 120.924 L 575.711 120.924 Q 572.471 116.136 569.123 111.636 L 569.123 111.636 L 569.123 111.636 Q 565.775 107.136 562.751 103.536 L 562.751 103.536 L 562.751 139.248 L 553.823 139.248 L 553.823 89.352 L 561.239 89.352 L 561.239 89.352 Q 564.119 92.376 567.431 96.516 L 567.431 96.516 L 567.431 96.516 Q 570.743 100.656 574.091 105.12 L 574.091 105.12 L 574.091 105.12 Q 577.439 109.584 580.571 114.084 L 580.571 114.084 L 580.571 114.084 Q 583.703 118.584 586.151 122.472 L 586.151 122.472 L 586.151 89.352 L 595.151 89.352 L 595.151 139.248 L 595.151 139.248 Z  M 619.919 133.128 L 619.919 133.128 L 619.919 133.128 Q 623.951 133.128 626.039 132.696 L 626.039 132.696 L 626.039 123.048 L 626.039 123.048 Q 625.319 122.832 623.951 122.616 L 623.951 122.616 L 623.951 122.616 Q 622.583 122.4 620.927 122.4 L 620.927 122.4 L 620.927 122.4 Q 619.487 122.4 618.011 122.616 L 618.011 122.616 L 618.011 122.616 Q 616.535 122.832 615.347 123.408 L 615.347 123.408 L 615.347 123.408 Q 614.159 123.984 613.439 125.028 L 613.439 125.028 L 613.439 125.028 Q 612.719 126.072 612.719 127.656 L 612.719 127.656 L 612.719 127.656 Q 612.719 130.752 614.663 131.94 L 614.663 131.94 L 614.663 131.94 Q 616.607 133.128 619.919 133.128 Z  M 619.199 100.656 L 619.199 100.656 L 619.199 100.656 Q 623.519 100.656 626.471 101.736 L 626.471 101.736 L 626.471 101.736 Q 629.423 102.816 631.187 104.76 L 631.187 104.76 L 631.187 104.76 Q 632.951 106.704 633.707 109.476 L 633.707 109.476 L 633.707 109.476 Q 634.463 112.248 634.463 115.56 L 634.463 115.56 L 634.463 138.384 L 634.463 138.384 Q 632.447 138.816 628.379 139.428 L 628.379 139.428 L 628.379 139.428 Q 624.311 140.04 619.199 140.04 L 619.199 140.04 L 619.199 140.04 Q 615.815 140.04 613.007 139.392 L 613.007 139.392 L 613.007 139.392 Q 610.199 138.744 608.219 137.304 L 608.219 137.304 L 608.219 137.304 Q 606.239 135.864 605.123 133.56 L 605.123 133.56 L 605.123 133.56 Q 604.007 131.256 604.007 127.872 L 604.007 127.872 L 604.007 127.872 Q 604.007 124.632 605.267 122.4 L 605.267 122.4 L 605.267 122.4 Q 606.527 120.168 608.687 118.764 L 608.687 118.764 L 608.687 118.764 Q 610.847 117.36 613.691 116.748 L 613.691 116.748 L 613.691 116.748 Q 616.535 116.136 619.631 116.136 L 619.631 116.136 L 619.631 116.136 Q 621.071 116.136 622.655 116.316 L 622.655 116.316 L 622.655 116.316 Q 624.239 116.496 626.039 116.928 L 626.039 116.928 L 626.039 115.488 L 626.039 115.488 Q 626.039 113.976 625.679 112.608 L 625.679 112.608 L 625.679 112.608 Q 625.319 111.24 624.419 110.196 L 624.419 110.196 L 624.419 110.196 Q 623.519 109.152 622.043 108.576 L 622.043 108.576 L 622.043 108.576 Q 620.567 108 618.335 108 L 618.335 108 L 618.335 108 Q 615.311 108 612.791 108.432 L 612.791 108.432 L 612.791 108.432 Q 610.271 108.864 608.687 109.44 L 608.687 109.44 L 607.607 102.384 L 607.607 102.384 Q 609.263 101.808 612.431 101.232 L 612.431 101.232 L 612.431 101.232 Q 615.599 100.656 619.199 100.656 Z  M 661.408 139.248 L 653.814 139.248 L 653.814 139.248 Q 650.219 131.832 646.443 122.22 L 646.443 122.22 L 646.443 122.22 Q 642.667 112.608 639.575 101.592 L 639.575 101.592 L 648.863 101.592 L 648.863 101.592 Q 649.658 104.76 650.706 108.396 L 650.706 108.396 L 650.706 108.396 Q 651.755 112.032 652.948 115.668 L 652.948 115.668 L 652.948 115.668 Q 654.14 119.304 655.405 122.724 L 655.405 122.724 L 655.405 122.724 Q 656.671 126.144 657.755 128.88 L 657.755 128.88 L 657.755 128.88 Q 658.839 126.144 660.068 122.724 L 660.068 122.724 L 660.068 122.724 Q 661.297 119.304 662.49 115.668 L 662.49 115.668 L 662.49 115.668 Q 663.683 112.032 664.767 108.396 L 664.767 108.396 L 664.767 108.396 Q 665.852 104.76 666.647 101.592 L 666.647 101.592 L 675.647 101.592 L 675.647 101.592 Q 672.555 112.608 668.779 122.22 L 668.779 122.22 L 668.779 122.22 Q 665.003 131.832 661.408 139.248 L 661.408 139.248 L 661.408 139.248 Z  M 690.839 101.592 L 690.839 139.248 L 682.127 139.248 L 682.127 101.592 L 690.839 101.592 L 690.839 101.592 Z  M 691.775 90.576 L 691.775 90.576 L 691.775 90.576 Q 691.775 93.024 690.191 94.464 L 690.191 94.464 L 690.191 94.464 Q 688.607 95.904 686.447 95.904 L 686.447 95.904 L 686.447 95.904 Q 684.215 95.904 682.631 94.464 L 682.631 94.464 L 682.631 94.464 Q 681.047 93.024 681.047 90.576 L 681.047 90.576 L 681.047 90.576 Q 681.047 88.056 682.631 86.616 L 682.631 86.616 L 682.631 86.616 Q 684.215 85.176 686.447 85.176 L 686.447 85.176 L 686.447 85.176 Q 688.607 85.176 690.191 86.616 L 690.191 86.616 L 690.191 86.616 Q 691.775 88.056 691.775 90.576 Z  M 708.767 119.448 L 708.767 119.448 L 708.767 119.448 Q 708.767 124.992 711.179 127.548 L 711.179 127.548 L 711.179 127.548 Q 713.591 130.104 717.407 130.104 L 717.407 130.104 L 717.407 130.104 Q 719.495 130.104 721.331 129.528 L 721.331 129.528 L 721.331 129.528 Q 723.167 128.952 724.319 128.16 L 724.319 128.16 L 724.319 108.648 L 724.319 108.648 Q 723.383 108.432 722.015 108.252 L 722.015 108.252 L 722.015 108.252 Q 720.647 108.072 718.559 108.072 L 718.559 108.072 L 718.559 108.072 Q 713.807 108.072 711.287 111.204 L 711.287 111.204 L 711.287 111.204 Q 708.767 114.336 708.767 119.448 Z  M 733.031 102.816 L 733.031 135.432 L 733.031 135.432 Q 733.031 144.432 728.459 148.608 L 728.459 148.608 L 728.459 148.608 Q 723.887 152.784 714.455 152.784 L 714.455 152.784 L 714.455 152.784 Q 710.999 152.784 707.723 152.208 L 707.723 152.208 L 707.723 152.208 Q 704.447 151.632 701.783 150.696 L 701.783 150.696 L 703.367 143.28 L 703.367 143.28 Q 705.599 144.216 708.443 144.792 L 708.443 144.792 L 708.443 144.792 Q 711.287 145.368 714.599 145.368 L 714.599 145.368 L 714.599 145.368 Q 719.855 145.368 722.087 143.208 L 722.087 143.208 L 722.087 143.208 Q 724.319 141.048 724.319 136.8 L 724.319 136.8 L 724.319 135.36 L 724.319 135.36 Q 723.023 136.008 720.899 136.656 L 720.899 136.656 L 720.899 136.656 Q 718.775 137.304 716.039 137.304 L 716.039 137.304 L 716.039 137.304 Q 712.439 137.304 709.451 136.152 L 709.451 136.152 L 709.451 136.152 Q 706.463 135 704.339 132.768 L 704.339 132.768 L 704.339 132.768 Q 702.215 130.536 701.027 127.188 L 701.027 127.188 L 701.027 127.188 Q 699.839 123.84 699.839 119.448 L 699.839 119.448 L 699.839 119.448 Q 699.839 115.344 701.099 111.888 L 701.099 111.888 L 701.099 111.888 Q 702.359 108.432 704.771 105.984 L 704.771 105.984 L 704.771 105.984 Q 707.183 103.536 710.639 102.168 L 710.639 102.168 L 710.639 102.168 Q 714.095 100.8 718.487 100.8 L 718.487 100.8 L 718.487 100.8 Q 722.735 100.8 726.551 101.448 L 726.551 101.448 L 726.551 101.448 Q 730.367 102.096 733.031 102.816 L 733.031 102.816 L 733.031 102.816 Z  M 757.367 133.128 L 757.367 133.128 L 757.367 133.128 Q 761.399 133.128 763.487 132.696 L 763.487 132.696 L 763.487 123.048 L 763.487 123.048 Q 762.767 122.832 761.399 122.616 L 761.399 122.616 L 761.399 122.616 Q 760.031 122.4 758.375 122.4 L 758.375 122.4 L 758.375 122.4 Q 756.935 122.4 755.459 122.616 L 755.459 122.616 L 755.459 122.616 Q 753.983 122.832 752.795 123.408 L 752.795 123.408 L 752.795 123.408 Q 751.607 123.984 750.887 125.028 L 750.887 125.028 L 750.887 125.028 Q 750.167 126.072 750.167 127.656 L 750.167 127.656 L 750.167 127.656 Q 750.167 130.752 752.111 131.94 L 752.111 131.94 L 752.111 131.94 Q 754.055 133.128 757.367 133.128 Z  M 756.647 100.656 L 756.647 100.656 L 756.647 100.656 Q 760.967 100.656 763.919 101.736 L 763.919 101.736 L 763.919 101.736 Q 766.871 102.816 768.635 104.76 L 768.635 104.76 L 768.635 104.76 Q 770.399 106.704 771.155 109.476 L 771.155 109.476 L 771.155 109.476 Q 771.911 112.248 771.911 115.56 L 771.911 115.56 L 771.911 138.384 L 771.911 138.384 Q 769.895 138.816 765.827 139.428 L 765.827 139.428 L 765.827 139.428 Q 761.759 140.04 756.647 140.04 L 756.647 140.04 L 756.647 140.04 Q 753.263 140.04 750.455 139.392 L 750.455 139.392 L 750.455 139.392 Q 747.647 138.744 745.667 137.304 L 745.667 137.304 L 745.667 137.304 Q 743.687 135.864 742.571 133.56 L 742.571 133.56 L 742.571 133.56 Q 741.455 131.256 741.455 127.872 L 741.455 127.872 L 741.455 127.872 Q 741.455 124.632 742.715 122.4 L 742.715 122.4 L 742.715 122.4 Q 743.975 120.168 746.135 118.764 L 746.135 118.764 L 746.135 118.764 Q 748.295 117.36 751.139 116.748 L 751.139 116.748 L 751.139 116.748 Q 753.983 116.136 757.079 116.136 L 757.079 116.136 L 757.079 116.136 Q 758.519 116.136 760.103 116.316 L 760.103 116.316 L 760.103 116.316 Q 761.687 116.496 763.487 116.928 L 763.487 116.928 L 763.487 115.488 L 763.487 115.488 Q 763.487 113.976 763.127 112.608 L 763.127 112.608 L 763.127 112.608 Q 762.767 111.24 761.867 110.196 L 761.867 110.196 L 761.867 110.196 Q 760.967 109.152 759.491 108.576 L 759.491 108.576 L 759.491 108.576 Q 758.015 108 755.783 108 L 755.783 108 L 755.783 108 Q 752.759 108 750.239 108.432 L 750.239 108.432 L 750.239 108.432 Q 747.719 108.864 746.135 109.44 L 746.135 109.44 L 745.055 102.384 L 745.055 102.384 Q 746.711 101.808 749.879 101.232 L 749.879 101.232 L 749.879 101.232 Q 753.047 100.656 756.647 100.656 Z  M 782.135 124.272 L 782.135 91.656 L 790.847 90.216 L 790.847 101.592 L 804.239 101.592 L 804.239 108.864 L 790.847 108.864 L 790.847 124.2 L 790.847 124.2 Q 790.847 128.736 792.287 130.68 L 792.287 130.68 L 792.287 130.68 Q 793.727 132.624 797.183 132.624 L 797.183 132.624 L 797.183 132.624 Q 799.559 132.624 801.395 132.12 L 801.395 132.12 L 801.395 132.12 Q 803.231 131.616 804.311 131.184 L 804.311 131.184 L 805.751 138.096 L 805.751 138.096 Q 804.239 138.744 801.791 139.428 L 801.791 139.428 L 801.791 139.428 Q 799.343 140.112 796.031 140.112 L 796.031 140.112 L 796.031 140.112 Q 791.999 140.112 789.299 139.032 L 789.299 139.032 L 789.299 139.032 Q 786.599 137.952 785.015 135.9 L 785.015 135.9 L 785.015 135.9 Q 783.431 133.848 782.783 130.932 L 782.783 130.932 L 782.783 130.932 Q 782.135 128.016 782.135 124.272 L 782.135 124.272 L 782.135 124.272 Z  M 821.447 101.592 L 821.447 139.248 L 812.735 139.248 L 812.735 101.592 L 821.447 101.592 L 821.447 101.592 Z  M 822.383 90.576 L 822.383 90.576 L 822.383 90.576 Q 822.383 93.024 820.799 94.464 L 820.799 94.464 L 820.799 94.464 Q 819.215 95.904 817.055 95.904 L 817.055 95.904 L 817.055 95.904 Q 814.823 95.904 813.239 94.464 L 813.239 94.464 L 813.239 94.464 Q 811.655 93.024 811.655 90.576 L 811.655 90.576 L 811.655 90.576 Q 811.655 88.056 813.239 86.616 L 813.239 86.616 L 813.239 86.616 Q 814.823 85.176 817.055 85.176 L 817.055 85.176 L 817.055 85.176 Q 819.215 85.176 820.799 86.616 L 820.799 86.616 L 820.799 86.616 Q 822.383 88.056 822.383 90.576 Z  M 866.591 120.384 L 866.591 120.384 L 866.591 120.384 Q 866.591 124.848 865.295 128.52 L 865.295 128.52 L 865.295 128.52 Q 863.999 132.192 861.623 134.784 L 861.623 134.784 L 861.623 134.784 Q 859.247 137.376 855.899 138.816 L 855.899 138.816 L 855.899 138.816 Q 852.551 140.256 848.519 140.256 L 848.519 140.256 L 848.519 140.256 Q 844.487 140.256 841.175 138.816 L 841.175 138.816 L 841.175 138.816 Q 837.863 137.376 835.487 134.784 L 835.487 134.784 L 835.487 134.784 Q 833.111 132.192 831.779 128.52 L 831.779 128.52 L 831.779 128.52 Q 830.447 124.848 830.447 120.384 L 830.447 120.384 L 830.447 120.384 Q 830.447 115.92 831.779 112.284 L 831.779 112.284 L 831.779 112.284 Q 833.111 108.648 835.523 106.056 L 835.523 106.056 L 835.523 106.056 Q 837.935 103.464 841.247 102.06 L 841.247 102.06 L 841.247 102.06 Q 844.559 100.656 848.519 100.656 L 848.519 100.656 L 848.519 100.656 Q 852.479 100.656 855.827 102.06 L 855.827 102.06 L 855.827 102.06 Q 859.175 103.464 861.551 106.056 L 861.551 106.056 L 861.551 106.056 Q 863.927 108.648 865.259 112.284 L 865.259 112.284 L 865.259 112.284 Q 866.591 115.92 866.591 120.384 Z  M 857.663 120.384 L 857.663 120.384 L 857.663 120.384 Q 857.663 114.768 855.251 111.492 L 855.251 111.492 L 855.251 111.492 Q 852.839 108.216 848.519 108.216 L 848.519 108.216 L 848.519 108.216 Q 844.199 108.216 841.787 111.492 L 841.787 111.492 L 841.787 111.492 Q 839.375 114.768 839.375 120.384 L 839.375 120.384 L 839.375 120.384 Q 839.375 126.072 841.787 129.384 L 841.787 129.384 L 841.787 129.384 Q 844.199 132.696 848.519 132.696 L 848.519 132.696 L 848.519 132.696 Q 852.839 132.696 855.251 129.384 L 855.251 129.384 L 855.251 129.384 Q 857.663 126.072 857.663 120.384 Z  M 875.591 139.248 L 875.591 102.816 L 875.591 102.816 Q 878.111 102.096 882.143 101.448 L 882.143 101.448 L 882.143 101.448 Q 886.175 100.8 891.071 100.8 L 891.071 100.8 L 891.071 100.8 Q 895.679 100.8 898.775 102.06 L 898.775 102.06 L 898.775 102.06 Q 901.871 103.32 903.707 105.588 L 903.707 105.588 L 903.707 105.588 Q 905.543 107.856 906.299 111.06 L 906.299 111.06 L 906.299 111.06 Q 907.055 114.264 907.055 118.08 L 907.055 118.08 L 907.055 139.248 L 898.343 139.248 L 898.343 119.448 L 898.343 119.448 Q 898.343 116.424 897.947 114.3 L 897.947 114.3 L 897.947 114.3 Q 897.551 112.176 896.651 110.844 L 896.651 110.844 L 896.651 110.844 Q 895.751 109.512 894.203 108.9 L 894.203 108.9 L 894.203 108.9 Q 892.655 108.288 890.423 108.288 L 890.423 108.288 L 890.423 108.288 Q 888.767 108.288 886.967 108.504 L 886.967 108.504 L 886.967 108.504 Q 885.167 108.72 884.303 108.864 L 884.303 108.864 L 884.303 139.248 L 875.591 139.248 L 875.591 139.248 Z  M 326.447 132.48 L 326.447 132.48 L 326.447 132.48 Q 331.343 132.48 333.575 130.824 L 333.575 130.824 L 333.575 130.824 Q 335.807 129.168 335.807 126.144 L 335.807 126.144 L 335.807 126.144 Q 335.807 124.344 335.051 123.048 L 335.051 123.048 L 335.051 123.048 Q 334.295 121.752 332.891 120.708 L 332.891 120.708 L 332.891 120.708 Q 331.487 119.664 329.471 118.764 L 329.471 118.764 L 329.471 118.764 Q 327.455 117.864 324.863 117 L 324.863 117 L 324.863 117 Q 322.271 116.064 319.859 114.948 L 319.859 114.948 L 319.859 114.948 Q 317.447 113.832 315.611 112.176 L 315.611 112.176 L 315.611 112.176 Q 313.775 110.52 312.659 108.216 L 312.659 108.216 L 312.659 108.216 Q 311.543 105.912 311.543 102.672 L 311.543 102.672 L 311.543 102.672 Q 311.543 95.904 316.223 92.052 L 316.223 92.052 L 316.223 92.052 Q 320.903 88.2 328.967 88.2 L 328.967 88.2 L 328.967 88.2 Q 333.647 88.2 337.283 89.244 L 337.283 89.244 L 337.283 89.244 Q 340.919 90.288 343.007 91.512 L 343.007 91.512 L 340.199 98.856 L 340.199 98.856 Q 337.751 97.488 334.835 96.768 L 334.835 96.768 L 334.835 96.768 Q 331.919 96.048 328.823 96.048 L 328.823 96.048 L 328.823 96.048 Q 325.151 96.048 323.099 97.56 L 323.099 97.56 L 323.099 97.56 Q 321.047 99.072 321.047 101.808 L 321.047 101.808 L 321.047 101.808 Q 321.047 103.464 321.731 104.652 L 321.731 104.652 L 321.731 104.652 Q 322.415 105.84 323.675 106.776 L 323.675 106.776 L 323.675 106.776 Q 324.935 107.712 326.627 108.504 L 326.627 108.504 L 326.627 108.504 Q 328.319 109.296 330.335 110.016 L 330.335 110.016 L 330.335 110.016 Q 333.863 111.312 336.635 112.644 L 336.635 112.644 L 336.635 112.644 Q 339.407 113.976 341.315 115.812 L 341.315 115.812 L 341.315 115.812 Q 343.223 117.648 344.231 120.132 L 344.231 120.132 L 344.231 120.132 Q 345.239 122.616 345.239 126.144 L 345.239 126.144 L 345.239 126.144 Q 345.239 132.912 340.451 136.62 L 340.451 136.62 L 340.451 136.62 Q 335.663 140.328 326.447 140.328 L 326.447 140.328 L 326.447 140.328 Q 323.351 140.328 320.795 139.932 L 320.795 139.932 L 320.795 139.932 Q 318.239 139.536 316.259 138.96 L 316.259 138.96 L 316.259 138.96 Q 314.279 138.384 312.839 137.772 L 312.839 137.772 L 312.839 137.772 Q 311.399 137.16 310.535 136.656 L 310.535 136.656 L 313.199 129.24 L 313.199 129.24 Q 315.143 130.32 318.455 131.4 L 318.455 131.4 L 318.455 131.4 Q 321.767 132.48 326.447 132.48 Z  M 361.583 101.592 L 361.583 139.248 L 352.871 139.248 L 352.871 101.592 L 361.583 101.592 L 361.583 101.592 Z  M 362.519 90.576 L 362.519 90.576 L 362.519 90.576 Q 362.519 93.024 360.935 94.464 L 360.935 94.464 L 360.935 94.464 Q 359.351 95.904 357.191 95.904 L 357.191 95.904 L 357.191 95.904 Q 354.959 95.904 353.375 94.464 L 353.375 94.464 L 353.375 94.464 Q 351.791 93.024 351.791 90.576 L 351.791 90.576 L 351.791 90.576 Q 351.791 88.056 353.375 86.616 L 353.375 86.616 L 353.375 86.616 Q 354.959 85.176 357.191 85.176 L 357.191 85.176 L 357.191 85.176 Q 359.351 85.176 360.935 86.616 L 360.935 86.616 L 360.935 86.616 Q 362.519 88.056 362.519 90.576 Z  M 394.127 139.248 L 394.127 119.448 L 394.127 119.448 Q 394.127 113.544 392.651 110.916 L 392.651 110.916 L 392.651 110.916 Q 391.175 108.288 387.143 108.288 L 387.143 108.288 L 387.143 108.288 Q 385.703 108.288 383.975 108.504 L 383.975 108.504 L 383.975 108.504 Q 382.247 108.72 381.383 108.864 L 381.383 108.864 L 381.383 139.248 L 372.671 139.248 L 372.671 102.816 L 372.671 102.816 Q 375.191 102.096 379.259 101.448 L 379.259 101.448 L 379.259 101.448 Q 383.327 100.8 387.863 100.8 L 387.863 100.8 L 387.863 100.8 Q 391.751 100.8 394.235 101.808 L 394.235 101.808 L 394.235 101.808 Q 396.719 102.816 398.375 104.472 L 398.375 104.472 L 398.375 104.472 Q 399.167 103.896 400.391 103.248 L 400.391 103.248 L 400.391 103.248 Q 401.615 102.6 403.127 102.06 L 403.127 102.06 L 403.127 102.06 Q 404.639 101.52 406.331 101.16 L 406.331 101.16 L 406.331 101.16 Q 408.023 100.8 409.751 100.8 L 409.751 100.8 L 409.751 100.8 Q 414.143 100.8 416.987 102.06 L 416.987 102.06 L 416.987 102.06 Q 419.831 103.32 421.451 105.588 L 421.451 105.588 L 421.451 105.588 Q 423.071 107.856 423.683 111.06 L 423.683 111.06 L 423.683 111.06 Q 424.295 114.264 424.295 118.08 L 424.295 118.08 L 424.295 139.248 L 415.583 139.248 L 415.583 119.448 L 415.583 119.448 Q 415.583 113.544 414.143 110.916 L 414.143 110.916 L 414.143 110.916 Q 412.703 108.288 408.599 108.288 L 408.599 108.288 L 408.599 108.288 Q 406.511 108.288 404.639 108.972 L 404.639 108.972 L 404.639 108.972 Q 402.767 109.656 401.831 110.304 L 401.831 110.304 L 401.831 110.304 Q 402.407 112.104 402.623 114.12 L 402.623 114.12 L 402.623 114.12 Q 402.839 116.136 402.839 118.44 L 402.839 118.44 L 402.839 139.248 L 394.127 139.248 L 394.127 139.248 Z  M 459.935 120.6 L 459.935 120.6 L 459.935 120.6 Q 459.935 114.768 457.307 111.528 L 457.307 111.528 L 457.307 111.528 Q 454.679 108.288 448.847 108.288 L 448.847 108.288 L 448.847 108.288 Q 447.623 108.288 446.291 108.396 L 446.291 108.396 L 446.291 108.396 Q 444.959 108.504 443.663 108.864 L 443.663 108.864 L 443.663 130.392 L 443.663 130.392 Q 444.815 131.184 446.723 131.868 L 446.723 131.868 L 446.723 131.868 Q 448.631 132.552 450.791 132.552 L 450.791 132.552 L 450.791 132.552 Q 455.543 132.552 457.739 129.312 L 457.739 129.312 L 457.739 129.312 Q 459.935 126.072 459.935 120.6 Z  M 468.863 120.456 L 468.863 120.456 L 468.863 120.456 Q 468.863 124.776 467.747 128.376 L 467.747 128.376 L 467.747 128.376 Q 466.631 131.976 464.543 134.568 L 464.543 134.568 L 464.543 134.568 Q 462.455 137.16 459.323 138.6 L 459.323 138.6 L 459.323 138.6 Q 456.191 140.04 452.231 140.04 L 452.231 140.04 L 452.231 140.04 Q 449.567 140.04 447.335 139.392 L 447.335 139.392 L 447.335 139.392 Q 445.103 138.744 443.663 137.952 L 443.663 137.952 L 443.663 152.568 L 434.951 152.568 L 434.951 102.816 L 434.951 102.816 Q 437.615 102.096 441.503 101.448 L 441.503 101.448 L 441.503 101.448 Q 445.391 100.8 449.711 100.8 L 449.711 100.8 L 449.711 100.8 Q 454.175 100.8 457.703 102.168 L 457.703 102.168 L 457.703 102.168 Q 461.231 103.536 463.715 106.092 L 463.715 106.092 L 463.715 106.092 Q 466.199 108.648 467.531 112.284 L 467.531 112.284 L 467.531 112.284 Q 468.863 115.92 468.863 120.456 Z  M 492.191 132.768 L 490.967 139.968 L 490.967 139.968 Q 487.079 139.896 484.523 139.104 L 484.523 139.104 L 484.523 139.104 Q 481.967 138.312 480.455 136.836 L 480.455 136.836 L 480.455 136.836 Q 478.943 135.36 478.331 133.164 L 478.331 133.164 L 478.331 133.164 Q 477.719 130.968 477.719 128.16 L 477.719 128.16 L 477.719 84.816 L 486.431 83.376 L 486.431 126.504 L 486.431 126.504 Q 486.431 128.088 486.683 129.168 L 486.683 129.168 L 486.683 129.168 Q 486.935 130.248 487.583 131.004 L 487.583 131.004 L 487.583 131.004 Q 488.231 131.76 489.347 132.156 L 489.347 132.156 L 489.347 132.156 Q 490.463 132.552 492.191 132.768 L 492.191 132.768 L 492.191 132.768 Z  M 520.991 101.592 L 529.991 101.592 L 529.991 101.592 Q 524.17 123.048 516.48 140.472 L 516.48 140.472 L 516.48 140.472 Q 515.039 143.712 513.525 146.016 L 513.525 146.016 L 513.525 146.016 Q 512.011 148.32 510.137 149.832 L 510.137 149.832 L 510.137 149.832 Q 508.263 151.344 505.957 152.028 L 505.957 152.028 L 505.957 152.028 Q 503.65 152.712 500.623 152.712 L 500.623 152.712 L 500.623 152.712 Q 498.605 152.712 496.622 152.28 L 496.622 152.28 L 496.622 152.28 Q 494.64 151.848 493.631 151.344 L 493.631 151.344 L 495.215 144.36 L 495.215 144.36 Q 497.805 145.368 500.322 145.368 L 500.322 145.368 L 500.322 145.368 Q 503.703 145.368 505.609 143.748 L 505.609 143.748 L 505.609 143.748 Q 507.515 142.128 508.954 138.744 L 508.954 138.744 L 508.954 138.744 Q 504.854 130.824 501.077 121.464 L 501.077 121.464 L 501.077 121.464 Q 497.3 112.104 494.351 101.592 L 494.351 101.592 L 503.639 101.592 L 503.639 101.592 Q 504.362 104.616 505.41 108.144 L 505.41 108.144 L 505.41 108.144 Q 506.458 111.672 507.687 115.308 L 507.687 115.308 L 507.687 115.308 Q 508.915 118.944 510.288 122.544 L 510.288 122.544 L 510.288 122.544 Q 511.662 126.144 513.035 129.24 L 513.035 129.24 L 513.035 129.24 Q 515.329 122.832 517.336 115.596 L 517.336 115.596 L 517.336 115.596 Q 519.342 108.36 520.991 101.592 L 520.991 101.592 L 520.991 101.592 Z " fill="rgb(93,93,93)"/><circle vector-effect="non-scaling-stroke" cx="221.12499999999994" cy="112.5" r="62.5" fill="rgb(185,185,185)"/><g><path d="M 186.199 131.022 L 256.051 131.022 C 256.9 131.022 257.589 131.711 257.589 132.56 L 257.589 133.462 C 257.589 134.311 256.9 135 256.051 135 L 186.199 135 C 185.35 135 184.661 134.311 184.661 133.462 L 184.661 132.56 C 184.661 131.711 185.35 131.022 186.199 131.022 Z" style="stroke:none;fill:#5D5D5D;stroke-miterlimit:10;"/><path d=" M 257.385 109.76 L 257.385 113.28 L 245.345 118.338 L 244.253 114.95 L 253.045 111.52 L 244.253 108.09 L 245.345 104.702 L 257.385 109.76 Z  M 212.277 116.91 L 212.277 116.91 L 212.277 116.91 Q 213.425 116.91 213.901 116.686 L 213.901 116.686 L 213.901 116.686 Q 214.377 116.462 214.377 115.818 L 214.377 115.818 L 214.377 115.818 Q 214.377 115.314 213.761 114.936 L 213.761 114.936 L 213.761 114.936 Q 213.145 114.558 211.885 114.082 L 211.885 114.082 L 211.885 114.082 Q 210.905 113.718 210.107 113.326 L 210.107 113.326 L 210.107 113.326 Q 209.309 112.934 208.749 112.388 L 208.749 112.388 L 208.749 112.388 Q 208.189 111.842 207.881 111.086 L 207.881 111.086 L 207.881 111.086 Q 207.573 110.33 207.573 109.266 L 207.573 109.266 L 207.573 109.266 Q 207.573 107.194 209.113 105.99 L 209.113 105.99 L 209.113 105.99 Q 210.653 104.786 213.341 104.786 L 213.341 104.786 L 213.341 104.786 Q 214.685 104.786 215.917 105.024 L 215.917 105.024 L 215.917 105.024 Q 217.149 105.262 217.877 105.542 L 217.877 105.542 L 217.149 108.79 L 217.149 108.79 Q 216.421 108.538 215.567 108.342 L 215.567 108.342 L 215.567 108.342 Q 214.713 108.146 213.649 108.146 L 213.649 108.146 L 213.649 108.146 Q 211.689 108.146 211.689 109.238 L 211.689 109.238 L 211.689 109.238 Q 211.689 109.49 211.773 109.686 L 211.773 109.686 L 211.773 109.686 Q 211.857 109.882 212.109 110.064 L 212.109 110.064 L 212.109 110.064 Q 212.361 110.246 212.795 110.455 L 212.795 110.455 L 212.795 110.455 Q 213.229 110.664 213.901 110.914 L 213.901 110.914 L 213.901 110.914 Q 215.273 111.415 216.169 111.902 L 216.169 111.902 L 216.169 111.902 Q 217.065 112.39 217.583 112.964 L 217.583 112.964 L 217.583 112.964 Q 218.101 113.539 218.311 114.24 L 218.311 114.24 L 218.311 114.24 Q 218.521 114.942 218.521 115.867 L 218.521 115.867 L 218.521 115.867 Q 218.521 118.054 216.883 119.176 L 216.883 119.176 L 216.883 119.176 Q 215.245 120.298 212.249 120.298 L 212.249 120.298 L 212.249 120.298 Q 210.289 120.298 208.987 119.962 L 208.987 119.962 L 208.987 119.962 Q 207.685 119.626 207.181 119.402 L 207.181 119.402 L 207.881 116.014 L 207.881 116.014 Q 208.945 116.434 210.065 116.672 L 210.065 116.672 L 210.065 116.672 Q 211.185 116.91 212.277 116.91 Z  M 221.629 119.906 L 221.629 105.682 L 221.629 105.682 Q 222.693 105.374 224.373 105.108 L 224.373 105.108 L 224.373 105.108 Q 226.053 104.842 227.901 104.842 L 227.901 104.842 L 227.901 104.842 Q 229.777 104.842 231.023 105.332 L 231.023 105.332 L 231.023 105.332 Q 232.269 105.822 232.997 106.718 L 232.997 106.718 L 232.997 106.718 Q 233.725 107.614 234.033 108.846 L 234.033 108.846 L 234.033 108.846 Q 234.341 110.078 234.341 111.59 L 234.341 111.59 L 234.341 119.906 L 230.169 119.906 L 230.169 112.094 L 230.169 112.094 Q 230.169 110.078 229.637 109.238 L 229.637 109.238 L 229.637 109.238 Q 229.105 108.398 227.649 108.398 L 227.649 108.398 L 227.649 108.398 Q 227.201 108.398 226.697 108.44 L 226.697 108.44 L 226.697 108.44 Q 226.193 108.482 225.801 108.538 L 225.801 108.538 L 225.801 119.906 L 221.629 119.906 Z  M 184.865 113.28 L 184.865 109.76 L 196.905 104.702 L 197.997 108.09 L 189.205 111.52 L 197.997 114.95 L 196.905 118.338 L 184.865 113.28 Z " fill="rgb(93,93,93)"/><path d="M 186.199 90 L 256.051 90 C 256.9 90 257.589 90.689 257.589 91.538 L 257.589 92.44 C 257.589 93.289 256.9 93.978 256.051 93.978 L 186.199 93.978 C 185.35 93.978 184.661 93.289 184.661 92.44 L 184.661 91.538 C 184.661 90.689 185.35 90 186.199 90 Z" style="stroke:none;fill:#5D5D5D;stroke-miterlimit:10;"/></g></g></svg>