<?xml version="1.0" standalone="no"?><!-- Generator: Gravit.io --><svg xmlns="http://www.w3.org/2000/svg" xmlns:xlink="http://www.w3.org/1999/xlink" style="isolation:isolate" viewBox="0 0 750 152.375" width="750" height="152.375"><defs><clipPath id="_clipPath_opcaAJfj7tn1c9wfKA0smRjto5DMZRlj"><rect width="750" height="152.375"/></clipPath></defs><g clip-path="url(#_clipPath_opcaAJfj7tn1c9wfKA0smRjto5DMZRlj)"><path d=" M 430.776 102.936 L 423.072 102.936 L 423.072 102.936 Q 420.624 98.832 417.6 94.116 L 417.6 94.116 L 417.6 94.116 Q 414.576 89.4 411.336 84.612 L 411.336 84.612 L 411.336 84.612 Q 408.096 79.824 404.748 75.324 L 404.748 75.324 L 404.748 75.324 Q 401.4 70.824 398.376 67.224 L 398.376 67.224 L 398.376 102.936 L 389.448 102.936 L 389.448 53.04 L 396.864 53.04 L 396.864 53.04 Q 399.744 56.064 403.056 60.204 L 403.056 60.204 L 403.056 60.204 Q 406.368 64.344 409.716 68.808 L 409.716 68.808 L 409.716 68.808 Q 413.064 73.272 416.196 77.772 L 416.196 77.772 L 416.196 77.772 Q 419.328 82.272 421.776 86.16 L 421.776 86.16 L 421.776 53.04 L 430.776 53.04 L 430.776 102.936 L 430.776 102.936 Z  M 455.544 96.816 L 455.544 96.816 L 455.544 96.816 Q 459.576 96.816 461.664 96.384 L 461.664 96.384 L 461.664 86.736 L 461.664 86.736 Q 460.944 86.52 459.576 86.304 L 459.576 86.304 L 459.576 86.304 Q 458.208 86.088 456.552 86.088 L 456.552 86.088 L 456.552 86.088 Q 455.112 86.088 453.636 86.304 L 453.636 86.304 L 453.636 86.304 Q 452.16 86.52 450.972 87.096 L 450.972 87.096 L 450.972 87.096 Q 449.784 87.672 449.064 88.716 L 449.064 88.716 L 449.064 88.716 Q 448.344 89.76 448.344 91.344 L 448.344 91.344 L 448.344 91.344 Q 448.344 94.44 450.288 95.628 L 450.288 95.628 L 450.288 95.628 Q 452.232 96.816 455.544 96.816 Z  M 454.824 64.344 L 454.824 64.344 L 454.824 64.344 Q 459.144 64.344 462.096 65.423 L 462.096 65.423 L 462.096 65.423 Q 465.048 66.504 466.812 68.447 L 466.812 68.447 L 466.812 68.447 Q 468.576 70.392 469.332 73.164 L 469.332 73.164 L 469.332 73.164 Q 470.088 75.936 470.088 79.248 L 470.088 79.248 L 470.088 102.072 L 470.088 102.072 Q 468.072 102.504 464.004 103.116 L 464.004 103.116 L 464.004 103.116 Q 459.936 103.728 454.824 103.728 L 454.824 103.728 L 454.824 103.728 Q 451.44 103.728 448.632 103.08 L 448.632 103.08 L 448.632 103.08 Q 445.824 102.432 443.844 100.992 L 443.844 100.992 L 443.844 100.992 Q 441.864 99.552 440.748 97.248 L 440.748 97.248 L 440.748 97.248 Q 439.632 94.944 439.632 91.56 L 439.632 91.56 L 439.632 91.56 Q 439.632 88.32 440.892 86.088 L 440.892 86.088 L 440.892 86.088 Q 442.152 83.856 444.312 82.452 L 444.312 82.452 L 444.312 82.452 Q 446.472 81.048 449.316 80.436 L 449.316 80.436 L 449.316 80.436 Q 452.16 79.824 455.256 79.824 L 455.256 79.824 L 455.256 79.824 Q 456.696 79.824 458.28 80.004 L 458.28 80.004 L 458.28 80.004 Q 459.864 80.184 461.664 80.616 L 461.664 80.616 L 461.664 79.176 L 461.664 79.176 Q 461.664 77.664 461.304 76.296 L 461.304 76.296 L 461.304 76.296 Q 460.944 74.928 460.044 73.884 L 460.044 73.884 L 460.044 73.884 Q 459.144 72.84 457.668 72.264 L 457.668 72.264 L 457.668 72.264 Q 456.192 71.688 453.96 71.688 L 453.96 71.688 L 453.96 71.688 Q 450.936 71.688 448.416 72.12 L 448.416 72.12 L 448.416 72.12 Q 445.896 72.552 444.312 73.128 L 444.312 73.128 L 443.232 66.072 L 443.232 66.072 Q 444.888 65.495 448.056 64.92 L 448.056 64.92 L 448.056 64.92 Q 451.224 64.344 454.824 64.344 Z  M 497.033 102.936 L 489.439 102.936 L 489.439 102.936 Q 485.844 95.52 482.068 85.908 L 482.068 85.908 L 482.068 85.908 Q 478.292 76.296 475.2 65.28 L 475.2 65.28 L 484.488 65.28 L 484.488 65.28 Q 485.283 68.447 486.331 72.084 L 486.331 72.084 L 486.331 72.084 Q 487.38 75.72 488.573 79.356 L 488.573 79.356 L 488.573 79.356 Q 489.765 82.992 491.03 86.412 L 491.03 86.412 L 491.03 86.412 Q 492.296 89.832 493.38 92.568 L 493.38 92.568 L 493.38 92.568 Q 494.464 89.832 495.693 86.412 L 495.693 86.412 L 495.693 86.412 Q 496.922 82.992 498.115 79.356 L 498.115 79.356 L 498.115 79.356 Q 499.308 75.72 500.392 72.084 L 500.392 72.084 L 500.392 72.084 Q 501.477 68.447 502.272 65.28 L 502.272 65.28 L 511.272 65.28 L 511.272 65.28 Q 508.18 76.296 504.404 85.908 L 504.404 85.908 L 504.404 85.908 Q 500.628 95.52 497.033 102.936 L 497.033 102.936 L 497.033 102.936 Z  M 526.464 65.28 L 526.464 102.936 L 517.752 102.936 L 517.752 65.28 L 526.464 65.28 L 526.464 65.28 Z  M 527.4 54.264 L 527.4 54.264 L 527.4 54.264 Q 527.4 56.712 525.816 58.152 L 525.816 58.152 L 525.816 58.152 Q 524.232 59.592 522.072 59.592 L 522.072 59.592 L 522.072 59.592 Q 519.84 59.592 518.256 58.152 L 518.256 58.152 L 518.256 58.152 Q 516.672 56.712 516.672 54.264 L 516.672 54.264 L 516.672 54.264 Q 516.672 51.744 518.256 50.304 L 518.256 50.304 L 518.256 50.304 Q 519.84 48.863 522.072 48.863 L 522.072 48.863 L 522.072 48.863 Q 524.232 48.863 525.816 50.304 L 525.816 50.304 L 525.816 50.304 Q 527.4 51.744 527.4 54.264 Z  M 544.392 83.136 L 544.392 83.136 L 544.392 83.136 Q 544.392 88.68 546.804 91.236 L 546.804 91.236 L 546.804 91.236 Q 549.216 93.792 553.032 93.792 L 553.032 93.792 L 553.032 93.792 Q 555.12 93.792 556.956 93.216 L 556.956 93.216 L 556.956 93.216 Q 558.792 92.64 559.944 91.848 L 559.944 91.848 L 559.944 72.336 L 559.944 72.336 Q 559.008 72.12 557.64 71.94 L 557.64 71.94 L 557.64 71.94 Q 556.272 71.76 554.184 71.76 L 554.184 71.76 L 554.184 71.76 Q 549.432 71.76 546.912 74.892 L 546.912 74.892 L 546.912 74.892 Q 544.392 78.024 544.392 83.136 Z  M 568.656 66.504 L 568.656 99.12 L 568.656 99.12 Q 568.656 108.12 564.084 112.296 L 564.084 112.296 L 564.084 112.296 Q 559.512 116.472 550.08 116.472 L 550.08 116.472 L 550.08 116.472 Q 546.624 116.472 543.348 115.896 L 543.348 115.896 L 543.348 115.896 Q 540.072 115.32 537.408 114.384 L 537.408 114.384 L 538.992 106.968 L 538.992 106.968 Q 541.224 107.904 544.068 108.48 L 544.068 108.48 L 544.068 108.48 Q 546.912 109.056 550.224 109.056 L 550.224 109.056 L 550.224 109.056 Q 555.48 109.056 557.712 106.896 L 557.712 106.896 L 557.712 106.896 Q 559.944 104.736 559.944 100.488 L 559.944 100.488 L 559.944 99.048 L 559.944 99.048 Q 558.648 99.696 556.524 100.344 L 556.524 100.344 L 556.524 100.344 Q 554.4 100.992 551.664 100.992 L 551.664 100.992 L 551.664 100.992 Q 548.064 100.992 545.076 99.84 L 545.076 99.84 L 545.076 99.84 Q 542.088 98.688 539.964 96.456 L 539.964 96.456 L 539.964 96.456 Q 537.84 94.224 536.652 90.876 L 536.652 90.876 L 536.652 90.876 Q 535.464 87.528 535.464 83.136 L 535.464 83.136 L 535.464 83.136 Q 535.464 79.032 536.724 75.576 L 536.724 75.576 L 536.724 75.576 Q 537.984 72.12 540.396 69.672 L 540.396 69.672 L 540.396 69.672 Q 542.808 67.224 546.264 65.856 L 546.264 65.856 L 546.264 65.856 Q 549.72 64.488 554.112 64.488 L 554.112 64.488 L 554.112 64.488 Q 558.36 64.488 562.176 65.136 L 562.176 65.136 L 562.176 65.136 Q 565.992 65.784 568.656 66.504 L 568.656 66.504 L 568.656 66.504 Z  M 592.992 96.816 L 592.992 96.816 L 592.992 96.816 Q 597.024 96.816 599.112 96.384 L 599.112 96.384 L 599.112 86.736 L 599.112 86.736 Q 598.392 86.52 597.024 86.304 L 597.024 86.304 L 597.024 86.304 Q 595.656 86.088 594 86.088 L 594 86.088 L 594 86.088 Q 592.56 86.088 591.084 86.304 L 591.084 86.304 L 591.084 86.304 Q 589.608 86.52 588.42 87.096 L 588.42 87.096 L 588.42 87.096 Q 587.232 87.672 586.512 88.716 L 586.512 88.716 L 586.512 88.716 Q 585.792 89.76 585.792 91.344 L 585.792 91.344 L 585.792 91.344 Q 585.792 94.44 587.736 95.628 L 587.736 95.628 L 587.736 95.628 Q 589.68 96.816 592.992 96.816 Z  M 592.272 64.344 L 592.272 64.344 L 592.272 64.344 Q 596.592 64.344 599.544 65.423 L 599.544 65.423 L 599.544 65.423 Q 602.496 66.504 604.26 68.447 L 604.26 68.447 L 604.26 68.447 Q 606.024 70.392 606.78 73.164 L 606.78 73.164 L 606.78 73.164 Q 607.536 75.936 607.536 79.248 L 607.536 79.248 L 607.536 102.072 L 607.536 102.072 Q 605.52 102.504 601.452 103.116 L 601.452 103.116 L 601.452 103.116 Q 597.384 103.728 592.272 103.728 L 592.272 103.728 L 592.272 103.728 Q 588.888 103.728 586.08 103.08 L 586.08 103.08 L 586.08 103.08 Q 583.272 102.432 581.292 100.992 L 581.292 100.992 L 581.292 100.992 Q 579.312 99.552 578.196 97.248 L 578.196 97.248 L 578.196 97.248 Q 577.08 94.944 577.08 91.56 L 577.08 91.56 L 577.08 91.56 Q 577.08 88.32 578.34 86.088 L 578.34 86.088 L 578.34 86.088 Q 579.6 83.856 581.76 82.452 L 581.76 82.452 L 581.76 82.452 Q 583.92 81.048 586.764 80.436 L 586.764 80.436 L 586.764 80.436 Q 589.608 79.824 592.704 79.824 L 592.704 79.824 L 592.704 79.824 Q 594.144 79.824 595.728 80.004 L 595.728 80.004 L 595.728 80.004 Q 597.312 80.184 599.112 80.616 L 599.112 80.616 L 599.112 79.176 L 599.112 79.176 Q 599.112 77.664 598.752 76.296 L 598.752 76.296 L 598.752 76.296 Q 598.392 74.928 597.492 73.884 L 597.492 73.884 L 597.492 73.884 Q 596.592 72.84 595.116 72.264 L 595.116 72.264 L 595.116 72.264 Q 593.64 71.688 591.408 71.688 L 591.408 71.688 L 591.408 71.688 Q 588.384 71.688 585.864 72.12 L 585.864 72.12 L 585.864 72.12 Q 583.344 72.552 581.76 73.128 L 581.76 73.128 L 580.68 66.072 L 580.68 66.072 Q 582.336 65.495 585.504 64.92 L 585.504 64.92 L 585.504 64.92 Q 588.672 64.344 592.272 64.344 Z  M 617.76 87.96 L 617.76 55.344 L 626.472 53.904 L 626.472 65.28 L 639.864 65.28 L 639.864 72.552 L 626.472 72.552 L 626.472 87.888 L 626.472 87.888 Q 626.472 92.424 627.912 94.368 L 627.912 94.368 L 627.912 94.368 Q 629.352 96.312 632.808 96.312 L 632.808 96.312 L 632.808 96.312 Q 635.184 96.312 637.02 95.808 L 637.02 95.808 L 637.02 95.808 Q 638.856 95.304 639.936 94.872 L 639.936 94.872 L 641.376 101.784 L 641.376 101.784 Q 639.864 102.432 637.416 103.116 L 637.416 103.116 L 637.416 103.116 Q 634.968 103.8 631.656 103.8 L 631.656 103.8 L 631.656 103.8 Q 627.624 103.8 624.924 102.72 L 624.924 102.72 L 624.924 102.72 Q 622.224 101.64 620.64 99.588 L 620.64 99.588 L 620.64 99.588 Q 619.056 97.536 618.408 94.62 L 618.408 94.62 L 618.408 94.62 Q 617.76 91.704 617.76 87.96 L 617.76 87.96 L 617.76 87.96 Z  M 657.072 65.28 L 657.072 102.936 L 648.36 102.936 L 648.36 65.28 L 657.072 65.28 L 657.072 65.28 Z  M 658.008 54.264 L 658.008 54.264 L 658.008 54.264 Q 658.008 56.712 656.424 58.152 L 656.424 58.152 L 656.424 58.152 Q 654.84 59.592 652.68 59.592 L 652.68 59.592 L 652.68 59.592 Q 650.448 59.592 648.864 58.152 L 648.864 58.152 L 648.864 58.152 Q 647.28 56.712 647.28 54.264 L 647.28 54.264 L 647.28 54.264 Q 647.28 51.744 648.864 50.304 L 648.864 50.304 L 648.864 50.304 Q 650.448 48.863 652.68 48.863 L 652.68 48.863 L 652.68 48.863 Q 654.84 48.863 656.424 50.304 L 656.424 50.304 L 656.424 50.304 Q 658.008 51.744 658.008 54.264 Z  M 702.216 84.072 L 702.216 84.072 L 702.216 84.072 Q 702.216 88.536 700.92 92.208 L 700.92 92.208 L 700.92 92.208 Q 699.624 95.88 697.248 98.472 L 697.248 98.472 L 697.248 98.472 Q 694.872 101.064 691.524 102.504 L 691.524 102.504 L 691.524 102.504 Q 688.176 103.944 684.144 103.944 L 684.144 103.944 L 684.144 103.944 Q 680.112 103.944 676.8 102.504 L 676.8 102.504 L 676.8 102.504 Q 673.488 101.064 671.112 98.472 L 671.112 98.472 L 671.112 98.472 Q 668.736 95.88 667.404 92.208 L 667.404 92.208 L 667.404 92.208 Q 666.072 88.536 666.072 84.072 L 666.072 84.072 L 666.072 84.072 Q 666.072 79.608 667.404 75.972 L 667.404 75.972 L 667.404 75.972 Q 668.736 72.336 671.148 69.744 L 671.148 69.744 L 671.148 69.744 Q 673.56 67.152 676.872 65.748 L 676.872 65.748 L 676.872 65.748 Q 680.184 64.344 684.144 64.344 L 684.144 64.344 L 684.144 64.344 Q 688.104 64.344 691.452 65.748 L 691.452 65.748 L 691.452 65.748 Q 694.8 67.152 697.176 69.744 L 697.176 69.744 L 697.176 69.744 Q 699.552 72.336 700.884 75.972 L 700.884 75.972 L 700.884 75.972 Q 702.216 79.608 702.216 84.072 Z  M 693.288 84.072 L 693.288 84.072 L 693.288 84.072 Q 693.288 78.456 690.876 75.18 L 690.876 75.18 L 690.876 75.18 Q 688.464 71.904 684.144 71.904 L 684.144 71.904 L 684.144 71.904 Q 679.824 71.904 677.412 75.18 L 677.412 75.18 L 677.412 75.18 Q 675 78.456 675 84.072 L 675 84.072 L 675 84.072 Q 675 89.76 677.412 93.072 L 677.412 93.072 L 677.412 93.072 Q 679.824 96.384 684.144 96.384 L 684.144 96.384 L 684.144 96.384 Q 688.464 96.384 690.876 93.072 L 690.876 93.072 L 690.876 93.072 Q 693.288 89.76 693.288 84.072 Z  M 711.216 102.936 L 711.216 66.504 L 711.216 66.504 Q 713.736 65.784 717.768 65.136 L 717.768 65.136 L 717.768 65.136 Q 721.8 64.488 726.696 64.488 L 726.696 64.488 L 726.696 64.488 Q 731.304 64.488 734.4 65.748 L 734.4 65.748 L 734.4 65.748 Q 737.496 67.008 739.332 69.276 L 739.332 69.276 L 739.332 69.276 Q 741.168 71.544 741.924 74.748 L 741.924 74.748 L 741.924 74.748 Q 742.68 77.952 742.68 81.768 L 742.68 81.768 L 742.68 102.936 L 733.968 102.936 L 733.968 83.136 L 733.968 83.136 Q 733.968 80.112 733.572 77.988 L 733.572 77.988 L 733.572 77.988 Q 733.176 75.864 732.276 74.532 L 732.276 74.532 L 732.276 74.532 Q 731.376 73.2 729.828 72.588 L 729.828 72.588 L 729.828 72.588 Q 728.28 71.976 726.048 71.976 L 726.048 71.976 L 726.048 71.976 Q 724.392 71.976 722.592 72.192 L 722.592 72.192 L 722.592 72.192 Q 720.792 72.408 719.928 72.552 L 719.928 72.552 L 719.928 102.936 L 711.216 102.936 L 711.216 102.936 Z  M 162.072 96.168 L 162.072 96.168 L 162.072 96.168 Q 166.968 96.168 169.2 94.512 L 169.2 94.512 L 169.2 94.512 Q 171.432 92.856 171.432 89.832 L 171.432 89.832 L 171.432 89.832 Q 171.432 88.032 170.676 86.736 L 170.676 86.736 L 170.676 86.736 Q 169.92 85.44 168.516 84.396 L 168.516 84.396 L 168.516 84.396 Q 167.112 83.352 165.096 82.452 L 165.096 82.452 L 165.096 82.452 Q 163.08 81.552 160.488 80.688 L 160.488 80.688 L 160.488 80.688 Q 157.896 79.752 155.484 78.636 L 155.484 78.636 L 155.484 78.636 Q 153.072 77.52 151.236 75.864 L 151.236 75.864 L 151.236 75.864 Q 149.4 74.208 148.284 71.904 L 148.284 71.904 L 148.284 71.904 Q 147.168 69.6 147.168 66.36 L 147.168 66.36 L 147.168 66.36 Q 147.168 59.592 151.848 55.74 L 151.848 55.74 L 151.848 55.74 Q 156.528 51.887 164.592 51.887 L 164.592 51.887 L 164.592 51.887 Q 169.272 51.887 172.908 52.932 L 172.908 52.932 L 172.908 52.932 Q 176.544 53.976 178.632 55.2 L 178.632 55.2 L 175.824 62.544 L 175.824 62.544 Q 173.376 61.176 170.46 60.456 L 170.46 60.456 L 170.46 60.456 Q 167.544 59.736 164.448 59.736 L 164.448 59.736 L 164.448 59.736 Q 160.776 59.736 158.724 61.248 L 158.724 61.248 L 158.724 61.248 Q 156.672 62.76 156.672 65.495 L 156.672 65.495 L 156.672 65.495 Q 156.672 67.152 157.356 68.34 L 157.356 68.34 L 157.356 68.34 Q 158.04 69.528 159.3 70.464 L 159.3 70.464 L 159.3 70.464 Q 160.56 71.4 162.252 72.192 L 162.252 72.192 L 162.252 72.192 Q 163.944 72.983 165.96 73.704 L 165.96 73.704 L 165.96 73.704 Q 169.488 75 172.26 76.332 L 172.26 76.332 L 172.26 76.332 Q 175.032 77.664 176.94 79.5 L 176.94 79.5 L 176.94 79.5 Q 178.848 81.336 179.856 83.82 L 179.856 83.82 L 179.856 83.82 Q 180.864 86.304 180.864 89.832 L 180.864 89.832 L 180.864 89.832 Q 180.864 96.6 176.076 100.308 L 176.076 100.308 L 176.076 100.308 Q 171.288 104.016 162.072 104.016 L 162.072 104.016 L 162.072 104.016 Q 158.976 104.016 156.42 103.62 L 156.42 103.62 L 156.42 103.62 Q 153.864 103.224 151.884 102.648 L 151.884 102.648 L 151.884 102.648 Q 149.904 102.072 148.464 101.46 L 148.464 101.46 L 148.464 101.46 Q 147.024 100.848 146.16 100.344 L 146.16 100.344 L 148.824 92.928 L 148.824 92.928 Q 150.768 94.008 154.08 95.088 L 154.08 95.088 L 154.08 95.088 Q 157.392 96.168 162.072 96.168 Z  M 197.208 65.28 L 197.208 102.936 L 188.496 102.936 L 188.496 65.28 L 197.208 65.28 L 197.208 65.28 Z  M 198.144 54.264 L 198.144 54.264 L 198.144 54.264 Q 198.144 56.712 196.56 58.152 L 196.56 58.152 L 196.56 58.152 Q 194.976 59.592 192.816 59.592 L 192.816 59.592 L 192.816 59.592 Q 190.584 59.592 189 58.152 L 189 58.152 L 189 58.152 Q 187.416 56.712 187.416 54.264 L 187.416 54.264 L 187.416 54.264 Q 187.416 51.744 189 50.304 L 189 50.304 L 189 50.304 Q 190.584 48.863 192.816 48.863 L 192.816 48.863 L 192.816 48.863 Q 194.976 48.863 196.56 50.304 L 196.56 50.304 L 196.56 50.304 Q 198.144 51.744 198.144 54.264 Z  M 229.752 102.936 L 229.752 83.136 L 229.752 83.136 Q 229.752 77.232 228.276 74.604 L 228.276 74.604 L 228.276 74.604 Q 226.8 71.976 222.768 71.976 L 222.768 71.976 L 222.768 71.976 Q 221.328 71.976 219.6 72.192 L 219.6 72.192 L 219.6 72.192 Q 217.872 72.408 217.008 72.552 L 217.008 72.552 L 217.008 102.936 L 208.296 102.936 L 208.296 66.504 L 208.296 66.504 Q 210.816 65.784 214.884 65.136 L 214.884 65.136 L 214.884 65.136 Q 218.952 64.488 223.488 64.488 L 223.488 64.488 L 223.488 64.488 Q 227.376 64.488 229.86 65.495 L 229.86 65.495 L 229.86 65.495 Q 232.344 66.504 234 68.16 L 234 68.16 L 234 68.16 Q 234.792 67.584 236.016 66.935 L 236.016 66.935 L 236.016 66.935 Q 237.24 66.288 238.752 65.748 L 238.752 65.748 L 238.752 65.748 Q 240.264 65.208 241.956 64.848 L 241.956 64.848 L 241.956 64.848 Q 243.648 64.488 245.376 64.488 L 245.376 64.488 L 245.376 64.488 Q 249.768 64.488 252.612 65.748 L 252.612 65.748 L 252.612 65.748 Q 255.456 67.008 257.076 69.276 L 257.076 69.276 L 257.076 69.276 Q 258.696 71.544 259.308 74.748 L 259.308 74.748 L 259.308 74.748 Q 259.92 77.952 259.92 81.768 L 259.92 81.768 L 259.92 102.936 L 251.208 102.936 L 251.208 83.136 L 251.208 83.136 Q 251.208 77.232 249.768 74.604 L 249.768 74.604 L 249.768 74.604 Q 248.328 71.976 244.224 71.976 L 244.224 71.976 L 244.224 71.976 Q 242.136 71.976 240.264 72.66 L 240.264 72.66 L 240.264 72.66 Q 238.392 73.344 237.456 73.992 L 237.456 73.992 L 237.456 73.992 Q 238.032 75.792 238.248 77.808 L 238.248 77.808 L 238.248 77.808 Q 238.464 79.824 238.464 82.128 L 238.464 82.128 L 238.464 102.936 L 229.752 102.936 L 229.752 102.936 Z  M 295.56 84.288 L 295.56 84.288 L 295.56 84.288 Q 295.56 78.456 292.932 75.216 L 292.932 75.216 L 292.932 75.216 Q 290.304 71.976 284.472 71.976 L 284.472 71.976 L 284.472 71.976 Q 283.248 71.976 281.916 72.084 L 281.916 72.084 L 281.916 72.084 Q 280.584 72.192 279.288 72.552 L 279.288 72.552 L 279.288 94.08 L 279.288 94.08 Q 280.44 94.872 282.348 95.556 L 282.348 95.556 L 282.348 95.556 Q 284.256 96.24 286.416 96.24 L 286.416 96.24 L 286.416 96.24 Q 291.168 96.24 293.364 93 L 293.364 93 L 293.364 93 Q 295.56 89.76 295.56 84.288 Z  M 304.488 84.144 L 304.488 84.144 L 304.488 84.144 Q 304.488 88.464 303.372 92.064 L 303.372 92.064 L 303.372 92.064 Q 302.256 95.664 300.168 98.256 L 300.168 98.256 L 300.168 98.256 Q 298.08 100.848 294.948 102.288 L 294.948 102.288 L 294.948 102.288 Q 291.816 103.728 287.856 103.728 L 287.856 103.728 L 287.856 103.728 Q 285.192 103.728 282.96 103.08 L 282.96 103.08 L 282.96 103.08 Q 280.728 102.432 279.288 101.64 L 279.288 101.64 L 279.288 116.256 L 270.576 116.256 L 270.576 66.504 L 270.576 66.504 Q 273.24 65.784 277.128 65.136 L 277.128 65.136 L 277.128 65.136 Q 281.016 64.488 285.336 64.488 L 285.336 64.488 L 285.336 64.488 Q 289.8 64.488 293.328 65.856 L 293.328 65.856 L 293.328 65.856 Q 296.856 67.224 299.34 69.78 L 299.34 69.78 L 299.34 69.78 Q 301.824 72.336 303.156 75.972 L 303.156 75.972 L 303.156 75.972 Q 304.488 79.608 304.488 84.144 Z  M 327.816 96.456 L 326.592 103.656 L 326.592 103.656 Q 322.704 103.584 320.148 102.792 L 320.148 102.792 L 320.148 102.792 Q 317.592 102 316.08 100.524 L 316.08 100.524 L 316.08 100.524 Q 314.568 99.048 313.956 96.852 L 313.956 96.852 L 313.956 96.852 Q 313.344 94.656 313.344 91.848 L 313.344 91.848 L 313.344 48.503 L 322.056 47.064 L 322.056 90.192 L 322.056 90.192 Q 322.056 91.776 322.308 92.856 L 322.308 92.856 L 322.308 92.856 Q 322.56 93.936 323.208 94.692 L 323.208 94.692 L 323.208 94.692 Q 323.856 95.448 324.972 95.844 L 324.972 95.844 L 324.972 95.844 Q 326.088 96.24 327.816 96.456 L 327.816 96.456 L 327.816 96.456 Z  M 356.616 65.28 L 365.616 65.28 L 365.616 65.28 Q 359.795 86.736 352.105 104.16 L 352.105 104.16 L 352.105 104.16 Q 350.664 107.4 349.15 109.704 L 349.15 109.704 L 349.15 109.704 Q 347.636 112.008 345.762 113.52 L 345.762 113.52 L 345.762 113.52 Q 343.888 115.032 341.582 115.716 L 341.582 115.716 L 341.582 115.716 Q 339.275 116.4 336.248 116.4 L 336.248 116.4 L 336.248 116.4 Q 334.23 116.4 332.247 115.968 L 332.247 115.968 L 332.247 115.968 Q 330.265 115.536 329.256 115.032 L 329.256 115.032 L 330.84 108.048 L 330.84 108.048 Q 333.43 109.056 335.947 109.056 L 335.947 109.056 L 335.947 109.056 Q 339.328 109.056 341.234 107.436 L 341.234 107.436 L 341.234 107.436 Q 343.14 105.816 344.579 102.432 L 344.579 102.432 L 344.579 102.432 Q 340.479 94.512 336.702 85.152 L 336.702 85.152 L 336.702 85.152 Q 332.925 75.792 329.976 65.28 L 329.976 65.28 L 339.264 65.28 L 339.264 65.28 Q 339.987 68.304 341.035 71.832 L 341.035 71.832 L 341.035 71.832 Q 342.083 75.36 343.312 78.996 L 343.312 78.996 L 343.312 78.996 Q 344.54 82.632 345.913 86.232 L 345.913 86.232 L 345.913 86.232 Q 347.287 89.832 348.66 92.928 L 348.66 92.928 L 348.66 92.928 Q 350.954 86.52 352.961 79.284 L 352.961 79.284 L 352.961 79.284 Q 354.967 72.048 356.616 65.28 L 356.616 65.28 L 356.616 65.28 Z " fill="rgb(66,61,51)"/><g><circle vector-effect="non-scaling-stroke" cx="62.5" cy="76.1875" r="62.5" fill="rgb(66,61,51)"/><g><path d="M 27.574 94.71 L 97.426 94.71 C 98.275 94.71 98.964 95.399 98.964 96.248 L 98.964 97.149 C 98.964 97.998 98.275 98.688 97.426 98.688 L 27.574 98.688 C 26.725 98.688 26.036 97.998 26.036 97.149 L 26.036 96.248 C 26.036 95.399 26.725 94.71 27.574 94.71 Z" style="stroke:none;fill:#F0B429;stroke-miterlimit:10;"/><path d=" M 98.76 73.447 L 98.76 76.968 L 86.72 82.025 L 85.628 78.637 L 94.42 75.207 L 85.628 71.777 L 86.72 68.389 L 98.76 73.447 Z  M 53.652 80.597 L 53.652 80.597 L 53.652 80.597 Q 54.8 80.597 55.276 80.373 L 55.276 80.373 L 55.276 80.373 Q 55.752 80.15 55.752 79.506 L 55.752 79.506 L 55.752 79.506 Q 55.752 79.001 55.136 78.623 L 55.136 78.623 L 55.136 78.623 Q 54.52 78.246 53.26 77.77 L 53.26 77.77 L 53.26 77.77 Q 52.28 77.405 51.482 77.013 L 51.482 77.013 L 51.482 77.013 Q 50.684 76.622 50.124 76.076 L 50.124 76.076 L 50.124 76.076 Q 49.564 75.529 49.256 74.774 L 49.256 74.774 L 49.256 74.774 Q 48.948 74.017 48.948 72.954 L 48.948 72.954 L 48.948 72.954 Q 48.948 70.882 50.488 69.677 L 50.488 69.677 L 50.488 69.677 Q 52.028 68.473 54.716 68.473 L 54.716 68.473 L 54.716 68.473 Q 56.06 68.473 57.292 68.711 L 57.292 68.711 L 57.292 68.711 Q 58.524 68.95 59.252 69.23 L 59.252 69.23 L 58.524 72.478 L 58.524 72.478 Q 57.796 72.225 56.942 72.029 L 56.942 72.029 L 56.942 72.029 Q 56.088 71.833 55.024 71.833 L 55.024 71.833 L 55.024 71.833 Q 53.064 71.833 53.064 72.926 L 53.064 72.926 L 53.064 72.926 Q 53.064 73.177 53.148 73.373 L 53.148 73.373 L 53.148 73.373 Q 53.232 73.569 53.484 73.751 L 53.484 73.751 L 53.484 73.751 Q 53.736 73.933 54.17 74.142 L 54.17 74.142 L 54.17 74.142 Q 54.604 74.351 55.276 74.602 L 55.276 74.602 L 55.276 74.602 Q 56.648 75.103 57.544 75.59 L 57.544 75.59 L 57.544 75.59 Q 58.44 76.077 58.958 76.652 L 58.958 76.652 L 58.958 76.652 Q 59.476 77.227 59.686 77.928 L 59.686 77.928 L 59.686 77.928 Q 59.896 78.629 59.896 79.554 L 59.896 79.554 L 59.896 79.554 Q 59.896 81.742 58.258 82.864 L 58.258 82.864 L 58.258 82.864 Q 56.62 83.985 53.624 83.985 L 53.624 83.985 L 53.624 83.985 Q 51.664 83.985 50.362 83.65 L 50.362 83.65 L 50.362 83.65 Q 49.06 83.314 48.556 83.09 L 48.556 83.09 L 49.256 79.702 L 49.256 79.702 Q 50.32 80.122 51.44 80.359 L 51.44 80.359 L 51.44 80.359 Q 52.56 80.597 53.652 80.597 Z  M 63.004 83.594 L 63.004 69.37 L 63.004 69.37 Q 64.068 69.062 65.748 68.796 L 65.748 68.796 L 65.748 68.796 Q 67.428 68.529 69.276 68.529 L 69.276 68.529 L 69.276 68.529 Q 71.152 68.529 72.398 69.02 L 72.398 69.02 L 72.398 69.02 Q 73.644 69.51 74.372 70.405 L 74.372 70.405 L 74.372 70.405 Q 75.1 71.302 75.408 72.534 L 75.408 72.534 L 75.408 72.534 Q 75.716 73.765 75.716 75.277 L 75.716 75.277 L 75.716 83.594 L 71.544 83.594 L 71.544 75.781 L 71.544 75.781 Q 71.544 73.765 71.012 72.926 L 71.012 72.926 L 71.012 72.926 Q 70.48 72.085 69.024 72.085 L 69.024 72.085 L 69.024 72.085 Q 68.576 72.085 68.072 72.127 L 68.072 72.127 L 68.072 72.127 Q 67.568 72.169 67.176 72.225 L 67.176 72.225 L 67.176 83.594 L 63.004 83.594 Z  M 26.24 76.968 L 26.24 73.447 L 38.28 68.389 L 39.372 71.777 L 30.58 75.207 L 39.372 78.637 L 38.28 82.025 L 26.24 76.968 Z " fill="rgb(240,180,41)"/><path d="M 27.574 53.688 L 97.426 53.688 C 98.275 53.688 98.964 54.377 98.964 55.226 L 98.964 56.127 C 98.964 56.976 98.275 57.665 97.426 57.665 L 27.574 57.665 C 26.725 57.665 26.036 56.976 26.036 56.127 L 26.036 55.226 C 26.036 54.377 26.725 53.688 27.574 53.688 Z" style="stroke:none;fill:#F0B429;stroke-miterlimit:10;"/></g></g></g></svg>